<?xml version="1.0" encoding="UTF-8" standalone="no"?>
<!-- Created with Inkscape (http://www.inkscape.org/) -->

<svg
   width="56.462074mm"
   height="61.50605mm"
   viewBox="0 0 56.462074 61.50605"
   version="1.1"
   id="svg1"
   xml:space="preserve"
   inkscape:version="1.4 (1:1.4+202410161351+e7c3feb100)"
   sodipodi:docname="1grain.svg"
   xmlns:inkscape="http://www.inkscape.org/namespaces/inkscape"
   xmlns:sodipodi="http://sodipodi.sourceforge.net/DTD/sodipodi-0.dtd"
   xmlns:xlink="http://www.w3.org/1999/xlink"
   xmlns="http://www.w3.org/2000/svg"
   xmlns:svg="http://www.w3.org/2000/svg"><sodipodi:namedview
     id="namedview1"
     pagecolor="#ffffff"
     bordercolor="#000000"
     borderopacity="0.25"
     inkscape:showpageshadow="2"
     inkscape:pageopacity="0.0"
     inkscape:pagecheckerboard="0"
     inkscape:deskcolor="#d1d1d1"
     inkscape:document-units="mm"
     showgrid="true"
     inkscape:zoom="0.7349537"
     inkscape:cx="301.37953"
     inkscape:cy="44.220472"
     inkscape:window-width="1920"
     inkscape:window-height="1029"
     inkscape:window-x="1920"
     inkscape:window-y="27"
     inkscape:window-maximized="1"
     inkscape:current-layer="layer1"><inkscape:grid
       id="grid22"
       units="mm"
       originx="-13.843236"
       originy="-9.0272241"
       spacingx="0.26458333"
       spacingy="0.26458334"
       empcolor="#0099e5"
       empopacity="0.30196078"
       color="#0099e5"
       opacity="0.14901961"
       empspacing="5"
       enabled="true"
       visible="true" /></sodipodi:namedview><defs
     id="defs1"><clipPath
       clipPathUnits="userSpaceOnUse"
       id="clipPath5"><path
         id="path5"
         style="stroke-width:0.1;stroke-linecap:square;paint-order:markers fill stroke;stop-color:#000000"
         d="M 438.25066,553.76374 H 1298.1212 V 755.15928 H 438.25066 Z"
         sodipodi:nodetypes="ccccc" /></clipPath><clipPath
       clipPathUnits="userSpaceOnUse"
       id="clipPath9"><path
         id="path9"
         style="stroke-width:0.1;stroke-linecap:square;paint-order:markers fill stroke;stop-color:#000000"
         d="m -880.82767,-187.29769 h 1640.84 v 73.28155 h -1640.84 z" /></clipPath><clipPath
       clipPathUnits="userSpaceOnUse"
       id="clipPath52"><path
         id="path52"
         style="stroke-width:0.1;stroke-linecap:square;paint-order:markers fill stroke;stop-color:#000000"
         d="m -880.82767,-187.29769 h 1640.84 v 73.28155 h -1640.84 z" /></clipPath><clipPath
       clipPathUnits="userSpaceOnUse"
       id="clipPath27"><rect
         style="fill:none;stroke:#000000;stroke-width:0.999999;stroke-linecap:butt;stroke-linejoin:bevel;paint-order:stroke markers fill;stop-color:#000000"
         id="rect28-6"
         width="46.160622"
         height="39.922417"
         x="86.574379"
         y="420.06253" /></clipPath><pattern
       inkscape:collect="always"
       xlink:href="#circle-92-5"
       preserveAspectRatio="xMidYMid"
       id="pattern14-5-3"
       patternTransform="matrix(0.3,0,0,0.3,310.97673,-95.94906)"
       x="0"
       y="0"
       height="20"
       width="14" /><pattern
       patternUnits="userSpaceOnUse"
       width="10"
       height="10"
       patternTransform="translate(307.92203,-100.78567)"
       preserveAspectRatio="xMidYMid"
       id="circle-92-5"
       style="fill:#000000"
       x="0"
       y="0"
       inkscape:label="Circle"
       inkscape:collect="always"
       inkscape:isstock="true"><circle
         style="display:inline;fill-opacity:1;stroke-width:6;stroke-linecap:square;paint-order:markers fill stroke;stop-color:#000000"
         id="path10-6-1"
         cx="5"
         cy="5"
         r="5" /></pattern><pattern
       inkscape:collect="always"
       xlink:href="#Strips1_1-5-8"
       preserveAspectRatio="xMidYMid"
       id="pattern20-8-7"
       patternTransform="scale(0.3)"
       x="5"
       y="0"
       width="14" /><pattern
       inkscape:collect="always"
       patternUnits="userSpaceOnUse"
       width="2"
       height="10"
       patternTransform="translate(0,0) scale(2,2)"
       preserveAspectRatio="xMidYMid"
       id="Strips1_1-5-8"
       style="fill:#00bf00"
       inkscape:stockid="Stripes 01 (1:1)"
       inkscape:isstock="true"
       inkscape:label="Stripes 01 (1:1)">
      <rect
   style="stroke:none"
   x="0"
   y="-0.5"
   width="1"
   height="11"
   id="rect134-2-9" />
    </pattern><pattern
       inkscape:collect="always"
       xlink:href="#Strips1_1-9-36-1"
       preserveAspectRatio="xMidYMid"
       id="pattern20-1-8-4"
       patternTransform="matrix(0,-0.29373214,0.16505254,0,30.863152,18.752922)"
       x="-4"
       y="0"
       width="20.4" /><pattern
       inkscape:collect="always"
       patternUnits="userSpaceOnUse"
       width="2"
       height="10"
       patternTransform="translate(0,0) scale(2,2)"
       preserveAspectRatio="xMidYMid"
       id="Strips1_1-9-36-1"
       style="fill:#c555f7"
       inkscape:stockid="Stripes 01 (1:1)"
       inkscape:isstock="true"
       inkscape:label="Stripes 01 (1:1)">
      <rect
   style="stroke:none"
   x="0"
   y="-0.5"
   width="1"
   height="11"
   id="rect134-1-7-6" />
    </pattern><pattern
       inkscape:collect="always"
       xlink:href="#Strips1_1-9-5-2-3"
       preserveAspectRatio="xMidYMid"
       id="pattern20-1-2-87-4"
       patternTransform="matrix(0.13818433,-0.0986364,0.13342265,0.18691806,-5.248772,33.485581)"
       x="-4"
       y="0"
       width="20.4" /><pattern
       inkscape:collect="always"
       patternUnits="userSpaceOnUse"
       width="2"
       height="10"
       patternTransform="translate(0,0) scale(2,2)"
       preserveAspectRatio="xMidYMid"
       id="Strips1_1-9-5-2-3"
       style="fill:#00a8f7"
       inkscape:stockid="Stripes 01 (1:1)"
       inkscape:isstock="true"
       inkscape:label="Stripes 01 (1:1)">
      <rect
   style="stroke:none"
   x="0"
   y="-0.5"
   width="1"
   height="11"
   id="rect134-1-9-6-5" />
    </pattern></defs><g
     inkscape:label="Layer 1"
     inkscape:groupmode="layer"
     id="layer1"
     transform="translate(-13.843237,-9.027224)"><g
       id="g22-2-8"
       transform="rotate(74.151299,43.480026,43.148944)"><path
         style="fill:url(#pattern14-5-3);fill-opacity:1;stroke:#000000;stroke-width:1.265;stroke-linecap:round;stroke-dasharray:none;stroke-dashoffset:0;stroke-opacity:1;paint-order:fill markers stroke"
         d="m 12.727922,45.820518 c 0,0 7.382194,20.110116 12.473363,22.146585 5.091169,2.036466 14.255272,-2.800144 15.782624,-2.291027 1.52735,0.509119 3.818377,9.164105 9.418662,9.418663 5.600284,0.254559 8.145869,-8.145869 11.964246,-9.92778 3.818377,-1.781908 6.109404,-7.891311 3.818377,-15.018948 -2.291027,-7.127634 4.582051,-15.273504 4.836609,-17.055415 0.254559,-1.781908 -13.746154,-17.055415 -17.564531,-12.98248 -3.818376,4.072935 -14.76439,3.054701 -16.291739,2.291026 -1.527353,-0.763675 -20.619235,-2.036467 -22.655702,1.527351 -2.036467,3.563818 -4.072935,14.509832 -1.781909,21.892025 z"
         id="path1-9-7" /><path
         style="fill:url(#pattern20-8-7);fill-opacity:1;fill-rule:nonzero;stroke:#000000;stroke-width:0;stroke-linecap:round;stroke-dasharray:none;stroke-dashoffset:0;stroke-opacity:1;paint-order:fill markers stroke"
         d="m 12.727922,45.820518 c 0,0 7.382194,20.110116 12.473363,22.146585 5.091169,2.036466 14.255272,-2.800144 15.782624,-2.291027 1.52735,0.509119 3.818377,9.164105 9.418662,9.418663 5.600284,0.254559 8.145869,-8.145869 11.964246,-9.92778 3.818377,-1.781908 6.109404,-7.891311 3.818377,-15.018948 -2.291027,-7.127634 4.582051,-15.273504 4.836609,-17.055415 0.254559,-1.781908 -13.746154,-17.055415 -17.564531,-12.98248 -3.818376,4.072935 -14.76439,3.054701 -16.291739,2.291026 -1.527353,-0.763675 -20.619235,-2.036467 -22.655702,1.527351 -2.036467,3.563818 -4.072935,14.509832 -1.781909,21.892025 z"
         id="path1-6-7-3" /><path
         style="fill:url(#pattern20-1-8-4);fill-opacity:1;fill-rule:nonzero;stroke:#000000;stroke-width:0;stroke-linecap:round;stroke-dasharray:none;stroke-dashoffset:0;stroke-opacity:1;paint-order:fill markers stroke"
         d="m 12.727922,45.820518 c 0,0 7.382194,20.110116 12.473363,22.146585 5.091169,2.036466 14.255272,-2.800144 15.782624,-2.291027 1.52735,0.509119 3.818377,9.164105 9.418662,9.418663 5.600284,0.254559 8.145869,-8.145869 11.964246,-9.92778 3.818377,-1.781908 6.109404,-7.891311 3.818377,-15.018948 -2.291027,-7.127634 4.582051,-15.273504 4.836609,-17.055415 0.254559,-1.781908 -13.746154,-17.055415 -17.564531,-12.98248 -3.818376,4.072935 -14.76439,3.054701 -16.291739,2.291026 -1.527353,-0.763675 -20.619235,-2.036467 -22.655702,1.527351 -2.036467,3.563818 -4.072935,14.509832 -1.781909,21.892025 z"
         id="path1-6-9-0-3" /><path
         style="mix-blend-mode:normal;fill:url(#pattern20-1-2-87-4);fill-opacity:1;fill-rule:nonzero;stroke:#000000;stroke-width:1.3;stroke-linecap:round;stroke-dasharray:none;stroke-dashoffset:0;stroke-opacity:1;paint-order:fill markers stroke"
         d="m 12.727922,45.820518 c 0,0 7.382194,20.110116 12.473363,22.146586 5.091169,2.03647 14.255272,-2.800145 15.782624,-2.291028 1.52735,0.509119 3.818377,9.164108 9.418662,9.418668 5.600284,0.25455 8.145869,-8.14587 11.964246,-9.927785 3.818377,-1.781908 6.109404,-7.891311 3.818377,-15.018948 -2.291027,-7.127634 4.582051,-15.273504 4.836609,-17.055415 0.254559,-1.781908 -13.746154,-17.055415 -17.564531,-12.98248 -3.818376,4.072935 -14.76439,3.054701 -16.291739,2.291026 -1.527353,-0.763675 -20.619235,-2.036467 -22.655702,1.527351 -2.036467,3.563818 -4.072935,14.509832 -1.781909,21.892025 z"
         id="path1-6-9-7-3-5" /></g></g></svg>
