<?xml version="1.0" encoding="UTF-8" standalone="no"?>
<!-- Created with Inkscape (http://www.inkscape.org/) -->

<svg
   version="1.1"
   id="svg1"
   width="574.99335"
   height="249.04668"
   viewBox="0 0 574.99335 249.04668"
   sodipodi:docname="4dto3d.svg"
   inkscape:version="1.4 (1:1.4+202410161351+e7c3feb100)"
   xmlns:inkscape="http://www.inkscape.org/namespaces/inkscape"
   xmlns:sodipodi="http://sodipodi.sourceforge.net/DTD/sodipodi-0.dtd"
   xmlns="http://www.w3.org/2000/svg"
   xmlns:svg="http://www.w3.org/2000/svg">
  <defs
     id="defs1" />
  <sodipodi:namedview
     id="namedview1"
     pagecolor="#ffffff"
     bordercolor="#000000"
     borderopacity="0.25"
     inkscape:showpageshadow="2"
     inkscape:pageopacity="0.0"
     inkscape:pagecheckerboard="0"
     inkscape:deskcolor="#d1d1d1"
     inkscape:zoom="1.4513211"
     inkscape:cx="271.13227"
     inkscape:cy="108.86633"
     inkscape:window-width="1920"
     inkscape:window-height="1056"
     inkscape:window-x="3840"
     inkscape:window-y="0"
     inkscape:window-maximized="1"
     inkscape:current-layer="g1">
    <inkscape:page
       x="0"
       y="0"
       inkscape:label="1"
       id="page1"
       width="574.99335"
       height="249.04668"
       margin="0"
       bleed="0" />
  </sodipodi:namedview>
  <g
     id="g1"
     inkscape:groupmode="layer"
     inkscape:label="1">
    <path
       id="path1"
       d="M -158.73976,-22.6771 -181.41685,-11.33855 -158.73976,0 l 22.67709,-11.33855 z"
       style="fill:#2ecc71;fill-opacity:1;fill-rule:nonzero;stroke:#000000;stroke-width:0.3985;stroke-linecap:butt;stroke-linejoin:miter;stroke-miterlimit:10;stroke-dasharray:none;stroke-opacity:1"
       transform="matrix(1.3333333,0,0,-1.3333333,367.14,155.49067)" />
    <path
       id="path2"
       d="m -158.73978,-22.67708 22.6771,11.33855 m -28.34638,-8.50391 22.6771,11.33855 m -28.34636,-8.50391 22.67709,11.33855 m -28.34637,-8.50391 22.67709,11.33855 m -28.34238,-8.50591 22.67709,11.33855 m -0.004,-22.67511 -22.67709,11.33855 m 28.34636,-8.50391 -22.67709,11.33855 m 28.34637,-8.50391 -22.6771,11.33855 m 28.34637,-8.50391 -22.6771,11.33855 m 28.34239,-8.50591 -22.67709,11.33855"
       style="fill:#3498db;fill-opacity:1;fill-rule:nonzero;stroke:#000000;stroke-width:0.79701;stroke-linecap:butt;stroke-linejoin:miter;stroke-miterlimit:10;stroke-dasharray:none;stroke-opacity:1"
       transform="matrix(1.3333333,0,0,-1.3333333,367.14,155.49067)" />
    <path
       id="path3"
       d="m -221.10178,2.83463 10.70592,5.35296"
       style="fill:none;stroke:#000000;stroke-width:0.79701;stroke-linecap:butt;stroke-linejoin:miter;stroke-miterlimit:10;stroke-dasharray:none;stroke-opacity:1"
       transform="matrix(1.3333333,0,0,-1.3333333,367.14,155.49067)" />
    <path
       id="path4"
       d="M -1.55415,2.0722 C -1.42464,1.29512 0,0.1295 0.38852,0 0,-0.1295 -1.42464,-1.29512 -1.55415,-2.0722"
       style="fill:none;stroke:#000000;stroke-width:0.6376;stroke-linecap:round;stroke-linejoin:round;stroke-miterlimit:10;stroke-dasharray:none;stroke-opacity:1"
       transform="matrix(1.19248,-0.59622667,-0.59622667,-1.19248,86.612173,144.57389)" />
    <g
       id="g4"
       aria-label="q&#10;x"
       transform="matrix(1.3333333,-0.66666667,1.3333333,0.66666667,54.450667,143.48533)">
      <path
         id="path5"
         d="m 6.3283008,-6.1887617 c 0.00586,-0.064453 -0.070312,-0.1171875 -0.140625,-0.1171875 -0.1171875,0 -0.6621094,0.5097656 -0.9375,1.0078125 -0.2578125,-0.6328125 -0.703125,-1.03125 -1.3183594,-1.0371094 -1.6289062,0.011719 -3.36914062,2.0917969 -3.37499999,4.21875 0.005859,1.41210938 0.83203129,2.26171876 1.81054689,2.25585938 0.7558594,0.005859 1.3945312,-0.57421875 1.6816406,-0.89648437 l 0.029297,0.005859 L 3.5333789,1.3991289 3.3986133,1.9206133 C 3.269707,2.354207 3.0587695,2.354207 2.3849414,2.3600664 c -0.1582031,0.00586 -0.2988281,0.00586 -0.2929687,0.2695313 -0.00586,0.1113281 0.076172,0.1464843 0.1699218,0.1464843 0.1933594,0.00586 0.46875,-0.023437 0.6738282,-0.029297 l 1.4589843,0.00586 c 0.2109375,0 0.4511719,0.029297 0.6621094,0.029297 0.087891,-0.00586 0.2578125,0 0.2695313,-0.2695312 -0.00586,-0.1464844 -0.1171875,-0.140625 -0.3339844,-0.1464844 -0.6738281,0.00586 -0.7265625,-0.09375 -0.7265625,-0.2109375 0.00586,-0.064453 0.029297,-0.087891 0.064453,-0.2871094 z m -2.0097656,4.4824219 c -0.076172,0.2285156 -0.087891,0.2636718 -0.2871094,0.5332031 -0.3105469,0.41601561 -0.9550781,1.03710936 -1.6171875,1.03124998 -0.5859375,0 -0.9140625,-0.5390625 -0.9199219,-1.38867188 -0.00586,-0.7792969 0.4453125,-2.390625 0.7148438,-2.9882812 0.4863281,-1.0136719 1.171875,-1.5234375 1.7285156,-1.5292969 0.9433594,0.00586 1.1191406,1.1894531 1.1191406,1.3066406 0.00586,0.00586 -0.041016,0.1933594 -0.041016,0.2167969 z m 0,0"
         style="fill:#000000;fill-opacity:1;fill-rule:nonzero;stroke:none" />
      <path
         id="path6"
         d="m 9.5612109,-0.86405469 c 0.046875,-0.23437501 0.2753907,-1.15429691 0.9726561,-1.16015621 0.04687,0 0.28711,0.00586 0.509766,0.1347656 -0.292969,0.035156 -0.492188,0.28125 -0.486328,0.5214844 0,0.1640625 0.111328,0.3457031 0.375,0.3515625 0.210937,0 0.550781,-0.1757813 0.544922,-0.5800782 0.0059,-0.5097656 -0.585938,-0.65625 -0.931641,-0.6503906 -0.5742188,-0.011719 -0.9257813,0.5273438 -1.0429688,0.7617188 -0.2578125,-0.65625 -0.7910156,-0.7675782 -1.0722656,-0.7675782 -1.0371094,-0.00586 -1.6113282,1.29492191 -1.6171875,1.54687504 0.00586,0.0996094 0.1113281,0.0878906 0.1230468,0.0996094 0.087891,-0.005859 0.1171875,-0.0234375 0.1347657,-0.12304687 0.3515625,-1.05468757 0.9960937,-1.30078127 1.3300781,-1.29492187 0.1875,0 0.5390625,0.09375 0.5449219,0.6621093 0,0.3046875 -0.1757813,0.97265632 -0.5332032,2.3730469 -0.1699218,0.6269531 -0.5097656,1.0371094 -0.9492187,1.0429688 -0.070312,0 -0.3046875,0 -0.5039063,-0.1289063 0.2460938,-0.058594 0.46875,-0.2578125 0.46875,-0.5390625 0.00586,-0.2753906 -0.2167968,-0.3574219 -0.3574218,-0.3574219 -0.3046875,0 -0.5449219,0.2519532 -0.5507813,0.5742188 0.00586,0.4511719 0.5039063,0.6445312 0.9375,0.65625 0.65625,0 1.0136719,-0.6972656 1.0371094,-0.7441406 0.1289062,0.3632812 0.4804687,0.7382812 1.0839844,0.7324218 1.0195309,0.011719 1.5820309,-1.27734368 1.5878909,-1.52929681 0,-0.09375 -0.08789,-0.0878906 -0.117188,-0.09375 -0.09375,0 -0.111328,0.0527344 -0.140625,0.1171875 C 10.586602,1.8019609 9.9010547,2.0539141 9.5905078,2.0480547 9.1979297,2.0539141 9.0397266,1.7316484 9.0455859,1.3859453 c 0,-0.2109375 0.058594,-0.43359374 0.1640625,-0.86718749 z m 0,0"
         style="fill:#000000;fill-opacity:1;fill-rule:nonzero;stroke:none" />
    </g>
    <path
       id="path7"
       d="m -221.10178,2.83463 10.70592,-5.35296"
       style="fill:none;stroke:#000000;stroke-width:0.79701;stroke-linecap:butt;stroke-linejoin:miter;stroke-miterlimit:10;stroke-dasharray:none;stroke-opacity:1"
       transform="matrix(1.3333333,0,0,-1.3333333,367.14,155.49067)" />
    <path
       id="path8"
       d="M -1.55415,2.0722 C -1.42464,1.29512 0,0.1295 0.38852,0 0,-0.1295 -1.42464,-1.29512 -1.55415,-2.0722"
       style="fill:none;stroke:#000000;stroke-width:0.6376;stroke-linecap:round;stroke-linejoin:round;stroke-miterlimit:10;stroke-dasharray:none;stroke-opacity:1"
       transform="matrix(1.19248,0.59622667,0.59622667,-1.19248,86.612173,158.84841)" />
    <g
       id="g8"
       aria-label="q&#10;y"
       transform="matrix(1.3333333,-0.66666667,1.3333333,0.66666667,53.884,169.88933)">
      <path
         id="path9"
         d="m 6.3267109,-6.1869766 c 0.00586,-0.064453 -0.070312,-0.1171875 -0.140625,-0.1171875 -0.1171875,0 -0.6621093,0.5097657 -0.9375,1.0078125 -0.2578125,-0.6328125 -0.703125,-1.03125 -1.3183593,-1.0371093 -1.6289063,0.011719 -3.36914066,2.0917968 -3.37500004,4.21875 0.005859,1.41210934 0.83203124,2.26171871 1.81054684,2.25585934 0.7558594,0.005859 1.3945313,-0.57421875 1.6816407,-0.89648438 l 0.029297,0.005859 L 3.5317891,1.4009141 3.3970234,1.9223984 C 3.2681172,2.3559922 3.0571797,2.3559922 2.3833516,2.3618516 c -0.1582032,0.00586 -0.2988282,0.00586 -0.2929688,0.2695312 -0.00586,0.1113281 0.076172,0.1464844 0.1699219,0.1464844 0.1933594,0.00586 0.46875,-0.023437 0.6738281,-0.029297 l 1.4589844,0.00586 c 0.2109375,0 0.4511719,0.029297 0.6621094,0.029297 0.087891,-0.00586 0.2578125,0 0.2695312,-0.2695313 C 5.3188978,2.3677115 5.2075703,2.3735709 4.9907734,2.3677115 4.3169453,2.3735715 4.2642109,2.2739615 4.2642109,2.156774 4.2700709,2.092321 4.2935079,2.068883 4.3286639,1.8696647 Z m -2.0097656,4.4824219 c -0.076172,0.2285156 -0.087891,0.2636719 -0.2871094,0.5332031 -0.3105468,0.41601566 -0.9550781,1.03710941 -1.6171875,1.03125004 -0.5859375,0 -0.9140625,-0.5390625 -0.9199218,-1.38867184 -0.00586,-0.7792969 0.4453125,-2.390625 0.7148437,-2.9882813 0.4863281,-1.0136719 1.171875,-1.5234375 1.7285156,-1.5292969 0.9433594,0.00586 1.1191407,1.1894532 1.1191407,1.3066407 0.00586,0.00586 -0.041016,0.1933593 -0.041016,0.2167968 z m 0,0"
         style="fill:#000000;fill-opacity:1;fill-rule:nonzero;stroke:none" />
      <path
         id="path10"
         d="m 11.07427,-1.6503555 c 0.03516,-0.1289062 0.0293,-0.1582031 0.03516,-0.2226562 -0.01172,-0.1757813 -0.152344,-0.2695313 -0.292969,-0.2695313 -0.111328,0.00586 -0.251953,0.052734 -0.351562,0.2109375 -0.01758,0.052734 -0.09375,0.3515625 -0.140625,0.5390625 -0.07031,0.2578125 -0.128907,0.52734378 -0.205079,0.80273441 L 9.691457,1.185582 C 9.6563008,1.3379258 9.2051289,2.0586289 8.5488789,2.0586289 8.050832,2.0527695 7.9336445,1.607457 7.9395039,1.2383164 7.9453633,0.77542578 8.1094258,0.16605078 8.4492695,-0.71285547 8.613332,-1.1347305 8.6484883,-1.2167617 8.6484883,-1.4276992 c 0,-0.4453125 -0.328125,-0.8203125 -0.8203125,-0.8203125 -0.9433594,-0.00586 -1.3066406,1.43554686 -1.3066406,1.52929686 0.00586,0.0996094 0.099609,0.0996094 0.1113281,0.11132812 0.09375,0 0.1113281,-0.0292969 0.1582031,-0.19335937 C 7.066457,-1.720668 7.4648945,-2.0253555 7.7930195,-2.0253555 c 0.087891,-0.00586 0.2578125,0 0.2636719,0.3105469 -0.00586,0.2519531 -0.1113281,0.5214844 -0.1757812,0.6914063 -0.3925782,1.06054683 -0.5742188,1.62890621 -0.5742188,2.0976562 0,0.890625 0.6210938,1.1835938 1.2070313,1.1835938 0.3984375,0 0.7382812,-0.1757813 1.0078125,-0.4453125 C 9.3926289,2.3398789 9.269582,2.826207 8.8770039,3.3476914 8.6250508,3.6816758 8.238332,3.9746445 7.769582,3.9746445 7.6348164,3.9805039 7.1836445,3.951207 7.0254414,3.5586289 c 0.1582031,-0.00586 0.2988281,-0.00586 0.4277344,-0.1113281 0.09375,-0.09375 0.2109375,-0.234375 0.2109375,-0.421875 -0.00586,-0.3105469 -0.28125,-0.3515625 -0.375,-0.3515625 -0.2285156,0.00586 -0.5683594,0.1582031 -0.5625,0.65625 -0.011719,0.5039062 0.4394531,0.8613281 1.0488281,0.8613281 1.03125,0 2.0566406,-0.8964844 2.3203126,-2.015625 z m 0,0"
         style="fill:#000000;fill-opacity:1;fill-rule:nonzero;stroke:none" />
    </g>
    <path
       id="path11"
       d="M -187.08614,14.17332 -209.76357,2.83463 -187.08614,-8.50406 -164.4087,2.83463 Z"
       style="fill:#e67e22;fill-opacity:1;fill-rule:nonzero;stroke:#000000;stroke-width:0.3985;stroke-linecap:butt;stroke-linejoin:miter;stroke-miterlimit:10;stroke-dasharray:none;stroke-opacity:1"
       transform="matrix(1.3333333,0,0,-1.3333333,367.14,155.49067)" />
    <path
       id="path12"
       d="m -187.08612,-8.50392 22.67709,11.33853 m -28.34636,-8.50389 22.67709,11.33853 m -28.34637,-8.50389 22.6771,11.33853 M -204.09393,0 l 22.67709,11.33853 m -28.34637,-8.50392 22.67709,11.33855 m 2e-5,-22.67706 -22.67711,11.33854 m 28.34639,-8.50391 -22.67711,11.33855 m 28.34637,-8.50391 -22.67711,11.33855 M -170.07828,0 -192.75539,11.33856 M -164.413,2.83264 -187.0901,14.1712"
       style="fill:#3498db;fill-opacity:1;fill-rule:nonzero;stroke:#000000;stroke-width:0.79701;stroke-linecap:butt;stroke-linejoin:miter;stroke-miterlimit:10;stroke-dasharray:none;stroke-opacity:1"
       transform="matrix(1.3333333,0,0,-1.3333333,367.14,155.49067)" />
    <path
       id="path13"
       d="m -130.39342,-8.50392 -22.67709,11.33853 22.67711,11.33856 22.67709,-11.33854 z"
       style="fill:#2ecc71;fill-opacity:1;fill-rule:nonzero;stroke:#000000;stroke-width:0.3985;stroke-linecap:butt;stroke-linejoin:miter;stroke-miterlimit:10;stroke-dasharray:none;stroke-opacity:1"
       transform="matrix(1.3333333,0,0,-1.3333333,367.14,155.49067)" />
    <path
       id="path14"
       d="m -130.39343,-8.5039 22.67712,11.33854 m -28.34639,-8.50391 22.67711,11.33855 m -28.34639,-8.50391 22.67711,11.33855 M -147.40125,0 l 22.67711,11.33856 m -28.3424,-8.50592 22.67711,11.33856 m -0.004,-22.67512 -22.67709,11.33853 m 28.34637,-8.50389 -22.67709,11.33853 m 28.34636,-8.50389 -22.67709,11.33853 M -113.38559,0 -136.06268,11.33853 m 28.34637,-8.50392 -22.67711,11.33855"
       style="fill:#3498db;fill-opacity:1;fill-rule:nonzero;stroke:#000000;stroke-width:0.79701;stroke-linecap:butt;stroke-linejoin:miter;stroke-miterlimit:10;stroke-dasharray:none;stroke-opacity:1"
       transform="matrix(1.3333333,0,0,-1.3333333,367.14,155.49067)" />
    <path
       id="path15"
       d="m -158.73976,5.66924 -22.67711,11.33856 22.67711,11.33856 22.67711,-11.33856 z"
       style="fill:#2ecc71;fill-opacity:1;fill-rule:nonzero;stroke:#000000;stroke-width:0.3985;stroke-linecap:butt;stroke-linejoin:miter;stroke-miterlimit:10;stroke-dasharray:none;stroke-opacity:1"
       transform="matrix(1.3333333,0,0,-1.3333333,367.14,155.49067)" />
    <path
       id="path16"
       d="m -158.73976,5.66924 22.67711,11.33856 m -28.34639,-8.50392 22.67711,11.33856 m -28.34638,-8.50392 22.67711,11.33856 m -28.34639,-8.50394 22.67711,11.33856 m -28.34637,-8.50392 22.6771,11.33856 m -1e-5,-22.6771 -22.67711,11.33856 m 28.34637,-8.50392 -22.6771,11.33856 m 28.34639,-8.50392 -22.67711,11.33856 m 28.34637,-8.50394 -22.67711,11.33856 m 28.34639,-8.50392 -22.67711,11.33856"
       style="fill:#3498db;fill-opacity:1;fill-rule:nonzero;stroke:#000000;stroke-width:0.79701;stroke-linecap:butt;stroke-linejoin:miter;stroke-miterlimit:10;stroke-dasharray:none;stroke-opacity:1"
       transform="matrix(1.3333333,0,0,-1.3333333,367.14,155.49067)" />
    <path
       id="path17"
       d="M 2.6436406,-0.71004687 C 2.6377812,-1.0909062 2.2979375,-1.383875 1.9405156,-1.3897344 1.5245,-1.383875 1.2373906,-1.0616094 1.24325,-0.7041875 c 0.00586,0.42773438 0.3574219,0.70898438 0.6972656,0.69726563 0.3867188,0.01171875 0.703125,-0.3046875 0.703125,-0.703125 z m 3.9023438,0 C 6.540125,-1.0909062 6.2002812,-1.383875 5.8428594,-1.3897344 c -0.4160157,0.00586 -0.703125,0.328125 -0.6972657,0.6855469 0.00586,0.42773438 0.3574219,0.70898438 0.6972657,0.69726563 0.3867187,0.01171875 0.703125,-0.3046875 0.703125,-0.703125 z m 3.9023436,0 C 10.442469,-1.0909062 10.102625,-1.383875 9.7452031,-1.3897344 c -0.4160156,0.00586 -0.703125,0.328125 -0.6972656,0.6855469 0.00586,0.42773438 0.3574219,0.70898438 0.6972656,0.69726563 0.3867189,0.01171875 0.7031249,-0.3046875 0.7031249,-0.703125 z m 0,0"
       style="fill:#000000;fill-opacity:1;fill-rule:nonzero;stroke:none"
       aria-label="..."
       transform="matrix(1.3333333,-0.66666667,1.3333333,0.66666667,215,141.78267)" />
    <path
       id="path18"
       d="M 2.6431406,-0.71026562 C 2.6372812,-1.091125 2.2974375,-1.3840937 1.9400156,-1.3899531 1.524,-1.3840937 1.2368906,-1.0618281 1.24275,-0.70440625 c 0.00586,0.42773438 0.3574219,0.70898438 0.6972656,0.69726563 0.3867188,0.01171875 0.703125,-0.3046875 0.703125,-0.703125 z m 3.9023438,0 C 6.539625,-1.091125 6.1997812,-1.3840937 5.8423594,-1.3899531 c -0.4160157,0.00586 -0.703125,0.328125 -0.6972657,0.68554685 0.00586,0.42773438 0.3574219,0.70898438 0.6972657,0.69726563 0.3867187,0.01171875 0.703125,-0.3046875 0.703125,-0.703125 z m 3.9023436,0 C 10.441969,-1.091125 10.102125,-1.3840937 9.7447031,-1.3899531 c -0.4160156,0.00586 -0.703125,0.328125 -0.6972656,0.68554685 0.00586,0.42773438 0.3574219,0.70898438 0.6972656,0.69726563 0.3867189,0.01171875 0.7031249,-0.3046875 0.7031249,-0.703125 z m 0,0"
       style="fill:#000000;fill-opacity:1;fill-rule:nonzero;stroke:none"
       aria-label="..."
       transform="matrix(1.3333333,-0.66666667,1.3333333,0.66666667,180.98533,124.77467)" />
    <path
       id="path19"
       d="M 2.6431406,-0.709 C 2.6372812,-1.0898594 2.2974375,-1.3828281 1.9400156,-1.3886875 1.524,-1.3828281 1.2368906,-1.0605625 1.24275,-0.70314062 1.2486094,-0.27540625 1.6001719,0.00584375 1.9400156,-0.005875 2.3267344,0.00584375 2.6431406,-0.3105625 2.6431406,-0.709 Z m 3.9023438,0 c -0.00586,-0.3808594 -0.3457032,-0.6738281 -0.703125,-0.6796875 -0.4160157,0.00586 -0.703125,0.328125 -0.6972657,0.68554688 0.00586,0.42773437 0.3574219,0.70898437 0.6972657,0.69726562 0.3867187,0.01171875 0.703125,-0.3046875 0.703125,-0.703125 z m 3.9023436,0 c -0.0059,-0.3808594 -0.345703,-0.6738281 -0.7031249,-0.6796875 -0.4160156,0.00586 -0.703125,0.328125 -0.6972656,0.68554688 0.00586,0.42773437 0.3574219,0.70898437 0.6972656,0.69726562 C 10.131422,0.00584375 10.447828,-0.3105625 10.447828,-0.709 Z m 0,0"
       style="fill:#000000;fill-opacity:1;fill-rule:nonzero;stroke:none"
       aria-label="..."
       transform="matrix(1.3333333,-0.66666667,1.3333333,0.66666667,267.91333,168.23867)" />
    <path
       id="path20"
       d="M 2.6430742,-0.69579297 C 2.6489336,-1.0766523 2.3090898,-1.3930586 1.951668,-1.3871992 c -0.4160157,-0.00586 -0.703125,0.328125 -0.7089844,0.68554686 -0.00586,0.42773437 0.3574219,0.69726562 0.6972656,0.70898437 0.3867188,-0.01171875 0.703125,-0.3046875 0.703125,-0.703125 z m 3.9023438,0 C 6.5512773,-1.0766523 6.2114336,-1.3930586 5.8540117,-1.3871992 c -0.4160156,-0.00586 -0.703125,0.328125 -0.7089844,0.68554686 -0.00586,0.42773437 0.3574219,0.69726562 0.6972657,0.70898437 0.3867187,-0.01171875 0.703125,-0.3046875 0.703125,-0.703125 z m 3.902344,0 c 0.0059,-0.38085933 -0.333985,-0.69726563 -0.6914065,-0.69140623 -0.4160157,-0.00586 -0.703125,0.328125 -0.7089844,0.68554686 -0.00586,0.42773437 0.3574219,0.69726562 0.6972656,0.70898437 0.3867183,-0.01171875 0.7031253,-0.3046875 0.7031253,-0.703125 z m 0,0"
       style="fill:#000000;fill-opacity:1;fill-rule:nonzero;stroke:none"
       aria-label="..."
       transform="matrix(1.3333333,0.66666667,-1.3333333,0.66666667,269.83333,130.444)" />
    <path
       id="path21"
       d="M 2.6430742,-0.69657422 C 2.6489336,-1.0774336 2.3090898,-1.3938398 1.951668,-1.3879805 c -0.4160157,-0.00586 -0.703125,0.328125 -0.7089844,0.68554691 -0.00586,0.42773437 0.3574219,0.69726562 0.6972656,0.70898437 0.3867188,-0.01171875 0.703125,-0.3046875 0.703125,-0.703125 z m 3.9023438,0 C 6.5512773,-1.0774336 6.2114336,-1.3938398 5.8540117,-1.3879805 c -0.4160156,-0.00586 -0.703125,0.328125 -0.7089844,0.68554691 -0.00586,0.42773437 0.3574219,0.69726562 0.6972657,0.70898437 0.3867187,-0.01171875 0.703125,-0.3046875 0.703125,-0.703125 z m 3.902344,0 c 0.0059,-0.38085938 -0.333985,-0.69726558 -0.6914065,-0.69140628 -0.4160157,-0.00586 -0.703125,0.328125 -0.7089844,0.68554691 -0.00586,0.42773437 0.3574219,0.69726562 0.6972656,0.70898437 0.3867183,-0.01171875 0.7031253,-0.3046875 0.7031253,-0.703125 z m 0,0"
       style="fill:#000000;fill-opacity:1;fill-rule:nonzero;stroke:none"
       aria-label="..."
       transform="matrix(1.3333333,0.66666667,-1.3333333,0.66666667,171.56667,179.57733)" />
    <path
       id="path22"
       d="M 2.6430742,-0.69823047 C 2.6489336,-1.0790898 2.3090898,-1.3954961 1.951668,-1.3896367 c -0.4160157,-0.00586 -0.703125,0.328125 -0.7089844,0.68554686 -0.00586,0.42773437 0.3574219,0.69726562 0.6972656,0.70898437 0.3867188,-0.01171875 0.703125,-0.3046875 0.703125,-0.703125 z m 3.9008789,0.001465 C 6.5498125,-1.077625 6.2099688,-1.3940312 5.8525469,-1.3881719 c -0.4160156,-0.00586 -0.703125,0.328125 -0.7089844,0.6855469 -0.00586,0.42773438 0.3574219,0.69726563 0.6972656,0.70898438 0.3867188,-0.01171875 0.703125,-0.3046875 0.703125,-0.70312485 z m 3.9023439,0 c 0.0059,-0.38085933 -0.333984,-0.69726563 -0.6914064,-0.69140633 -0.4160156,-0.00586 -0.703125,0.328125 -0.7089843,0.68554695 -0.00586,0.42773438 0.3574218,0.69726563 0.6972656,0.70898438 0.3867191,-0.01171875 0.7031251,-0.3046875 0.7031251,-0.703125 z m 0,0"
       style="fill:#000000;fill-opacity:1;fill-rule:nonzero;stroke:none"
       aria-label="..."
       transform="matrix(1.3333333,0.66666667,-1.3333333,0.66666667,209.36133,160.68)" />
    <path
       id="path23"
       d="m -119.05484,-42.51955 -22.67711,11.33855 22.67709,11.33855 22.67713,-11.33855 z"
       style="fill:#2ecc71;fill-opacity:1;fill-rule:nonzero;stroke:#000000;stroke-width:0.3985;stroke-linecap:butt;stroke-linejoin:miter;stroke-miterlimit:10;stroke-dasharray:none;stroke-opacity:1"
       transform="matrix(1.3333333,0,0,-1.3333333,367.14,155.49067)" />
    <path
       id="path24"
       d="m -119.05487,-42.51953 22.67711,11.33855 m -28.34638,-8.50391 22.6771,11.33855 m -28.34638,-8.50391 22.67711,11.33855 m -28.34637,-8.50393 22.67709,11.33855 m -28.34239,-8.50589 22.67709,11.33855 m -0.004,-22.67511 -22.67711,11.33855 m 28.34639,-8.50391 -22.67711,11.33855 m 28.34637,-8.50391 -22.67711,11.33855 m 28.34639,-8.50393 -22.6771,11.33855 m 28.3424,-8.50589 -22.67712,11.33855"
       style="fill:#3498db;fill-opacity:1;fill-rule:nonzero;stroke:#000000;stroke-width:0.79701;stroke-linecap:butt;stroke-linejoin:miter;stroke-miterlimit:10;stroke-dasharray:none;stroke-opacity:1"
       transform="matrix(1.3333333,0,0,-1.3333333,367.14,155.49067)" />
    <path
       id="path25"
       d="m -90.70848,-28.34637 -22.67711,11.33854 22.67711,11.33856 22.67711,-11.33854 z"
       style="fill:#2ecc71;fill-opacity:1;fill-rule:nonzero;stroke:#000000;stroke-width:0.3985;stroke-linecap:butt;stroke-linejoin:miter;stroke-miterlimit:10;stroke-dasharray:none;stroke-opacity:1"
       transform="matrix(1.3333333,0,0,-1.3333333,367.14,155.49067)" />
    <path
       id="path26"
       d="m -90.70851,-28.34636 22.67711,11.33856 m -28.34638,-8.50392 22.67711,11.33856 m -28.34639,-8.50394 22.67711,11.33857 m -28.34637,-8.50392 22.6771,11.33856 m -28.3424,-8.50592 22.67711,11.33856 m -0.004,-22.67512 -22.67711,11.33854 m 28.34639,-8.5039 -22.67711,11.33854 m 28.34638,-8.50392 -22.67711,11.33855 m 28.34639,-8.50391 -22.67711,11.33855 m 28.34637,-8.50391 -22.67711,11.33855"
       style="fill:#3498db;fill-opacity:1;fill-rule:nonzero;stroke:#000000;stroke-width:0.79701;stroke-linecap:butt;stroke-linejoin:miter;stroke-miterlimit:10;stroke-dasharray:none;stroke-opacity:1"
       transform="matrix(1.3333333,0,0,-1.3333333,367.14,155.49067)" />
    <path
       id="path27"
       d="M -45.35428,-5.66927 -68.03139,5.66927 -45.35428,17.00781 -22.67717,5.66927 Z"
       style="fill:#2ecc71;fill-opacity:1;fill-rule:nonzero;stroke:#000000;stroke-width:0.3985;stroke-linecap:butt;stroke-linejoin:miter;stroke-miterlimit:10;stroke-dasharray:none;stroke-opacity:1"
       transform="matrix(1.3333333,0,0,-1.3333333,367.14,155.49067)" />
    <path
       id="path28"
       d="M -45.35431,-5.66925 -22.6772,5.66928 m -28.34637,-8.50389 22.6771,11.33853 M -56.69286,0 -34.01575,11.33856 M -62.36212,2.83464 -39.68501,14.17319 M -68.02742,5.6673 -45.35031,17.00584 m 5.6653,-19.84048 -22.67711,11.33853 M -34.01575,0 -56.69286,11.33853 m 28.34638,-8.50392 -22.67711,11.33855 m 28.34637,-8.50391 -22.6771,11.33855"
       style="fill:#3498db;fill-opacity:1;fill-rule:nonzero;stroke:#000000;stroke-width:0.79701;stroke-linecap:butt;stroke-linejoin:miter;stroke-miterlimit:10;stroke-dasharray:none;stroke-opacity:1"
       transform="matrix(1.3333333,0,0,-1.3333333,367.14,155.49067)" />
    <path
       id="path29"
       d="m -85.0392,14.17317 -22.67711,11.33855 22.67713,11.33855 22.67709,-11.33855 z"
       style="fill:#2ecc71;fill-opacity:1;fill-rule:nonzero;stroke:#000000;stroke-width:0.3985;stroke-linecap:butt;stroke-linejoin:miter;stroke-miterlimit:10;stroke-dasharray:none;stroke-opacity:1"
       transform="matrix(1.3333333,0,0,-1.3333333,367.14,155.49067)" />
    <path
       id="path30"
       d="m -85.03922,14.17319 22.67712,11.33854 m -28.3464,-8.5039 22.67711,11.33854 m -28.34637,-8.5039 22.67711,11.33855 m -28.34639,-8.50391 22.67711,11.33855 m -28.3424,-8.50591 22.67711,11.33855 m 5.66527,-19.8405 -22.67709,11.33854 m 28.34637,-8.5039 -22.67709,11.33854 m 28.34634,-8.5039 -22.67709,11.33855 m 28.34637,-8.50393 -22.67709,11.33855"
       style="fill:#3498db;fill-opacity:1;fill-rule:nonzero;stroke:#000000;stroke-width:0.79701;stroke-linecap:butt;stroke-linejoin:miter;stroke-miterlimit:10;stroke-dasharray:none;stroke-opacity:1"
       transform="matrix(1.3333333,0,0,-1.3333333,367.14,155.49067)" />
    <path
       id="path31"
       d="m -113.38556,28.34634 -22.67711,11.33856 22.67711,11.33855 22.67711,-11.33856 z"
       style="fill:#2ecc71;fill-opacity:1;fill-rule:nonzero;stroke:#000000;stroke-width:0.3985;stroke-linecap:butt;stroke-linejoin:miter;stroke-miterlimit:10;stroke-dasharray:none;stroke-opacity:1"
       transform="matrix(1.3333333,0,0,-1.3333333,367.14,155.49067)" />
    <path
       id="path32"
       d="m -113.38556,28.34634 22.67711,11.33855 m -28.34639,-8.50391 22.67712,11.33855 m -28.34638,-8.5039 22.6771,11.33854 m -28.34639,-8.50392 22.67711,11.33855 m -28.34637,-8.50391 22.67711,11.33855 m 5.66923,-19.84247 -22.67711,11.33856 m 28.34639,-8.50392 -22.67711,11.33856 m 28.34638,-8.50394 -22.67713,11.33857 m 28.34639,-8.50392 -22.6771,11.33856"
       style="fill:#3498db;fill-opacity:1;fill-rule:nonzero;stroke:#000000;stroke-width:0.79701;stroke-linecap:butt;stroke-linejoin:miter;stroke-miterlimit:10;stroke-dasharray:none;stroke-opacity:1"
       transform="matrix(1.3333333,0,0,-1.3333333,367.14,155.49067)" />
    <path
       id="path33"
       d="m -141.73193,48.18881 -68.0313,34.01566 68.0313,34.01565 68.03131,-34.01564 z"
       style="fill:#808080;fill-opacity:1;fill-rule:nonzero;stroke:#000000;stroke-width:0.3985;stroke-linecap:butt;stroke-linejoin:miter;stroke-miterlimit:10;stroke-dasharray:none;stroke-opacity:1"
       transform="matrix(1.3333333,0,0,-1.3333333,367.14,155.49067)" />
    <path
       id="path34"
       d="m -147.40118,51.02344 68.03129,34.01566 m -73.70058,-31.18102 68.03132,34.01565 m -73.70058,-31.18101 68.03129,34.01565 m -73.70057,-31.18101 68.03131,34.01565 m -73.70056,-31.18103 68.03129,34.01566 m -73.70057,-31.18102 68.03129,34.01566 m -73.70056,-31.18101 68.0313,34.01565 m -73.70058,-31.18102 68.03129,34.01566 m -73.70056,-31.18103 68.0313,34.01567 m -73.70058,-31.18103 68.0313,34.01566 m -73.70056,-31.18102 68.0313,34.01566 m -73.70058,-31.18102 68.03129,34.01566 m 5.66921,-65.19667 -68.0313,34.01564 m 73.70055,-31.181 -68.0313,34.01564 m 73.70058,-31.181 -68.0313,34.01564 m 73.70056,-31.181 -68.03129,34.01564 m 73.70058,-31.18102 -68.0313,34.01564 m 73.70058,-31.181 -68.03131,34.01565 m 73.70057,-31.181 -68.03129,34.01563 m 73.70057,-31.181 -68.03131,34.01565 m 73.70058,-31.18102 -68.03129,34.01566 m 73.70057,-31.18102 -68.03131,34.01564 m 73.70058,-31.181 -68.0313,34.01564 m 73.70058,-31.181 -68.03132,34.01565"
       style="fill:#3498db;fill-opacity:1;fill-rule:nonzero;stroke:#000000;stroke-width:0.79701;stroke-linecap:butt;stroke-linejoin:miter;stroke-miterlimit:10;stroke-dasharray:none;stroke-opacity:1"
       transform="matrix(1.3333333,0,0,-1.3333333,367.14,155.49067)" />
    <path
       id="path35"
       d="m -204.09396,85.52502 -6.64114,-3.32055 6.64114,-3.32057 6.64112,3.32057 z"
       style="fill:#e67e22;fill-opacity:1;fill-rule:nonzero;stroke:#000000;stroke-width:0.3985;stroke-linecap:butt;stroke-linejoin:miter;stroke-miterlimit:10;stroke-dasharray:none;stroke-opacity:1"
       transform="matrix(1.3333333,0,0,-1.3333333,367.14,155.49067)" />
    <path
       id="path36"
       d="m -210.16943,2.83505 -0.9717,79.38169"
       style="fill:none;stroke:#000000;stroke-width:0.3985;stroke-linecap:butt;stroke-linejoin:miter;stroke-miterlimit:10;stroke-dasharray:2.98883, 2.98883;stroke-dashoffset:0;stroke-opacity:1"
       transform="matrix(1.3333333,0,0,-1.3333333,367.14,155.49067)" />
    <path
       id="path37"
       d="m -187.0902,14.37473 -17.01028,71.36233"
       style="fill:none;stroke:#000000;stroke-width:0.3985;stroke-linecap:butt;stroke-linejoin:miter;stroke-miterlimit:10;stroke-dasharray:2.98883, 2.98883;stroke-dashoffset:0;stroke-opacity:1"
       transform="matrix(1.3333333,0,0,-1.3333333,367.14,155.49067)" />
    <path
       id="path38"
       d="m -187.0902,-8.70462 -17.01028,87.40103"
       style="fill:none;stroke:#000000;stroke-width:0.3985;stroke-linecap:butt;stroke-linejoin:miter;stroke-miterlimit:10;stroke-dasharray:2.98883, 2.98883;stroke-dashoffset:0;stroke-opacity:1"
       transform="matrix(1.3333333,0,0,-1.3333333,367.14,155.49067)" />
    <path
       id="path39"
       d="m -164.01096,2.83504 -33.04885,79.3817"
       style="fill:none;stroke:#000000;stroke-width:0.3985;stroke-linecap:butt;stroke-linejoin:miter;stroke-miterlimit:10;stroke-dasharray:2.98883, 2.98883;stroke-dashoffset:0;stroke-opacity:1"
       transform="matrix(1.3333333,0,0,-1.3333333,367.14,155.49067)" />
    <path
       id="path40"
       d="m -243.7789,76.5352 22.04448,11.02225"
       style="fill:none;stroke:#000000;stroke-width:0.79701;stroke-linecap:butt;stroke-linejoin:miter;stroke-miterlimit:10;stroke-dasharray:none;stroke-opacity:1"
       transform="matrix(1.3333333,0,0,-1.3333333,367.14,155.49067)" />
    <path
       id="path41"
       d="M -1.55415,2.0722 C -1.42464,1.29512 0,0.1295 0.38852,0 0,-0.1295 -1.42464,-1.29512 -1.55415,-2.0722"
       style="fill:none;stroke:#000000;stroke-width:0.6376;stroke-linecap:round;stroke-linejoin:round;stroke-miterlimit:10;stroke-dasharray:none;stroke-opacity:1"
       transform="matrix(1.19248,-0.59622667,-0.59622667,-1.19248,71.49408,38.747427)" />
    <path
       id="path42"
       d="m 6.7965977,-5.8597148 c -0.4511719,0.087891 -0.6328125,0.4453125 -0.6210938,0.7148437 -0.00586,0.3457031 0.2695313,0.4570313 0.4746094,0.4511719 0.4277344,0.00586 0.7265625,-0.375 0.7382812,-0.7617188 -0.011719,-0.5976562 -0.703125,-0.8671875 -1.3125,-0.8671875 -0.8671875,0 -1.3652343,0.8613282 -1.4882812,1.1367188 -0.3222656,-1.0957031 -1.2128906,-1.1425781 -1.4707031,-1.1425781 -1.4765625,0 -2.22656254,1.875 -2.23242192,2.1972656 0,0.046875 0.0527344,0.1230469 0.15234372,0.1289062 0.1113282,-0.00586 0.1289063,-0.082031 0.1699219,-0.1347656 0.4863281,-1.5996094 1.4472656,-1.9042969 1.8691406,-1.9042969 0.65625,0 0.7675782,0.6035157 0.7617188,0.9492188 0.00586,0.3105469 -0.064453,0.6386719 -0.2578125,1.3359375 l -0.4746094,1.9628906 c -0.2167969,0.86132813 -0.6445312,1.65234376 -1.3945312,1.65234376 -0.070312,0 -0.4277344,-0.005859 -0.73242192,-0.19335938 C 1.4880039,-0.43393359 1.599332,-0.86166797 1.599332,-1.0257305 c -0.00586,-0.2871093 -0.2050781,-0.4628906 -0.46875,-0.46875 -0.35156247,0 -0.73242184,0.2988282 -0.73828122,0.76171878 0.0117188,0.59765625 0.68554692,0.87304688 1.30078122,0.87890625 0.6914063,-0.0117188 1.1777344,-0.55664062 1.4824219,-1.14257812 0.2226563,0.85546875 0.9492188,1.13671875 1.4824219,1.13085937 1.453125,0 2.2324219,-1.86914058 2.2324219,-2.19726558 0.00586,-0.064453 -0.052734,-0.1230469 -0.1464844,-0.1230469 -0.1347656,0.00586 -0.140625,0.070312 -0.1816406,0.1933594 -0.3984375,1.26562496 -1.2246094,1.84570308 -1.8691407,1.85742183 -0.4980468,-0.005859 -0.7734375,-0.375 -0.7734375,-0.96093753 -0.00586,-0.3105468 0.041016,-0.5449218 0.2871094,-1.4941406 l 0.5039063,-1.9570312 c 0.2109375,-0.8671875 0.7089843,-1.4941407 1.3652343,-1.4941407 0.029297,0.00586 0.4277344,0.00586 0.7207032,0.1816407 z m 0,0"
       style="fill:#000000;fill-opacity:1;fill-rule:nonzero;stroke:none"
       aria-label="x"
       transform="matrix(1.3333333,-0.66666667,1.3333333,0.66666667,36.590667,40.890667)" />
    <path
       id="path43"
       d="m -243.7789,76.5352 22.04448,-11.02225"
       style="fill:none;stroke:#000000;stroke-width:0.79701;stroke-linecap:butt;stroke-linejoin:miter;stroke-miterlimit:10;stroke-dasharray:none;stroke-opacity:1"
       transform="matrix(1.3333333,0,0,-1.3333333,367.14,155.49067)" />
    <path
       id="path44"
       d="M -1.55415,2.0722 C -1.42464,1.29512 0,0.1295 0.38852,0 0,-0.1295 -1.42464,-1.29512 -1.55415,-2.0722"
       style="fill:none;stroke:#000000;stroke-width:0.6376;stroke-linecap:round;stroke-linejoin:round;stroke-miterlimit:10;stroke-dasharray:none;stroke-opacity:1"
       transform="matrix(1.19248,0.59622667,0.59622667,-1.19248,71.49408,68.14004)" />
    <path
       id="path45"
       d="m 3.7745508,1.6174727 c -0.3984375,0.5390625 -0.9375,1.0078125 -1.6347656,1.0136718 -0.1875,0 -0.8789063,-0.035156 -1.0839844,-0.6855468 0.041016,0.017578 0.1113281,0.017578 0.140625,0.023437 0.4277344,0.00586 0.7089844,-0.3691407 0.703125,-0.703125 0,-0.32812504 -0.2636719,-0.45117192 -0.4746094,-0.45117192 -0.234375,0 -0.72070312,0.16992188 -0.72656249,0.86718752 0.005859,0.7324219 0.60937499,1.2421875 1.42968749,1.2421875 1.4296875,0 2.8886719,-1.3066406 3.28125,-2.90625002 l 1.40625,-5.60156248 c 0.023437,-0.070312 0.035156,-0.1523438 0.035156,-0.2460938 0.00586,-0.2050781 -0.1640625,-0.3515625 -0.3808594,-0.3574218 -0.1230469,-0.00586 -0.421875,0.046875 -0.5449219,0.4863281 l -1.0546875,4.21875 c -0.082031,0.2695312 -0.082031,0.2929687 -0.1992187,0.4570312 -0.28125,0.39843753 -0.75,0.89062503 -1.4414063,0.87890628 -0.8085937,0.0117188 -0.8613281,-0.79101562 -0.8730469,-1.17773438 0.00586,-0.8144531 0.3808594,-1.9160156 0.7675782,-2.9355469 0.1640625,-0.421875 0.2578125,-0.6328125 0.2519531,-0.9199218 0.00586,-0.6035157 -0.4277344,-1.1542969 -1.1308594,-1.1542969 -1.32421874,0.011719 -1.85156249,2.0859375 -1.85156249,2.203125 0,0.046875 0.0527344,0.1230469 0.15234375,0.1289062 0.12890625,-0.011719 0.14648437,-0.064453 0.2109375,-0.2578125 0.33984374,-1.2070312 0.89062504,-1.78125 1.43554684,-1.7753906 0.140625,0 0.3867188,-0.011719 0.3867188,0.4570313 -0.011719,0.3867187 -0.1640625,0.796875 -0.3867188,1.3476562 -0.6914062,1.8632813 -0.6972656,2.3496094 -0.703125,2.6953125 0,1.35937501 0.9726563,1.67578126 1.6992188,1.67578126 0.421875,0 0.9316406,-0.12304688 1.4296875,-0.65625 l 0.017578,0.0175781 C 4.419082,0.34012891 4.2667383,0.91434766 3.7745508,1.6174727 Z m 0,0"
       style="fill:#000000;fill-opacity:1;fill-rule:nonzero;stroke:none"
       aria-label="y"
       transform="matrix(1.3333333,-0.66666667,1.3333333,0.66666667,35.142667,74.301333)" />
    <path
       id="path46"
       d="M 0,0 V 79.36638 L 47.61983,55.55777 V -23.8086 Z"
       style="fill:#2ecc71;fill-opacity:1;fill-rule:nonzero;stroke:#000000;stroke-width:0.3985;stroke-linecap:butt;stroke-linejoin:miter;stroke-miterlimit:10;stroke-dasharray:none;stroke-opacity:1"
       transform="matrix(1.3333333,0,0,-1.3333333,367.14,155.49067)" />
    <path
       id="path47"
       d="M 0,0 V 79.36638 L 3.9683,77.38234 V -1.98404 Z"
       style="fill:#e67e22;fill-opacity:1;fill-rule:nonzero;stroke:#000000;stroke-width:0.3985;stroke-linecap:butt;stroke-linejoin:miter;stroke-miterlimit:10;stroke-dasharray:none;stroke-opacity:1"
       transform="matrix(1.3333333,0,0,-1.3333333,367.14,155.49067)" />
    <path
       id="path48"
       d="M 0,0 47.61983,-23.8086 M 0,3.9683 47.61983,-19.84029 M 0,7.93663 47.61983,-15.87196 M 0,11.90494 47.61983,-11.90366 M 0,15.87326 47.61983,-7.93533 M 0,19.84157 47.61983,-3.96703 M 0,23.80989 47.61983,0.00128 M 0,27.7782 47.61983,3.96959 M 0,31.74652 47.61983,7.93791 M 0,35.71484 47.61983,11.90623 M 0,39.68317 47.61983,15.87456 M 0,43.65149 47.61983,19.84288 M 0,47.6198 47.61983,23.81119 M 0,51.58812 47.61983,27.77951 M 0,55.55643 47.61983,31.74782 M 0,59.52475 47.61983,35.71614 M 0,63.49306 47.61983,39.68445 M 0,67.46138 47.61983,43.65277 M 0,71.4297 47.61983,47.6211 M 0,75.39803 47.61983,51.58942 M 0,79.36635 47.61983,55.55774 M 0,0 V 79.36638 M 3.9683,-1.98404 V 77.38234 M 7.93663,-3.9681 v 79.36638 m 3.96831,-81.35041 v 79.36636 m 3.96832,-81.35042 v 79.36637 m 3.96831,-81.35042 v 79.36636 m 3.96832,-81.3504 v 79.36636 m 3.96831,-81.35042 v 79.36637 m 3.96832,-81.35042 v 79.36636 m 3.96832,-81.3504 v 79.36636 m 3.96833,-81.35041 v 79.36636 m 3.96832,-81.35042 v 79.36636 m 3.96831,-81.3504 v 79.36637"
       style="fill:none;stroke:#000000;stroke-width:0.79701;stroke-linecap:butt;stroke-linejoin:miter;stroke-miterlimit:10;stroke-dasharray:none;stroke-opacity:1"
       transform="matrix(1.3333333,0,0,-1.3333333,367.14,155.49067)" />
    <path
       id="path49"
       d="M 47.61983,-23.81122 V 55.55515 L 95.23965,79.36377 V -0.0026 Z"
       style="fill:#2ecc71;fill-opacity:1;fill-rule:nonzero;stroke:#000000;stroke-width:0.3985;stroke-linecap:butt;stroke-linejoin:miter;stroke-miterlimit:10;stroke-dasharray:none;stroke-opacity:1"
       transform="matrix(1.3333333,0,0,-1.3333333,367.14,155.49067)" />
    <path
       id="path50"
       d="M 47.61983,-23.81119 95.23965,-0.00256 M 47.61983,-19.84288 95.23965,3.96573 M 47.61983,-15.87456 95.23965,7.93405 M 47.61983,-11.90623 95.23965,11.90237 M 47.61983,-7.93791 95.23965,15.8707 M 47.61983,-3.96959 95.23965,19.83902 M 47.61983,-0.00128 95.23965,23.80733 M 47.61983,3.96703 95.23965,27.77565 M 47.61983,7.93533 95.23965,31.74396 M 47.61983,11.90366 95.23965,35.71228 M 47.61983,15.87196 95.23965,39.68059 M 47.61983,19.84029 95.23965,43.64891 M 47.61983,23.8086 95.23965,47.61722 M 47.61983,27.77692 95.23965,51.58554 M 47.61983,31.74524 95.23965,55.55386 M 47.61983,35.71355 95.23965,59.52217 M 47.61983,39.68187 95.23965,63.4905 M 47.61983,43.65018 95.23965,67.4588 M 47.61983,47.6185 95.23965,71.42712 M 47.61983,51.5868 95.23965,75.39543 M 47.61983,55.55513 95.23965,79.36375 M 51.58812,-21.82718 v 79.36636 m 3.96831,-77.3823 v 79.36637 m 3.96832,-77.38234 V 61.5073 m 3.96831,-77.38233 v 79.36638 m 3.96832,-77.38231 V 65.4754 M 71.4297,-11.90692 V 67.45944 M 75.39803,-9.92287 V 69.4435 M 79.36635,-7.93881 V 71.42755 M 83.33466,-5.95477 V 73.41159 M 87.30298,-3.97072 V 75.39565 M 91.27129,-1.98666 V 77.3797 m 3.96832,-77.38232 v 79.36636"
       style="fill:none;stroke:#000000;stroke-width:0.79701;stroke-linecap:butt;stroke-linejoin:miter;stroke-miterlimit:10;stroke-dasharray:none;stroke-opacity:1"
       transform="matrix(1.3333333,0,0,-1.3333333,367.14,155.49067)" />
    <path
       id="path51"
       d="M 47.61984,103.175 95.23967,79.36377 47.61983,55.55515 0,79.36638 Z"
       style="fill:#808080;fill-opacity:1;fill-rule:nonzero;stroke:#000000;stroke-width:0.3985;stroke-linecap:butt;stroke-linejoin:miter;stroke-miterlimit:10;stroke-dasharray:none;stroke-opacity:1"
       transform="matrix(1.3333333,0,0,-1.3333333,367.14,155.49067)" />
    <path
       id="path52"
       d="m 0,79.36638 3.9683,-1.98427 3.96833,1.98406 -3.96831,1.98426 z"
       style="fill:#e67e22;fill-opacity:1;fill-rule:nonzero;stroke:#000000;stroke-width:0.3985;stroke-linecap:butt;stroke-linejoin:miter;stroke-miterlimit:10;stroke-dasharray:none;stroke-opacity:1"
       transform="matrix(1.3333333,0,0,-1.3333333,367.14,155.49067)" />
    <path
       id="path53"
       d="M 43.65154,57.53941 91.27138,81.34804 M 39.68321,59.52367 87.30305,83.33229 M 35.71489,61.50793 83.33473,85.31656 M 31.74657,63.49222 79.36642,87.30083 M 27.77824,65.47649 75.3981,89.28511 M 23.80994,67.46075 71.42978,91.26938 M 19.84161,69.44502 67.46146,93.25365 M 15.8733,71.42929 63.49315,95.23792 M 11.90498,73.41356 59.52483,97.22218 M 7.93668,75.39783 55.55652,99.20645 M 3.96835,77.38208 51.5882,101.1907 M 2e-5,79.36635 47.61987,103.17497 M 51.5881,57.53917 3.96828,81.3504 M 55.55643,59.52324 7.9366,83.33446 M 59.52473,61.5073 11.9049,85.31851 M 63.49306,63.49133 15.87323,87.30255 M 67.46136,65.47539 19.84154,89.2866 M 71.4297,67.45944 23.80986,91.27066 M 75.39801,69.44348 27.77817,93.2547 M 79.36633,71.42754 31.74649,95.23875 M 83.33466,73.41159 35.71483,97.22281 M 87.30296,75.39563 39.68314,99.20686 M 91.27129,77.37968 43.65146,101.19092 M 95.2396,79.36374 47.61977,103.17497"
       style="fill:none;stroke:#000000;stroke-width:0.79701;stroke-linecap:butt;stroke-linejoin:miter;stroke-miterlimit:10;stroke-dasharray:none;stroke-opacity:1"
       transform="matrix(1.3333333,0,0,-1.3333333,367.14,155.49067)" />
    <path
       id="path54"
       d="M -11.90495,81.35086 3.33566,88.97078"
       style="fill:none;stroke:#000000;stroke-width:0.79701;stroke-linecap:butt;stroke-linejoin:miter;stroke-miterlimit:10;stroke-dasharray:none;stroke-opacity:1"
       transform="matrix(1.3333333,0,0,-1.3333333,367.14,155.49067)" />
    <path
       id="path55"
       d="M -1.55415,2.0722 C -1.42464,1.29512 0,0.1295 0.38852,0 0,-0.1295 -1.42464,-1.29512 -1.55415,-2.0722"
       style="fill:none;stroke:#000000;stroke-width:0.6376;stroke-linecap:round;stroke-linejoin:round;stroke-miterlimit:10;stroke-dasharray:none;stroke-opacity:1"
       transform="matrix(1.1925067,-0.59621333,-0.59621333,-1.1925067,371.58753,36.86296)" />
    <path
       id="path56"
       d="m 6.7967305,-5.8600977 c -0.4511719,0.087891 -0.6328125,0.4453125 -0.6210938,0.7148438 -0.00586,0.3457031 0.2695313,0.4570312 0.4746094,0.4511719 0.4277344,0.00586 0.7265625,-0.375 0.7382812,-0.7617188 -0.011719,-0.5976562 -0.703125,-0.8671875 -1.3125,-0.8671875 -0.8671875,0 -1.3652343,0.8613281 -1.4882812,1.1367188 -0.3222656,-1.0957032 -1.2128906,-1.1425782 -1.4707031,-1.1425782 -1.4765625,0 -2.22656253,1.875 -2.23242191,2.1972657 0,0.046875 0.0527344,0.1230468 0.15234371,0.1289062 0.1113282,-0.00586 0.1289063,-0.082031 0.1699219,-0.1347656 0.4863281,-1.5996094 1.4472656,-1.9042969 1.8691406,-1.9042969 0.65625,0 0.7675782,0.6035156 0.7617188,0.9492188 0.00586,0.3105468 -0.064453,0.6386718 -0.2578125,1.3359375 l -0.4746094,1.9628906 c -0.2167969,0.86132812 -0.6445312,1.65234374 -1.3945312,1.65234374 -0.070312,0 -0.4277344,-0.005859 -0.73242191,-0.19335937 0.50976561,-0.0996094 0.62109371,-0.52734375 0.62109371,-0.69140627 -0.00586,-0.2871094 -0.2050781,-0.4628906 -0.46875,-0.46875 -0.35156246,0 -0.73242183,0.2988281 -0.73828121,0.76171877 0.0117188,0.59765625 0.68554691,0.87304687 1.30078121,0.87890625 0.6914063,-0.0117188 1.1777344,-0.55664063 1.4824219,-1.14257813 0.2226563,0.85546875 0.9492188,1.13671875 1.4824219,1.13085938 1.453125,0 2.2324219,-1.86914067 2.2324219,-2.19726567 0.00586,-0.064453 -0.052734,-0.1230468 -0.1464844,-0.1230468 -0.1347656,0.00586 -0.140625,0.070312 -0.1816406,0.1933593 -0.3984375,1.26562504 -1.2246094,1.84570317 -1.8691407,1.85742192 -0.4980468,-0.005859 -0.7734375,-0.375 -0.7734375,-0.96093752 -0.00586,-0.3105469 0.041016,-0.5449219 0.2871094,-1.4941406 L 4.710793,-4.5475977 c 0.2109375,-0.8671875 0.7089843,-1.4941406 1.3652343,-1.4941406 0.029297,0.00586 0.4277344,0.00586 0.7207032,0.1816406 z m 0,0"
       style="fill:#000000;fill-opacity:1;fill-rule:nonzero;stroke:none"
       aria-label="x"
       transform="matrix(1.3333333,-0.66666667,1.3333333,0.66666667,341.216,36.738667)" />
    <path
       id="path57"
       d="M -11.90495,81.35086 7.304,71.74583"
       style="fill:none;stroke:#000000;stroke-width:0.79701;stroke-linecap:butt;stroke-linejoin:miter;stroke-miterlimit:10;stroke-dasharray:none;stroke-opacity:1"
       transform="matrix(1.3333333,0,0,-1.3333333,367.14,155.49067)" />
    <path
       id="path58"
       d="M -1.55415,2.0722 C -1.42464,1.29512 0,0.1295 0.38852,0 0,-0.1295 -1.42464,-1.29512 -1.55415,-2.0722"
       style="fill:none;stroke:#000000;stroke-width:0.6376;stroke-linecap:round;stroke-linejoin:round;stroke-miterlimit:10;stroke-dasharray:none;stroke-opacity:1"
       transform="matrix(1.1925067,0.59626667,0.59626667,-1.1925067,376.87865,59.829533)" />
    <path
       id="path59"
       d="m 3.7725859,1.6185859 c -0.3984375,0.5390625 -0.9375,1.0078125 -1.6347656,1.0136719 -0.1875,0 -0.8789062,-0.035156 -1.0839844,-0.6855469 0.041016,0.017578 0.1113282,0.017578 0.140625,0.023437 0.4277344,0.00586 0.7089844,-0.3691406 0.703125,-0.703125 0,-0.32812496 -0.2636718,-0.45117184 -0.4746093,-0.45117184 -0.234375,0 -0.72070316,0.16992188 -0.72656254,0.86718754 0.005859,0.7324218 0.60937504,1.2421875 1.42968754,1.2421875 1.4296875,0 2.8886718,-1.3066407 3.28125,-2.90625004 l 1.40625,-5.60156246 c 0.023437,-0.070312 0.035156,-0.1523438 0.035156,-0.2460938 0.00586,-0.2050781 -0.1640625,-0.3515625 -0.3808594,-0.3574219 -0.1230468,-0.00586 -0.421875,0.046875 -0.5449218,0.4863282 l -1.0546875,4.21875 c -0.082031,0.2695312 -0.082031,0.2929687 -0.1992188,0.4570312 -0.28125,0.39843751 -0.75,0.89062501 -1.4414062,0.87890626 -0.8085938,0.0117188 -0.8613282,-0.79101562 -0.8730469,-1.17773436 0.00586,-0.8144531 0.3808594,-1.9160156 0.7675781,-2.9355469 0.1640625,-0.421875 0.2578125,-0.6328125 0.2519531,-0.9199219 0.00586,-0.6035156 -0.4277343,-1.1542968 -1.1308593,-1.1542968 -1.32421879,0.011719 -1.85156254,2.0859375 -1.85156254,2.203125 0,0.046875 0.0527344,0.1230468 0.15234375,0.1289062 0.12890625,-0.011719 0.14648438,-0.064453 0.2109375,-0.2578125 0.33984379,-1.2070312 0.89062499,-1.78125 1.43554689,-1.7753906 0.140625,0 0.3867187,-0.011719 0.3867187,0.4570312 -0.011719,0.3867188 -0.1640625,0.796875 -0.3867187,1.3476563 -0.6914063,1.8632812 -0.6972656,2.3496094 -0.703125,2.6953125 0,1.35937499 0.9726562,1.67578124 1.6992187,1.67578124 0.421875,0 0.9316407,-0.12304688 1.4296875,-0.65625 l 0.017578,0.0175781 C 4.4171172,0.34124219 4.2647734,0.91546094 3.7725859,1.6185859 Z m 0,0"
       style="fill:#000000;fill-opacity:1;fill-rule:nonzero;stroke:none"
       aria-label="y"
       transform="matrix(1.3333333,-0.66666667,1.3333333,0.66666667,342.41333,66.936)" />
    <path
       id="path60"
       d="M 103.1763,0.70735 V 79.36638"
       style="fill:none;stroke:#000000;stroke-width:0.79701;stroke-linecap:butt;stroke-linejoin:miter;stroke-miterlimit:10;stroke-dasharray:none;stroke-opacity:1"
       transform="matrix(1.3333333,0,0,-1.3333333,367.14,155.49067)" />
    <path
       id="path61"
       d="M -1.55415,2.0722 C -1.42464,1.29512 0,0.1295 0.38852,0 0,-0.1295 -1.42464,-1.29512 -1.55415,-2.0722"
       style="fill:none;stroke:#000000;stroke-width:0.6376;stroke-linecap:round;stroke-linejoin:round;stroke-miterlimit:10;stroke-dasharray:none;stroke-opacity:1"
       transform="matrix(0,1.3333333,1.3333333,0,504.7084,154.54753)" />
    <g
       id="g61"
       aria-label="(q&#10;x&#10;·q&#10;y&#10;)"
       transform="matrix(1.3333333,0,0,1.3333333,509.66533,107.02667)">
      <path
         id="path62"
         d="m 4.6631094,3.4809766 c 0,-0.035156 0,-0.070312 -0.2460938,-0.3046875 -1.4296875,-1.453125 -2.2382812,-3.82031254 -2.2382812,-6.75 0,-2.7773438 0.6796875,-5.1796875 2.34375,-6.8671871 0.140625,-0.128907 0.140625,-0.164063 0.140625,-0.199219 0,-0.09375 -0.070312,-0.117188 -0.1289063,-0.117188 -0.1875,0 -1.359375,1.0312503 -2.0625,2.4375003 -0.7382812,1.453125 -1.0664062,2.9882813 -1.0664062,4.7460938 0,1.2773437 0.1992187,2.98828121 0.9492187,4.52343746 0.84375,1.72265624 2.015625,2.64843754 2.1796875,2.64843754 0.058594,0 0.1289063,-0.023437 0.1289063,-0.1171875 z m 0,0"
         style="fill:#000000;fill-opacity:1;fill-rule:nonzero;stroke:none" />
      <path
         id="path63"
         d="m 11.791039,-6.1869922 c 0,-0.070312 -0.05859,-0.1289062 -0.128906,-0.1289062 -0.117188,0 -0.679688,0.5273437 -0.949219,1.0195312 -0.257812,-0.6445312 -0.703125,-1.03125 -1.3242187,-1.03125 -1.6171875,0 -3.3632812,2.0976563 -3.3632812,4.21875 0,1.41796876 0.8320312,2.25000001 1.8046875,2.25000001 0.7617187,0 1.3945312,-0.57421875 1.6875,-0.90234375 l 0.023437,0.0117188 L 8.9902578,1.4067578 8.8613516,1.9223828 C 8.7324453,2.3559766 8.5215078,2.3559766 7.8418203,2.3676953 c -0.1523437,0 -0.3046875,0 -0.3046875,0.2695313 0,0.1054687 0.09375,0.140625 0.1875,0.140625 0.2109375,0 0.46875,-0.023437 0.6679688,-0.023437 h 1.4648437 c 0.2109377,0 0.4570317,0.023437 0.6679687,0.023437 0.08203,0 0.257813,0 0.257813,-0.2695313 0,-0.140625 -0.117188,-0.140625 -0.328125,-0.140625 -0.6796879,0 -0.7148442,-0.1054687 -0.7148442,-0.2109375 0,-0.082031 0.011719,-0.09375 0.058594,-0.28125 z m -2.0273437,4.4765625 c -0.070312,0.2460938 -0.070312,0.28125 -0.2695312,0.5507813 -0.3164063,0.39843746 -0.9492188,1.01953121 -1.6171875,1.01953121 -0.5976563,0 -0.9257813,-0.5390625 -0.9257813,-1.38281251 0,-0.7851562 0.4453125,-2.390625 0.7148438,-3 0.4921875,-0.9960937 1.171875,-1.5117187 1.7226562,-1.5117187 0.9492187,0 1.1367187,1.171875 1.1367187,1.2890625 0,0.011719 -0.04687,0.1992187 -0.05859,0.2226562 z m 0,0"
         style="fill:#000000;fill-opacity:1;fill-rule:nonzero;stroke:none" />
      <path
         id="path64"
         d="m 15.019555,-0.86082031 c 0.05859,-0.25781249 0.292968,-1.17187499 0.984375,-1.17187499 0.04687,0 0.292968,0 0.503906,0.1289062 -0.28125,0.046875 -0.480469,0.3046875 -0.480469,0.5390625 0,0.1640625 0.105469,0.3515625 0.375,0.3515625 0.222656,0 0.539063,-0.1875 0.539063,-0.5859375 0,-0.515625 -0.585938,-0.65625 -0.925782,-0.65625 -0.574218,0 -0.925781,0.5273438 -1.042968,0.7617188 -0.257813,-0.65625 -0.785157,-0.7617188 -1.078125,-0.7617188 -1.042969,0 -1.605469,1.28906254 -1.605469,1.53515629 0,0.10546875 0.105469,0.10546875 0.117187,0.10546875 0.08203,0 0.117188,-0.0234375 0.128907,-0.1171875 0.339843,-1.05468754 0.996093,-1.30078124 1.335937,-1.30078124 0.1875,0 0.539063,0.09375 0.539063,0.6679687 0,0.3046875 -0.164063,0.97265629 -0.539063,2.3671875 -0.152344,0.6210938 -0.503906,1.0429688 -0.949219,1.0429688 -0.05859,0 -0.28125,0 -0.492187,-0.1289063 0.246094,-0.058594 0.46875,-0.2695312 0.46875,-0.5390625 0,-0.2695312 -0.222656,-0.3515625 -0.375,-0.3515625 -0.292969,0 -0.539063,0.2578125 -0.539063,0.5742188 0,0.4570312 0.492188,0.65625 0.9375,0.65625 0.65625,0 1.007813,-0.6914063 1.042969,-0.75 0.117188,0.3632812 0.480469,0.75 1.078125,0.75 1.019531,0 1.59375,-1.27734376 1.59375,-1.53515626 0,-0.09375 -0.09375,-0.09375 -0.128906,-0.09375 -0.08203,0 -0.105469,0.0351563 -0.128906,0.10546875 -0.328125,1.06640621 -0.996094,1.31250001 -1.324219,1.31250001 -0.386719,0 -0.539063,-0.328125 -0.539063,-0.65625 0,-0.2226563 0.05859,-0.44531251 0.164063,-0.87890626 z m 0,0"
         style="fill:#000000;fill-opacity:1;fill-rule:nonzero;stroke:none" />
      <path
         id="path65"
         d="m 23.826195,-3.5854297 c 0,-0.4101562 -0.339843,-0.7617187 -0.761718,-0.7617187 -0.410157,0 -0.761719,0.3515625 -0.761719,0.7617187 0,0.4101563 0.351562,0.7617188 0.761719,0.7617188 0.421875,0 0.761718,-0.3515625 0.761718,-0.7617188 z m 0,0"
         style="fill:#000000;fill-opacity:1;fill-rule:nonzero;stroke:none" />
      <path
         id="path66"
         d="m 34.572289,-6.1869922 c 0,-0.070312 -0.05859,-0.1289062 -0.128906,-0.1289062 -0.117188,0 -0.679688,0.5273437 -0.949219,1.0195312 -0.257812,-0.6445312 -0.703125,-1.03125 -1.324219,-1.03125 -1.617187,0 -3.363281,2.0976563 -3.363281,4.21875 0,1.41796876 0.832031,2.25000001 1.804688,2.25000001 0.761718,0 1.394531,-0.57421875 1.6875,-0.90234375 l 0.02344,0.0117188 -0.550781,2.15625004 -0.128906,0.515625 c -0.128907,0.4335938 -0.339844,0.4335938 -1.019532,0.4453125 -0.152343,0 -0.304687,0 -0.304687,0.2695313 0,0.1054687 0.09375,0.140625 0.1875,0.140625 0.210937,0 0.46875,-0.023437 0.667969,-0.023437 h 1.464843 c 0.210938,0 0.457032,0.023437 0.667969,0.023437 0.08203,0 0.257813,0 0.257813,-0.2695313 0,-0.140625 -0.117188,-0.140625 -0.328125,-0.140625 -0.679688,0 -0.714844,-0.1054687 -0.714844,-0.2109375 0,-0.082031 0.01172,-0.09375 0.05859,-0.28125 z m -2.027344,4.4765625 c -0.07031,0.2460938 -0.07031,0.28125 -0.269531,0.5507813 -0.316406,0.39843746 -0.949219,1.01953121 -1.617187,1.01953121 -0.597657,0 -0.925782,-0.5390625 -0.925782,-1.38281251 0,-0.7851562 0.445313,-2.390625 0.714844,-3 0.492188,-0.9960937 1.171875,-1.5117187 1.722656,-1.5117187 0.949219,0 1.136719,1.171875 1.136719,1.2890625 0,0.011719 -0.04687,0.1992187 -0.05859,0.2226562 z m 0,0"
         style="fill:#000000;fill-opacity:1;fill-rule:nonzero;stroke:none" />
      <path
         id="path67"
         d="m 39.312523,-1.6459766 c 0.04687,-0.140625 0.04687,-0.1523437 0.04687,-0.2226562 0,-0.1875 -0.140625,-0.2695313 -0.292968,-0.2695313 -0.105469,0 -0.257813,0.058594 -0.351563,0.1992188 -0.02344,0.058594 -0.09375,0.3632812 -0.140625,0.5390625 -0.07031,0.2578125 -0.140625,0.52734374 -0.199219,0.79687499 L 37.929711,1.1899609 c -0.03516,0.1523438 -0.46875,0.8554688 -1.125,0.8554688 -0.503906,0 -0.621094,-0.4453125 -0.621094,-0.8085938 0,-0.45703121 0.175781,-1.07812496 0.515625,-1.95703121 0.152344,-0.41015629 0.199219,-0.51562499 0.199219,-0.71484379 0,-0.4453125 -0.328125,-0.8203125 -0.820313,-0.8203125 -0.949218,0 -1.3125,1.45312504 -1.3125,1.53515629 0,0.10546875 0.09375,0.10546875 0.117188,0.10546875 0.09375,0 0.105469,-0.0234375 0.152344,-0.1875 0.269531,-0.93750004 0.667968,-1.23046874 1.007812,-1.23046874 0.08203,0 0.257813,0 0.257813,0.3164062 0,0.2460938 -0.105469,0.515625 -0.175782,0.703125 -0.398437,1.05468754 -0.574218,1.61718754 -0.574218,2.0859375 0,0.890625 0.621093,1.1835938 1.21875,1.1835938 0.386718,0 0.726562,-0.1640625 0.996093,-0.4453125 -0.128906,0.515625 -0.246093,1.0078125 -0.644531,1.5351562 -0.257812,0.3398438 -0.632812,0.6328125 -1.089844,0.6328125 -0.140625,0 -0.597656,-0.035156 -0.761718,-0.421875 0.164062,0 0.292968,0 0.433593,-0.1171875 0.09375,-0.09375 0.199219,-0.2226562 0.199219,-0.4101562 0,-0.3164063 -0.269531,-0.3515625 -0.375,-0.3515625 -0.222656,0 -0.550781,0.1640625 -0.550781,0.6445312 0,0.5039063 0.433594,0.8671875 1.054687,0.8671875 1.019532,0 2.050782,-0.9023437 2.332032,-2.0273437 z m 0,0"
         style="fill:#000000;fill-opacity:1;fill-rule:nonzero;stroke:none" />
      <path
         id="path68"
         d="m 44.254906,-3.5737109 c 0,-1.0898438 -0.140625,-2.8710938 -0.949218,-4.5351563 -0.84375,-1.7109375 -2.015625,-2.6484378 -2.179688,-2.6484378 -0.05859,0 -0.128906,0.02344 -0.128906,0.117188 0,0.03516 0,0.07031 0.246094,0.316406 1.441406,1.4414063 2.238281,3.8085938 2.238281,6.7382813 0,2.77734376 -0.667969,5.1796875 -2.332031,6.8671875 -0.152344,0.1289063 -0.152344,0.1640625 -0.152344,0.1992188 0,0.09375 0.07031,0.1171875 0.128906,0.1171875 0.1875,0 1.371094,-1.03125 2.074219,-2.4375 0.726562,-1.46484379 1.054687,-3.0117188 1.054687,-4.734375 z m 0,0"
         style="fill:#000000;fill-opacity:1;fill-rule:nonzero;stroke:none" />
    </g>
    <path
       id="path69"
       d="m -96.37766,-45.35419 c 50.1104,-23.82197 96.04615,-20.14723 140.53847,10.51615"
       style="fill:none;stroke:#000000;stroke-width:1.98427;stroke-linecap:butt;stroke-linejoin:miter;stroke-miterlimit:10;stroke-dasharray:none;stroke-opacity:1"
       transform="matrix(1.3333333,0,0,-1.3333333,367.14,155.49067)" />
    <path
       id="path70"
       d="M -2.6227,3.49693 C -2.40414,2.18558 0,0.21855 0.65567,0 0,-0.21855 -2.40414,-2.18558 -2.6227,-3.49693"
       style="fill:none;stroke:#000000;stroke-width:1.5874;stroke-linecap:round;stroke-linejoin:round;stroke-miterlimit:10;stroke-dasharray:none;stroke-opacity:1"
       transform="matrix(1.0978133,-0.75657333,-0.75657333,-1.0978133,426.02108,201.94139)" />
    <path
       id="path71"
       d="m 6.0581016,-4.8763594 c 1.4179687,-0.328125 2.5195312,-1.2304687 2.5195312,-2.34375 0,-1.3828125 -1.6171875,-2.578125 -3.6914062,-2.578125 H 0.59716406 v 0.421875 h 0.29296875 c 1.03124999,0 1.07812499,0.140625 1.07812499,0.6679688 v 7.6171875 c 0,0.52734373 -0.046875,0.67968748 -1.07812499,0.67968748 H 0.59716406 v 0.41015625 c 0.33984375,-0.0234375 1.51171874,-0.0234375 1.92187504,-0.0234375 0.421875,0 1.6171875,0 1.9453125,0.0234375 V -0.41151562 H 4.1713828 c -1.03125,0 -1.078125,-0.15234375 -1.078125,-0.67968748 v -3.6679688 h 1.6640625 c 0.5625,0 1.0898438,0.1523438 1.4765625,0.5507813 0.4921875,0.5507812 0.4921875,0.8554687 0.4921875,1.8398437 0,1.1367188 0,1.51171878 0.6328125,2.12109378 0.2109375,0.22265625 0.8203125,0.55078125 1.6171875,0.55078125 1.1249997,0 1.3124997,-1.25390625 1.3124997,-1.54687503 0,-0.09375 0,-0.2226562 -0.164062,-0.2226562 -0.1406252,0 -0.1406252,0.082031 -0.1523439,0.234375 -0.070312,0.85546873 -0.4921875,1.24218748 -0.9492188,1.24218748 -0.65625,0 -0.8085937,-0.66796875 -0.9140625,-1.42968748 -0.023437,-0.1054688 -0.1054687,-0.7148438 -0.1523437,-1.078125 -0.09375,-0.7148438 -0.1523438,-1.171875 -0.5859375,-1.6171875 -0.1523438,-0.1640625 -0.5273438,-0.5507813 -1.3125,-0.7617188 z M 4.6987266,-5.0521406 H 3.0932578 v -3.7617188 c 0,-0.328125 0,-0.4921875 0.3046875,-0.5507812 0.1289063,-0.011719 0.5625,-0.011719 0.84375,-0.011719 1.1601563,0 3,0 3,2.15625 0,1.2539063 -0.6679687,2.1679688 -2.5429687,2.167969 z m 11.1357424,1.7226562 c 0.316406,0 0.339843,0 0.339843,-0.2695312 0,-1.453125 -0.773437,-2.8007813 -2.507812,-2.8007813 -1.640625,0 -2.894531,1.4765625 -2.894531,3.2578125 0,1.8984375 1.464843,3.28125003 3.046875,3.28125003 1.710937,0 2.355468,-1.54687503 2.355468,-1.85156253 0,-0.082031 -0.07031,-0.140625 -0.152343,-0.140625 -0.117188,0 -0.152344,0.070312 -0.175782,0.140625 -0.375,1.20703128 -1.335937,1.53515628 -1.933593,1.53515628 -0.609375,0 -2.050782,-0.3984375 -2.050782,-2.88281248 v -0.2695313 z m -3.960938,-0.2695312 c 0.117188,-2.25 1.371094,-2.5078125 1.78125,-2.5078125 1.535156,0 1.617188,2.015625 1.628906,2.5078125 z m 9.407227,-2.4726563 c 0,-0.2578125 0,-0.328125 -0.140625,-0.328125 -0.117188,0 -0.386719,0.3164063 -0.480469,0.4453125 -0.445312,-0.3632812 -0.890625,-0.4453125 -1.347656,-0.4453125 -1.746094,0 -2.261719,0.9492188 -2.261719,1.734375 0,0.1640625 0,0.6679688 0.550781,1.1601563 0.457032,0.4101562 0.949219,0.5039062 1.605469,0.6328125 0.785156,0.1640625 0.972656,0.1992187 1.335938,0.4921875 0.257812,0.2109375 0.445312,0.5273437 0.445312,0.9257812 0,0.62109378 -0.363281,1.31250003 -1.628906,1.31250003 -0.9375,0 -1.628906,-0.55078125 -1.945313,-1.98046873 -0.05859,-0.2578125 -0.05859,-0.2695313 -0.07031,-0.2929688 -0.03516,-0.058594 -0.08203,-0.058594 -0.128906,-0.058594 -0.164063,0 -0.164063,0.082031 -0.164063,0.3398437 v 1.94531253 c 0,0.2578125 0,0.328125 0.152344,0.328125 0.07031,0 0.08203,-0.0117188 0.328125,-0.31640625 0.07031,-0.09375 0.07031,-0.12890625 0.28125,-0.3515625 0.550781,0.66796875 1.324219,0.66796875 1.570312,0.66796875 1.5,0 2.25,-0.83203125 2.25,-1.95703123 0,-0.7851563 -0.480468,-1.2421875 -0.609375,-1.3710938 -0.515625,-0.4453125 -0.902343,-0.5273437 -1.839843,-0.703125 -0.433594,-0.082031 -1.488282,-0.28125 -1.488282,-1.1484375 0,-0.4453125 0.304688,-1.1015625 1.59375,-1.1015625 1.570313,0 1.652344,1.3359375 1.6875,1.78125 0.01172,0.1171875 0.105469,0.1171875 0.152344,0.1171875 0.152344,0 0.152344,-0.070312 0.152344,-0.328125 z m 7.227539,2.5898438 c 0,-1.3359375 0,-1.7460938 -0.328125,-2.203125 -0.421875,-0.5507813 -1.089844,-0.6445313 -1.582031,-0.6445313 -1.230469,0 -1.804688,0.9375 -2.003907,1.3828125 h -0.02344 v -5.0039062 l -1.992188,0.1523437 v 0.421875 c 0.972657,0 1.089844,0.09375 1.089844,0.796875 v 7.5117188 c 0,0.65624998 -0.152344,0.65624998 -1.089844,0.65624998 v 0.41015625 c 0.375,-0.0234375 1.148438,-0.0234375 1.546875,-0.0234375 0.421875,0 1.195313,0 1.570313,0.0234375 v -0.41015625 c -0.925781,0 -1.089844,0 -1.089844,-0.65624998 v -2.6601563 c 0,-1.5117187 0.984375,-2.3085937 1.875,-2.3085937 0.890625,0 1.089844,0.7265625 1.089844,1.6054687 v 3.3632813 c 0,0.65624998 -0.152344,0.65624998 -1.089844,0.65624998 v 0.41015625 c 0.375,-0.0234375 1.148438,-0.0234375 1.546875,-0.0234375 0.421875,0 1.195313,0 1.570313,0.0234375 v -0.41015625 c -0.714844,0 -1.078125,0 -1.089844,-0.43359375 z m 6.949219,-0.3515625 c 0,-0.7734375 0,-1.3476563 -0.621094,-1.9101563 -0.503906,-0.4570312 -1.148438,-0.65625 -1.78125,-0.65625 -1.183594,0 -2.085938,0.7734375 -2.085938,1.7109375 0,0.4101563 0.28125,0.609375 0.609375,0.609375 0.339844,0 0.585938,-0.234375 0.585938,-0.5859375 0,-0.5859375 -0.515625,-0.5859375 -0.726563,-0.5859375 0.328125,-0.5976562 1.007813,-0.8554687 1.582032,-0.8554687 0.667968,0 1.511718,0.5390625 1.511718,1.828125 v 0.5742187 c -2.882812,0.046875 -3.972656,1.2539063 -3.972656,2.3554688 0,1.13671873 1.3125,1.48828123 2.191406,1.48828123 0.949219,0 1.59375,-0.57421875 1.863282,-1.25390623 0.05859,0.66796873 0.503906,1.18359373 1.125,1.18359373 0.292968,0 1.125,-0.19921875 1.125,-1.34765623 v -0.796875 h -0.316407 v 0.796875 c 0,0.82031248 -0.339843,0.93749998 -0.539062,0.93749998 -0.550781,0 -0.550781,-0.76171878 -0.550781,-0.98437498 z m -0.925782,1.8046875 c 0,1.40624998 -1.042968,1.88671873 -1.664062,1.88671873 -0.703125,0 -1.289063,-0.515625 -1.289063,-1.20703123 0,-1.8984375 2.4375,-2.0625 2.953125,-2.0976563 z m 5.932618,4.3945312 c -0.914063,0 -1.089844,0 -1.089844,-0.6445312 v -2.49609377 c 0.257812,0.36328125 0.84375,0.9140625 1.757812,0.9140625 1.652344,0 3.105469,-1.38281253 3.105469,-3.23437503 0,-1.828125 -1.347656,-3.234375 -2.917969,-3.234375 -1.253906,0 -1.933593,0.9023438 -1.980468,0.9609375 v -0.9609375 l -1.992188,0.1640625 v 0.4101563 c 1.007813,0 1.089844,0.1054687 1.089844,0.7382812 v 6.7382813 c 0,0.6445312 -0.152344,0.6445312 -1.089844,0.6445312 v 0.4101563 c 0.375,-0.023437 1.148438,-0.023437 1.546875,-0.023437 0.421875,0 1.195313,0 1.570313,0.023437 z m -1.089844,-6.9375 c 0,-0.28125 0,-0.2929687 0.152344,-0.5273437 0.433593,-0.6445313 1.136718,-0.9140625 1.6875,-0.9140625 1.066406,0 1.933593,1.3125 1.933593,2.9179687 0,1.6992188 -0.972656,2.95312503 -2.085937,2.95312503 -0.445313,0 -0.855469,-0.1875 -1.148438,-0.45703125 -0.328125,-0.33984375 -0.539062,-0.62109378 -0.539062,-1.01953128 z m 11.264648,1.2421875 c 0.316406,0 0.339844,0 0.339844,-0.2695312 0,-1.453125 -0.773438,-2.8007813 -2.507813,-2.8007813 -1.640625,0 -2.894531,1.4765625 -2.894531,3.2578125 0,1.8984375 1.464844,3.28125003 3.046875,3.28125003 1.710938,0 2.355469,-1.54687503 2.355469,-1.85156253 0,-0.082031 -0.07031,-0.140625 -0.152344,-0.140625 -0.117187,0 -0.152344,0.070312 -0.175781,0.140625 -0.375,1.20703128 -1.335938,1.53515628 -1.933594,1.53515628 -0.609375,0 -2.050781,-0.3984375 -2.050781,-2.88281248 v -0.2695313 z m -3.960937,-0.2695312 c 0.117187,-2.25 1.371093,-2.5078125 1.78125,-2.5078125 1.535156,0 1.617187,2.015625 1.628906,2.5078125 z m 0,0"
       style="fill:#000000;fill-opacity:1;fill-rule:nonzero;stroke:none"
       aria-label="Reshape"
       transform="matrix(1.3333333,0,0,1.3333333,287.528,220.744)" />
  </g>
</svg>
