<?xml version="1.0" encoding="UTF-8" standalone="no"?>
<svg
   xmlns:dc="http://purl.org/dc/elements/1.1/"
   xmlns:cc="http://creativecommons.org/ns#"
   xmlns:rdf="http://www.w3.org/1999/02/22-rdf-syntax-ns#"
   xmlns:svg="http://www.w3.org/2000/svg"
   xmlns="http://www.w3.org/2000/svg"
   xmlns:sodipodi="http://sodipodi.sourceforge.net/DTD/sodipodi-0.dtd"
   xmlns:inkscape="http://www.inkscape.org/namespaces/inkscape"
   height="300px"
   width="300px"
   fill="#0283B3"
   version="1.1"
   x="0px"
   y="0px"
   viewBox="0 0 161.492 162.732"
   enable-background="new 0 0 161.492 162.732"
   xml:space="preserve"
   id="svg4835"
   sodipodi:docname="ai.svg"
   inkscape:version="0.92.3 (2405546, 2018-03-11)"><metadata
     id="metadata4841"><rdf:RDF><cc:Work
         rdf:about=""><dc:format>image/svg+xml</dc:format><dc:type
           rdf:resource="http://purl.org/dc/dcmitype/StillImage" /><dc:title></dc:title></cc:Work></rdf:RDF></metadata><defs
     id="defs4839"><inkscape:perspective
       sodipodi:type="inkscape:persp3d"
       inkscape:vp_x="0 : 81.366 : 1"
       inkscape:vp_y="0 : 1000 : 0"
       inkscape:vp_z="161.492 : 81.366 : 1"
       inkscape:persp3d-origin="80.746 : 54.244 : 1"
       id="perspective13033" /></defs><sodipodi:namedview
     pagecolor="#ffffff"
     bordercolor="#666666"
     borderopacity="1"
     objecttolerance="10"
     gridtolerance="10"
     guidetolerance="10"
     inkscape:pageopacity="0"
     inkscape:pageshadow="2"
     inkscape:window-width="1920"
     inkscape:window-height="1056"
     id="namedview4837"
     showgrid="false"
     inkscape:zoom="1.4142136"
     inkscape:cx="366.11492"
     inkscape:cy="214.60451"
     inkscape:window-x="0"
     inkscape:window-y="0"
     inkscape:window-maximized="1"
     inkscape:current-layer="svg4835" /><path
     d="m 136.60298,53.398221 c -3.8097,0 -7.25645,1.436247 -9.95464,3.7309 L 96.65921,30.240373 c 2.065426,-2.736391 3.33811,-6.100768 3.33811,-9.7863 0,-9.010274 -7.33286,-16.339553 -16.339552,-16.339553 -9.006692,0 -16.339552,7.328085 -16.339552,16.339553 0,1.627269 0.312798,3.173354 0.759313,4.657357 L 40.676603,37.742766 c -2.552533,-4.24069 -7.153778,-7.106022 -12.461804,-7.106022 -8.056357,0 -14.588119,6.531762 -14.588119,14.588119 0,8.056357 6.531762,14.588119 14.588119,14.588119 2.718483,0 5.231617,-0.793936 7.410463,-2.085723 l 8.527943,11.079282 -8.586443,11.158078 c -2.164519,-1.275073 -4.657358,-2.054682 -7.351963,-2.054682 -8.056357,0 -14.588119,6.531762 -14.588119,14.588119 0,8.056354 6.531762,14.588114 14.588119,14.588114 5.343843,0 9.967771,-2.90353 12.509559,-7.19078 l 27.384212,12.62417 c -0.465617,1.51624 -0.787967,3.09217 -0.787967,4.75645 0,9.01147 7.331667,16.33955 16.339553,16.33955 9.006692,0 16.339554,-7.32808 16.339554,-16.33955 0,-3.6521 -1.245227,-6.98902 -3.27603,-9.71109 l 30.00226,-26.905458 c 2.68864,2.25406 6.10435,3.665236 9.87943,3.665236 8.52914,0 15.46324,-6.938877 15.46324,-15.463238 0,-8.524362 -6.93769,-15.463239 -15.46563,-15.463239 z M 83.657768,100.93646 c -3.118435,0 -6.005257,0.92287 -8.481381,2.44269 L 58.128859,81.226559 69.234406,76.374597 c 2.73281,5.218485 8.138735,8.826415 14.424556,8.826415 8.408554,0 15.274608,-6.408791 16.160468,-14.588119 h 21.4982 c 0.32235,2.804444 1.36462,5.371303 2.98592,7.51672 L 94.32874,105.00403 c -2.871301,-2.50119 -6.573548,-4.06757 -10.670972,-4.06757 z m -15.706792,-27.821177 -12.022453,5.251914 -7.357932,-9.56185 7.357932,-9.557074 12.052301,5.26624 c -0.388014,1.392073 -0.661414,2.831903 -0.661414,4.346947 0,1.480421 0.261461,2.890403 0.631566,4.253823 z m 2.870107,-4.253823 c 0,-7.078563 5.759317,-12.836685 12.836685,-12.836685 7.077369,0 12.836685,5.758122 12.836685,12.836685 0,7.078562 -5.758122,12.837878 -12.836685,12.837878 -7.078562,0 -12.836685,-5.76051 -12.836685,-12.837878 z M 121.31644,67.11122 H 99.81824 C 98.93237,58.930698 92.066322,52.523101 83.657768,52.523101 c -6.250004,0 -11.629664,3.569725 -14.377994,8.740455 L 58.128859,56.390104 75.116693,34.316307 c 2.489256,1.542504 5.402343,2.476124 8.542269,2.476124 4.061607,0 7.735201,-1.544891 10.596951,-4.007882 l 29.981967,26.887554 c -1.58787,2.13109 -2.60626,4.669296 -2.92144,7.439117 z M 83.657768,7.616194 c 7.078563,0 12.836685,5.758122 12.836685,12.836685 0,7.078562 -5.758122,12.836685 -12.836685,12.836685 -7.078562,0 -12.836685,-5.758123 -12.836685,-12.836685 0,-7.077369 5.758123,-12.836685 12.836685,-12.836685 z M 69.437367,28.33851 c 0.790354,1.419533 1.737107,2.729228 2.895179,3.847901 l -17.510757,22.756701 -12.697,-5.550386 c 0.397565,-1.329991 0.676935,-2.707738 0.676935,-4.167863 0,-1.497136 -0.290115,-2.916669 -0.711558,-4.277701 z M 38.427318,55.623628 c 0.906161,-0.889446 1.654728,-1.918578 2.304204,-3.019343 l 11.889931,5.198189 -6.259555,8.13396 z m 7.93458,16.055407 6.259555,8.135154 L 40.68496,85.03148 C 40.034291,83.943848 39.277366,82.931431 38.377174,82.057505 Z M 42.11882,96.682634 c 0.403534,-1.333573 0.684097,-2.722065 0.684097,-4.185772 0,-1.494748 -0.290114,-2.907117 -0.707975,-4.260986 L 54.822983,82.672357 72.387465,105.4983 c -1.155684,1.10793 -2.107213,2.39733 -2.899955,3.80015 z m 41.538948,33.430056 c -7.078562,0 -12.836685,-5.75812 -12.836685,-12.83787 0,-7.07857 5.759317,-12.83669 12.836685,-12.83669 7.077369,0 12.836685,5.75812 12.836685,12.83669 0,7.07975 -5.758122,12.83787 -12.836685,12.83787 z"
     id="path4833"
     inkscape:connector-curvature="0"
     sodipodi:nodetypes="sccsssccssscccsssccsssccsssscccsccccscccccscsssssccscccscccsssssccccscccccccccccccscccccsssss"
     style="stroke-width:1.19388807" /><text
     xml:space="preserve"
     style="font-style:normal;font-variant:normal;font-weight:normal;font-stretch:normal;font-size:104.14848328px;line-height:1.25;font-family:warnschrift;-inkscape-font-specification:warnschrift;letter-spacing:0px;word-spacing:0px;fill:#0283b3;fill-opacity:1;stroke:none;stroke-width:0.54244"
     x="83.254204"
     y="158.19942"
     id="text13029"><tspan
       sodipodi:role="line"
       id="tspan13027"
       x="83.254204"
       y="158.19942"
       style="font-style:normal;font-variant:normal;font-weight:normal;font-stretch:normal;font-size:28.93013382px;font-family:Calibri;-inkscape-font-specification:Calibri;text-align:center;text-anchor:middle;fill:#0283b3;fill-opacity:1;stroke-width:0.54244">CNN</tspan></text>
<circle
     style="opacity:1;fill:#d2e5cc;fill-opacity:1;fill-rule:nonzero;stroke:#f8f5f5;stroke-width:0.2569769;stroke-linecap:round;stroke-linejoin:round;stroke-miterlimit:5.5;stroke-dasharray:0.38544609, 1.15633827000000000;stroke-dashoffset:0;stroke-opacity:1;paint-order:markers stroke fill"
     id="path13031"
     cx="136.82857"
     cy="68.8041"
     r="11.386768" /></svg>