<?xml version="1.0" encoding="UTF-8" standalone="no"?>
<svg
   xmlns:dc="http://purl.org/dc/elements/1.1/"
   xmlns:cc="http://creativecommons.org/ns#"
   xmlns:rdf="http://www.w3.org/1999/02/22-rdf-syntax-ns#"
   xmlns:svg="http://www.w3.org/2000/svg"
   xmlns="http://www.w3.org/2000/svg"
   xmlns:sodipodi="http://sodipodi.sourceforge.net/DTD/sodipodi-0.dtd"
   xmlns:inkscape="http://www.inkscape.org/namespaces/inkscape"
   id="svg126"
   overflow="hidden"
   viewBox="0 0 233.7 45.93"
   height="45.93"
   width="233.7"
   version="1.1"
   sodipodi:docname="emat-UA.svg"
   inkscape:version="0.92.3 (2405546, 2018-03-11)">
  <sodipodi:namedview
     pagecolor="#ffffff"
     bordercolor="#666666"
     borderopacity="1"
     objecttolerance="10"
     gridtolerance="10"
     guidetolerance="10"
     inkscape:pageopacity="0"
     inkscape:pageshadow="2"
     inkscape:window-width="1767"
     inkscape:window-height="808"
     id="namedview68"
     showgrid="false"
     inkscape:zoom="2.8669234"
     inkscape:cx="37.221509"
     inkscape:cy="59.718338"
     inkscape:window-x="0"
     inkscape:window-y="22"
     inkscape:window-maximized="0"
     inkscape:current-layer="svg126" />
  <metadata
     id="metadata130">
    <rdf:RDF>
      <cc:Work
         rdf:about="">
        <dc:format>image/svg+xml</dc:format>
        <dc:type
           rdf:resource="http://purl.org/dc/dcmitype/StillImage" />
        <dc:title />
      </cc:Work>
    </rdf:RDF>
  </metadata>
  <defs
     id="defs2">
    <clipPath
       clipPathUnits="userSpaceOnUse"
       id="clipPath953">
      <path
         d="M 0,38.297 H 182.32 V 0 H 0 Z"
         id="path951" />
    </clipPath>
  </defs>
  <path
     style="fill:#0084e8;fill-opacity:1"
     id="path4"
     fill="#FFFFFF"
     d=" M 91.52 0.78 L 53.22 0.78 C 52.05 0.78 51.11 1.72 51.11 2.89 L 51.11 41.19 C 51.11 42.35 52.05 43.3 53.22 43.3 L 91.52 43.3 C 92.68 43.3 93.63 42.35 93.63 41.19 L 93.63 2.89 C 93.63 1.73 92.68 0.78 91.52 0.78 Z M 83.25 24.47 C 83.09 29.61 79.91 33.44 75.6 34.8 L 75.53 34.83 C 75.47 34.85 75.41 34.86 75.4 34.85 L 75.35 34.89 L 75.3 34.89 C 75.06 34.96 74.81 35.03 74.55 35.09 C 74.26 35.13 73.97 35.17 73.68 35.2 C 72.94 35.3 72.18 35.35 71.4 35.35 C 70.34 35.35 69.27 35.26 68.25 35.08 C 68.05 35.05 67.85 35 67.64 34.96 C 67.56 34.94 67.46 34.93 67.34 34.9 C 67.25 34.87 67.16 34.85 67.08 34.83 C 62.38 33.55 58.96 29.46 58.97 23.98 L 58.97 9.16 L 61.26 9.16 L 61.26 9.16 L 65.3 9.16 L 65.3 23.66 C 65.31 28.49 68.36 31.47 72.64 31.49 C 76.86 31.48 79.86 28.5 79.88 23.69 C 79.07 23.41 78.24 23.09 77.34 22.66 C 69.49 18.89 66.6 21 66.6 21 C 66.6 21 70.4 13.77 78.5 17.16 C 78.99 17.36 79.45 17.55 79.9 17.73 L 79.9 9.16 L 83.27 9.16 L 83.27 18.95 C 88.25 20.55 90.04 19.95 90.95 18.34 C 91.71 21.31 89.1 25.12 83.25 24.47 Z" />
  <g
     style="fill:#0084e8;fill-opacity:1"
     id="g118">
    <path
       style="fill:#0084e8;fill-opacity:1"
       id="path6"
       fill="#FFFFFF"
       d=" M 101.58 10.87 L 101.58 0.53 L 108.08 0.53 L 107.96 1.97 L 103.46 1.97 L 103.46 4.85 L 107.48 4.85 L 107.48 6.29 L 103.46 6.29 L 103.46 9.44 L 107.98 9.44 L 108.11 10.88 L 101.58 10.88 Z" />
    <path
       style="fill:#0084e8;fill-opacity:1"
       id="path8"
       fill="#FFFFFF"
       d=" M 109.7 0.11 L 111.5 0 L 111.5 8.91 C 111.5 9.41 111.53 9.53 111.94 9.53 C 112.06 9.53 112.23 9.53 112.52 9.5 L 112.56 10.77 C 112.23 10.88 111.61 10.95 111.07 10.95 C 110.14 10.95 109.69 10.56 109.69 9.55 L 109.69 0.11 Z" />
    <path
       style="fill:#0084e8;fill-opacity:1"
       id="path10"
       fill="#FFFFFF"
       d=" M 116.67 10.98 C 114.62 10.98 113.42 10.02 113.42 7.63 C 113.42 5.19 114.71 3.63 116.97 3.63 C 118.89 3.63 119.56 4.89 119.56 6.88 C 119.56 7.08 119.56 7.32 119.52 7.69 L 115.22 7.69 C 115.22 8.96 115.73 9.59 116.93 9.59 C 117.68 9.59 118.56 9.29 119.27 8.92 L 119.71 10.13 C 118.88 10.67 117.78 10.98 116.67 10.98 Z M 117.93 6.6 C 117.93 5.47 117.52 4.96 116.78 4.96 C 115.95 4.96 115.4 5.5 115.28 6.6 L 117.93 6.6 Z" />
    <path
       style="fill:#0084e8;fill-opacity:1"
       id="path12"
       fill="#FFFFFF"
       d=" M 125.88 5.25 C 125.4 5.1 124.91 5.04 124.53 5.04 C 123.25 5.04 122.7 5.79 122.7 7.45 C 122.7 8.83 123.18 9.52 124.33 9.52 C 124.91 9.52 125.49 9.37 126.03 9.11 L 126.49 10.39 C 125.8 10.76 124.96 10.98 123.95 10.98 C 121.94 10.98 120.86 10.03 120.86 7.59 C 120.86 4.92 122.33 3.62 124.36 3.62 C 125.07 3.62 125.69 3.7 126.25 3.94 L 125.88 5.25 Z" />
    <path
       style="fill:#0084e8;fill-opacity:1"
       id="path14"
       fill="#FFFFFF"
       d=" M 129.72 11 C 128.46 11 127.83 10.47 127.83 9.18 L 127.83 5.1 L 126.93 5.06 L 127.04 3.83 L 127.88 3.8 L 128.09 1.6 L 129.68 1.46 L 129.68 3.8 L 131.78 3.8 L 131.68 5.12 L 129.68 5.12 L 129.68 9.09 C 129.68 9.48 129.81 9.62 130.21 9.62 C 130.6 9.62 131.18 9.51 131.62 9.32 L 131.93 10.53 C 131.4 10.82 130.65 11 129.72 11 Z" />
    <path
       style="fill:#0084e8;fill-opacity:1"
       id="path16"
       fill="#FFFFFF"
       d=" M 137.16 5.31 C 136.93 5.29 136.77 5.28 136.59 5.28 C 135.96 5.28 135.78 5.41 134.97 6.7 L 134.97 10.87 L 133.16 10.87 L 133.16 3.78 L 134.6 3.66 C 134.71 3.89 134.78 4.59 134.81 5.25 C 135.47 3.9 135.85 3.66 136.51 3.66 C 136.82 3.66 137.14 3.7 137.36 3.77 L 137.16 5.31 Z" />
    <path
       style="fill:#0084e8;fill-opacity:1"
       id="path18"
       fill="#FFFFFF"
       d=" M 141.27 11 C 139.05 11 137.97 9.84 137.97 7.45 C 137.97 5.17 139.34 3.62 141.55 3.62 C 143.76 3.62 144.85 4.71 144.85 7.16 C 144.86 9.39 143.61 11 141.27 11 Z M 141.45 4.94 C 140.46 4.94 139.86 5.75 139.86 7.29 C 139.86 9.09 140.4 9.69 141.39 9.69 C 142.47 9.69 142.97 8.83 142.97 7.24 C 142.97 5.71 142.53 4.94 141.45 4.94 Z" />
    <path
       style="fill:#0084e8;fill-opacity:1"
       id="path20"
       fill="#FFFFFF"
       d=" M 150.69 10.87 L 150.69 5.96 C 150.69 5.46 150.54 5.15 149.98 5.15 C 149.52 5.15 148.87 5.48 148.26 6.07 L 148.26 10.88 L 146.43 10.88 L 146.43 3.78 L 148.02 3.67 C 148.11 3.88 148.17 4.33 148.2 4.77 C 149.04 4 149.92 3.61 150.7 3.61 C 152.03 3.61 152.53 4.26 152.53 5.61 L 152.53 10.87 L 150.69 10.87 Z" />
    <path
       style="fill:#0084e8;fill-opacity:1"
       id="path22"
       fill="#FFFFFF"
       d=" M 166.41 10.87 L 166.37 3.57 C 166.33 3.82 166.27 4.05 166.15 4.32 L 163.36 10.66 L 162.1 10.66 L 159.43 4.54 C 159.3 4.24 159.23 4.04 159.2 3.78 L 159.1 10.87 L 157.47 10.87 L 157.65 0.52 L 159.48 0.52 L 162.86 8.18 L 166.34 0.52 L 168.16 0.52 L 168.28 10.87 L 166.41 10.87 Z" />
    <path
       style="fill:#0084e8;fill-opacity:1"
       id="path24"
       fill="#FFFFFF"
       d=" M 170.16 2.4 L 170.16 0.78 L 172 0.78 L 172 2.4 L 170.16 2.4 Z M 170.21 10.87 L 170.21 3.81 L 172.01 3.7 L 172.01 10.87 L 170.21 10.87 Z" />
    <path
       style="fill:#0084e8;fill-opacity:1"
       id="path26"
       fill="#FFFFFF"
       d=" M 178.58 5.25 C 178.1 5.1 177.61 5.04 177.23 5.04 C 175.95 5.04 175.4 5.79 175.4 7.45 C 175.4 8.83 175.88 9.52 177.03 9.52 C 177.61 9.52 178.19 9.37 178.73 9.11 L 179.19 10.39 C 178.5 10.76 177.66 10.98 176.65 10.98 C 174.64 10.98 173.56 10.03 173.56 7.59 C 173.56 4.92 175.03 3.62 177.06 3.62 C 177.77 3.62 178.39 3.7 178.95 3.94 L 178.58 5.25 Z" />
    <path
       style="fill:#0084e8;fill-opacity:1"
       id="path28"
       fill="#FFFFFF"
       d=" M 184.4 5.31 C 184.17 5.29 184.01 5.28 183.83 5.28 C 183.2 5.28 183.02 5.41 182.21 6.7 L 182.21 10.87 L 180.4 10.87 L 180.4 3.78 L 181.84 3.66 C 181.95 3.89 182.02 4.59 182.05 5.25 C 182.71 3.9 183.09 3.66 183.75 3.66 C 184.06 3.66 184.38 3.7 184.6 3.77 L 184.4 5.31 Z" />
    <path
       style="fill:#0084e8;fill-opacity:1"
       id="path30"
       fill="#FFFFFF"
       d=" M 188.5 11 C 186.28 11 185.2 9.84 185.2 7.45 C 185.2 5.17 186.57 3.62 188.79 3.62 C 191.01 3.62 192.09 4.71 192.09 7.16 C 192.09 9.39 190.84 11 188.5 11 Z M 188.68 4.94 C 187.69 4.94 187.09 5.75 187.09 7.29 C 187.09 9.09 187.63 9.69 188.62 9.69 C 189.7 9.69 190.2 8.83 190.2 7.24 C 190.2 5.71 189.76 4.94 188.68 4.94 Z" />
    <path
       style="fill:#0084e8;fill-opacity:1"
       id="path32"
       fill="#FFFFFF"
       d=" M 195.76 11 C 194.8 11 193.92 10.8 193.12 10.43 L 193.46 9.08 C 194.24 9.44 195.2 9.67 195.89 9.67 C 196.67 9.67 196.99 9.37 196.99 9 C 196.99 8.63 196.85 8.38 195.88 8.1 C 193.81 7.5 193.42 6.9 193.42 5.87 C 193.42 4.52 194.53 3.62 196.17 3.62 C 197.05 3.62 197.84 3.77 198.61 4.14 L 198.16 5.46 C 197.65 5.21 196.76 5.02 196.19 5.02 C 195.44 5.02 195.19 5.32 195.19 5.7 C 195.19 6.15 195.36 6.33 196.52 6.67 C 198.27 7.21 198.69 7.78 198.69 8.77 C 198.7 10.02 197.77 11 195.76 11 Z" />
    <path
       style="fill:#0084e8;fill-opacity:1"
       id="path34"
       fill="#FFFFFF"
       d=" M 204.84 5.25 C 204.36 5.1 203.87 5.04 203.49 5.04 C 202.21 5.04 201.66 5.79 201.66 7.45 C 201.66 8.83 202.14 9.52 203.29 9.52 C 203.87 9.52 204.45 9.37 204.99 9.11 L 205.45 10.39 C 204.76 10.76 203.92 10.98 202.91 10.98 C 200.9 10.98 199.82 10.03 199.82 7.59 C 199.82 4.92 201.29 3.62 203.32 3.62 C 204.03 3.62 204.65 3.7 205.21 3.94 L 204.84 5.25 Z" />
    <path
       style="fill:#0084e8;fill-opacity:1"
       id="path36"
       fill="#FFFFFF"
       d=" M 209.55 11 C 207.33 11 206.25 9.84 206.25 7.45 C 206.25 5.17 207.62 3.62 209.84 3.62 C 212.06 3.62 213.14 4.71 213.14 7.16 C 213.13 9.39 211.89 11 209.55 11 Z M 209.73 4.94 C 208.74 4.94 208.14 5.75 208.14 7.29 C 208.14 9.09 208.68 9.69 209.67 9.69 C 210.75 9.69 211.25 8.83 211.25 7.24 C 211.24 5.71 210.81 4.94 209.73 4.94 Z" />
    <path
       style="fill:#0084e8;fill-opacity:1"
       id="path38"
       fill="#FFFFFF"
       d=" M 217.74 10.92 C 217.35 10.92 216.82 10.88 216.56 10.76 L 216.56 13.84 L 214.72 13.94 L 214.72 3.78 L 216.31 3.66 C 216.4 3.89 216.46 4.21 216.49 4.54 C 217.11 3.94 217.86 3.6 218.7 3.6 C 220.28 3.6 221.29 4.64 221.29 7.09 C 221.28 9.18 220.29 10.92 217.74 10.92 Z M 217.99 5.08 C 217.44 5.08 216.94 5.38 216.55 5.74 L 216.55 9.43 C 216.85 9.57 217.3 9.67 217.71 9.67 C 218.82 9.67 219.42 8.89 219.42 7.23 C 219.42 5.88 218.94 5.08 217.99 5.08 Z" />
    <path
       style="fill:#0084e8;fill-opacity:1"
       id="path40"
       fill="#FFFFFF"
       d=" M 225.33 8.22 C 225.44 8.52 225.46 8.78 225.46 8.97 C 225.46 8.78 225.49 8.51 225.59 8.22 L 227.21 3.8 L 228.88 3.8 L 225.46 12.41 C 225.01 13.55 224.28 14.01 222.57 14.1 L 222.28 12.78 C 223.48 12.64 223.82 12.42 224.05 11.88 L 224.49 10.82 L 221.95 3.8 L 223.79 3.8 L 225.33 8.22 Z" />
    <path
       style="fill:#0084e8;fill-opacity:1"
       id="path42"
       fill="#FFFFFF"
       d=" M 105.2 17.52 C 104.89 17.44 104.42 17.37 104.15 17.37 C 103.64 17.37 103.5 17.54 103.5 18.11 L 103.5 19.8 L 105 19.8 L 104.9 21.12 L 103.5 21.12 L 103.5 26.88 L 101.69 26.88 L 101.69 21.12 L 100.77 21.06 L 100.88 19.83 L 101.69 19.8 L 101.69 18.33 C 101.69 16.73 102.32 15.99 103.85 15.99 C 104.46 15.99 105.06 16.11 105.47 16.24 L 105.2 17.52 Z" />
    <path
       style="fill:#0084e8;fill-opacity:1"
       id="path44"
       fill="#FFFFFF"
       d=" M 109.19 27 C 106.97 27 105.89 25.84 105.89 23.45 C 105.89 21.17 107.26 19.62 109.47 19.62 C 111.69 19.62 112.77 20.71 112.77 23.16 C 112.77 25.39 111.53 27 109.19 27 Z M 109.37 20.94 C 108.38 20.94 107.78 21.75 107.78 23.29 C 107.78 25.09 108.32 25.69 109.31 25.69 C 110.39 25.69 110.89 24.83 110.89 23.24 C 110.88 21.71 110.45 20.94 109.37 20.94 Z" />
    <path
       style="fill:#0084e8;fill-opacity:1"
       id="path46"
       fill="#FFFFFF"
       d=" M 118.35 21.31 C 118.12 21.29 117.96 21.28 117.78 21.28 C 117.15 21.28 116.97 21.41 116.16 22.7 L 116.16 26.87 L 114.35 26.87 L 114.35 19.78 L 115.79 19.66 C 115.9 19.89 115.97 20.59 116 21.25 C 116.66 19.9 117.04 19.66 117.7 19.66 C 118.01 19.66 118.33 19.7 118.55 19.77 L 118.35 21.31 Z" />
    <path
       style="fill:#0084e8;fill-opacity:1"
       id="path48"
       fill="#FFFFFF"
       d=" M 131.5 26.87 L 131.46 19.57 C 131.42 19.82 131.36 20.05 131.24 20.32 L 128.45 26.66 L 127.19 26.66 L 124.52 20.54 C 124.39 20.24 124.32 20.04 124.29 19.78 L 124.19 26.87 L 122.56 26.87 L 122.74 16.52 L 124.57 16.52 L 127.95 24.18 L 131.43 16.52 L 133.25 16.52 L 133.37 26.87 L 131.5 26.87 Z" />
    <path
       style="fill:#0084e8;fill-opacity:1"
       id="path50"
       fill="#FFFFFF"
       d=" M 139.02 26.07 C 138.42 26.73 137.7 27 136.8 27 C 135.72 27 134.82 26.25 134.82 24.88 C 134.82 23.86 135.42 23.17 138.95 22.9 C 138.96 22.54 138.96 22.23 138.96 21.86 C 138.96 21.22 138.74 20.99 138.2 20.99 C 137.44 20.99 136.55 21.31 135.85 21.82 L 135.13 20.71 C 136.13 19.98 137.19 19.58 138.64 19.58 C 140.32 19.58 140.79 20.45 140.79 21.94 L 140.79 24.88 C 140.79 25.41 140.85 25.48 141.81 25.6 L 141.51 26.93 C 141.24 26.95 140.99 26.95 140.78 26.95 C 139.73 26.95 139.19 26.63 139.02 26.07 Z M 136.56 24.8 C 136.56 25.37 136.89 25.73 137.48 25.73 C 138.07 25.73 138.63 25.38 138.94 25.04 L 138.94 23.9 C 137.03 24.04 136.56 24.26 136.56 24.8 Z" />
    <path
       style="fill:#0084e8;fill-opacity:1"
       id="path52"
       fill="#FFFFFF"
       d=" M 144.98 27 C 143.72 27 143.09 26.47 143.09 25.18 L 143.09 21.1 L 142.19 21.06 L 142.3 19.83 L 143.14 19.8 L 143.35 17.6 L 144.94 17.46 L 144.94 19.8 L 147.04 19.8 L 146.94 21.12 L 144.94 21.12 L 144.94 25.09 C 144.94 25.48 145.07 25.62 145.47 25.62 C 145.86 25.62 146.44 25.51 146.88 25.32 L 147.19 26.53 C 146.66 26.82 145.91 27 144.98 27 Z" />
    <path
       style="fill:#0084e8;fill-opacity:1"
       id="path54"
       fill="#FFFFFF"
       d=" M 151.26 26.98 C 149.21 26.98 148.01 26.02 148.01 23.63 C 148.01 21.19 149.3 19.63 151.56 19.63 C 153.48 19.63 154.15 20.89 154.15 22.88 C 154.15 23.08 154.15 23.32 154.11 23.69 L 149.81 23.69 C 149.81 24.96 150.32 25.59 151.52 25.59 C 152.27 25.59 153.15 25.29 153.86 24.92 L 154.3 26.13 C 153.47 26.67 152.37 26.98 151.26 26.98 Z M 152.52 22.6 C 152.52 21.47 152.11 20.96 151.37 20.96 C 150.54 20.96 149.99 21.5 149.87 22.6 L 152.52 22.6 Z" />
    <path
       style="fill:#0084e8;fill-opacity:1"
       id="path56"
       fill="#FFFFFF"
       d=" M 159.87 21.31 C 159.64 21.29 159.48 21.28 159.3 21.28 C 158.67 21.28 158.49 21.41 157.68 22.7 L 157.68 26.87 L 155.87 26.87 L 155.87 19.78 L 157.31 19.66 C 157.42 19.89 157.49 20.59 157.52 21.25 C 158.18 19.9 158.56 19.66 159.22 19.66 C 159.53 19.66 159.85 19.7 160.07 19.77 L 159.87 21.31 Z" />
    <path
       style="fill:#0084e8;fill-opacity:1"
       id="path58"
       fill="#FFFFFF"
       d=" M 161.04 18.4 L 161.04 16.78 L 162.88 16.78 L 162.88 18.4 L 161.04 18.4 Z M 161.09 26.87 L 161.09 19.81 L 162.89 19.7 L 162.89 26.87 L 161.09 26.87 Z" />
    <path
       style="fill:#0084e8;fill-opacity:1"
       id="path60"
       fill="#FFFFFF"
       d=" M 168.57 26.07 C 167.97 26.73 167.25 27 166.35 27 C 165.27 27 164.37 26.25 164.37 24.88 C 164.37 23.86 164.97 23.17 168.5 22.9 C 168.51 22.54 168.51 22.23 168.51 21.86 C 168.51 21.22 168.29 20.99 167.75 20.99 C 166.99 20.99 166.1 21.31 165.4 21.82 L 164.68 20.71 C 165.68 19.98 166.74 19.58 168.19 19.58 C 169.87 19.58 170.33 20.45 170.33 21.94 L 170.33 24.88 C 170.33 25.41 170.39 25.48 171.35 25.6 L 171.05 26.93 C 170.78 26.95 170.53 26.95 170.32 26.95 C 169.28 26.95 168.74 26.63 168.57 26.07 Z M 166.11 24.8 C 166.11 25.37 166.44 25.73 167.03 25.73 C 167.61 25.73 168.19 25.38 168.49 25.04 L 168.49 23.9 C 166.58 24.04 166.11 24.26 166.11 24.8 Z" />
    <path
       style="fill:#0084e8;fill-opacity:1"
       id="path62"
       fill="#FFFFFF"
       d=" M 172.49 16.11 L 174.29 16 L 174.29 24.91 C 174.29 25.41 174.32 25.53 174.73 25.53 C 174.85 25.53 175.02 25.53 175.31 25.5 L 175.35 26.77 C 175.02 26.88 174.4 26.95 173.86 26.95 C 172.93 26.95 172.48 26.56 172.48 25.55 L 172.48 16.11 Z" />
    <path
       style="fill:#0084e8;fill-opacity:1"
       id="path64"
       fill="#FFFFFF"
       d=" M 178.71 27 C 177.75 27 176.87 26.8 176.07 26.43 L 176.41 25.08 C 177.19 25.44 178.15 25.67 178.84 25.67 C 179.62 25.67 179.94 25.37 179.94 25 C 179.94 24.63 179.8 24.38 178.83 24.1 C 176.76 23.5 176.37 22.9 176.37 21.87 C 176.37 20.52 177.48 19.62 179.12 19.62 C 180 19.62 180.79 19.77 181.56 20.14 L 181.11 21.46 C 180.6 21.21 179.71 21.02 179.14 21.02 C 178.39 21.02 178.14 21.32 178.14 21.7 C 178.14 22.15 178.31 22.33 179.47 22.67 C 181.22 23.21 181.64 23.78 181.64 24.77 C 181.65 26.02 180.72 27 178.71 27 Z" />
    <path
       style="fill:#0084e8;fill-opacity:1"
       id="path66"
       fill="#FFFFFF"
       d=" M 188.8 27 C 187.54 27 186.61 26.79 185.59 26.33 L 186.09 24.75 C 186.93 25.13 188.05 25.39 188.97 25.39 C 190.15 25.39 190.78 24.87 190.78 24.15 C 190.78 23.38 190.45 23.02 188.9 22.57 C 186.86 21.99 185.96 21.37 185.96 19.53 C 185.96 17.76 187.17 16.38 189.46 16.38 C 190.67 16.38 191.72 16.62 192.49 17.01 L 192.03 18.46 C 191.3 18.16 190.24 17.97 189.59 17.97 C 188.4 17.97 187.91 18.42 187.91 19.26 C 187.91 20 188.17 20.39 189.59 20.8 C 192.15 21.55 192.71 22.32 192.71 23.83 C 192.7 25.6 191.37 27 188.8 27 Z" />
    <path
       style="fill:#0084e8;fill-opacity:1"
       id="path68"
       fill="#FFFFFF"
       d=" M 198.94 21.25 C 198.46 21.1 197.97 21.04 197.59 21.04 C 196.31 21.04 195.76 21.79 195.76 23.45 C 195.76 24.83 196.24 25.52 197.39 25.52 C 197.98 25.52 198.55 25.37 199.09 25.11 L 199.55 26.39 C 198.86 26.76 198.02 26.97 197.01 26.97 C 195 26.97 193.92 26.02 193.92 23.58 C 193.92 20.91 195.39 19.61 197.42 19.61 C 198.13 19.61 198.75 19.69 199.31 19.93 L 198.94 21.25 Z" />
    <path
       style="fill:#0084e8;fill-opacity:1"
       id="path70"
       fill="#FFFFFF"
       d=" M 200.71 18.4 L 200.71 16.78 L 202.55 16.78 L 202.55 18.4 L 200.71 18.4 Z M 200.76 26.87 L 200.76 19.81 L 202.56 19.7 L 202.56 26.87 L 200.76 26.87 Z" />
    <path
       style="fill:#0084e8;fill-opacity:1"
       id="path72"
       fill="#FFFFFF"
       d=" M 207.37 26.98 C 205.32 26.98 204.12 26.02 204.12 23.63 C 204.12 21.19 205.41 19.63 207.67 19.63 C 209.59 19.63 210.26 20.89 210.26 22.88 C 210.26 23.08 210.26 23.32 210.22 23.69 L 205.92 23.69 C 205.92 24.96 206.43 25.59 207.63 25.59 C 208.38 25.59 209.26 25.29 209.97 24.92 L 210.41 26.13 C 209.58 26.67 208.48 26.98 207.37 26.98 Z M 208.63 22.6 C 208.63 21.47 208.22 20.96 207.48 20.96 C 206.65 20.96 206.1 21.5 205.98 22.6 L 208.63 22.6 Z" />
    <path
       style="fill:#0084e8;fill-opacity:1"
       id="path74"
       fill="#FFFFFF"
       d=" M 216.24 26.87 L 216.24 21.95 C 216.24 21.45 216.09 21.14 215.53 21.14 C 215.07 21.14 214.42 21.47 213.81 22.06 L 213.81 26.87 L 211.98 26.87 L 211.98 19.78 L 213.57 19.67 C 213.66 19.88 213.72 20.33 213.75 20.77 C 214.59 20 215.47 19.61 216.25 19.61 C 217.58 19.61 218.08 20.26 218.08 21.61 L 218.08 26.87 L 216.24 26.87 Z" />
    <path
       style="fill:#0084e8;fill-opacity:1"
       id="path76"
       fill="#FFFFFF"
       d=" M 224.62 21.25 C 224.14 21.1 223.65 21.04 223.27 21.04 C 221.99 21.04 221.44 21.79 221.44 23.45 C 221.44 24.83 221.92 25.52 223.07 25.52 C 223.65 25.52 224.23 25.37 224.77 25.11 L 225.23 26.39 C 224.54 26.76 223.7 26.97 222.69 26.97 C 220.68 26.97 219.6 26.02 219.6 23.58 C 219.6 20.91 221.07 19.61 223.1 19.61 C 223.81 19.61 224.43 19.69 224.99 19.93 L 224.62 21.25 Z" />
    <path
       style="fill:#0084e8;fill-opacity:1"
       id="path78"
       fill="#FFFFFF"
       d=" M 229.29 26.98 C 227.24 26.98 226.04 26.02 226.04 23.63 C 226.04 21.19 227.33 19.63 229.59 19.63 C 231.51 19.63 232.18 20.89 232.18 22.88 C 232.18 23.08 232.18 23.32 232.14 23.69 L 227.84 23.69 C 227.84 24.96 228.35 25.59 229.55 25.59 C 230.3 25.59 231.18 25.29 231.89 24.92 L 232.33 26.13 C 231.49 26.67 230.4 26.98 229.29 26.98 Z M 230.55 22.6 C 230.55 21.47 230.14 20.96 229.4 20.96 C 228.57 20.96 228.02 21.5 227.9 22.6 L 230.55 22.6 Z" />
    <path
       style="fill:#0084e8;fill-opacity:1"
       id="path80"
       fill="#FFFFFF"
       d=" M 105.51 42.96 C 102.68 42.96 101.68 41.63 101.68 39.02 L 101.68 32.69 L 102.93 32.69 L 102.93 38.94 C 102.93 40.96 103.6 41.94 105.58 41.94 C 107.64 41.94 108.34 40.86 108.34 38.81 L 108.34 32.69 L 109.52 32.69 L 109.52 38.82 C 109.53 41.29 108.29 42.96 105.51 42.96 Z" />
    <path
       style="fill:#0084e8;fill-opacity:1"
       id="path82"
       fill="#FFFFFF"
       d=" M 116.24 42.87 L 116.24 37.83 C 116.24 37.23 116.05 36.75 115.31 36.75 C 114.73 36.75 113.84 37.17 113.06 37.95 L 113.06 42.87 L 111.86 42.87 L 111.86 35.9 L 112.88 35.81 C 112.97 36 113.03 36.5 113.05 37.01 C 114.01 36.11 114.89 35.75 115.73 35.75 C 117.02 35.75 117.45 36.4 117.45 37.66 L 117.45 42.88 L 116.24 42.88 Z" />
    <path
       style="fill:#0084e8;fill-opacity:1"
       id="path84"
       fill="#FFFFFF"
       d=" M 119.72 34.31 L 119.72 33.15 L 121.06 33.15 L 121.06 34.31 L 119.72 34.31 Z M 119.79 42.87 L 119.79 35.9 L 120.99 35.82 L 120.99 42.87 L 119.79 42.87 Z" />
    <path
       style="fill:#0084e8;fill-opacity:1"
       id="path86"
       fill="#FFFFFF"
       d=" M 125.48 40.99 C 125.57 41.29 125.6 41.5 125.6 41.7 C 125.6 41.5 125.64 41.26 125.75 40.99 L 127.74 35.92 L 128.88 35.92 L 126.03 42.88 L 125 42.88 L 122.34 35.92 L 123.6 35.92 L 125.48 40.99 Z" />
    <path
       style="fill:#0084e8;fill-opacity:1"
       id="path88"
       fill="#FFFFFF"
       d=" M 132.71 42.96 C 130.94 42.96 129.72 42.08 129.72 39.74 C 129.72 37.15 131.02 35.77 133.08 35.77 C 134.62 35.77 135.46 36.85 135.46 38.38 C 135.46 38.7 135.46 39 135.42 39.47 L 130.91 39.47 C 130.91 41.26 131.57 42.01 132.99 42.01 C 133.72 42.01 134.44 41.74 135.19 41.28 L 135.55 42.09 C 134.78 42.63 133.89 42.96 132.71 42.96 Z M 134.39 38.46 C 134.39 37.33 133.89 36.68 132.98 36.68 C 131.9 36.68 131.14 37.32 130.97 38.63 L 134.39 38.63 L 134.39 38.46 Z" />
    <path
       style="fill:#0084e8;fill-opacity:1"
       id="path90"
       fill="#FFFFFF"
       d=" M 141.03 36.85 C 140.81 36.83 140.71 36.83 140.6 36.83 C 139.88 36.83 139.67 36.98 138.62 38.86 L 138.62 42.88 L 137.42 42.88 L 137.42 35.9 L 138.37 35.79 C 138.48 36.02 138.54 36.83 138.55 37.67 C 139.32 36.07 139.72 35.77 140.43 35.77 C 140.72 35.77 141 35.81 141.15 35.86 L 141.03 36.85 Z" />
    <path
       style="fill:#0084e8;fill-opacity:1"
       id="path92"
       fill="#FFFFFF"
       d=" M 144.24 43 C 143.34 43 142.53 42.79 141.82 42.4 L 142.12 41.45 C 142.88 41.83 143.68 42.07 144.38 42.07 C 145.42 42.07 145.8 41.63 145.8 41.14 C 145.8 40.62 145.62 40.32 144.32 39.89 C 142.53 39.32 142.13 38.8 142.13 37.79 C 142.13 36.62 143.08 35.75 144.74 35.75 C 145.61 35.75 146.31 35.92 146.88 36.25 L 146.55 37.17 C 146.12 36.95 145.32 36.76 144.65 36.76 C 143.61 36.76 143.32 37.18 143.32 37.71 C 143.32 38.29 143.53 38.52 144.86 38.94 C 146.63 39.51 146.97 40.08 146.97 40.98 C 146.99 42.04 146.21 43 144.24 43 Z" />
    <path
       style="fill:#0084e8;fill-opacity:1"
       id="path94"
       fill="#FFFFFF"
       d=" M 148.77 34.31 L 148.77 33.15 L 150.1 33.15 L 150.1 34.31 L 148.77 34.31 Z M 148.84 42.87 L 148.84 35.9 L 150.04 35.82 L 150.04 42.87 L 148.84 42.87 Z" />
    <path
       style="fill:#0084e8;fill-opacity:1"
       id="path96"
       fill="#FFFFFF"
       d=" M 154.22 42.98 C 153.08 42.98 152.54 42.47 152.54 41.3 L 152.54 36.83 L 151.6 36.79 L 151.67 35.96 L 152.56 35.92 L 152.73 33.67 L 153.76 33.57 L 153.76 35.91 L 156.05 35.91 L 155.98 36.86 L 153.76 36.86 L 153.76 41.21 C 153.76 41.79 153.96 42 154.51 42 C 154.96 42 155.43 41.89 155.98 41.66 L 156.23 42.51 C 155.67 42.82 155 42.98 154.22 42.98 Z" />
    <path
       style="fill:#0084e8;fill-opacity:1"
       id="path98"
       fill="#FFFFFF"
       d=" M 159.78 40.97 C 159.88 41.27 159.9 41.5 159.9 41.69 C 159.9 41.49 159.94 41.24 160.05 40.97 L 162.05 35.92 L 163.19 35.92 L 159.67 44.47 C 159.26 45.46 158.68 45.87 157.12 45.94 L 156.95 45.04 C 158.12 44.92 158.42 44.72 158.67 44.14 L 159.25 42.77 L 156.69 35.92 L 157.92 35.92 L 159.78 40.97 Z" />
    <path
       style="fill:#0084e8;fill-opacity:1"
       id="path100"
       fill="#FFFFFF"
       d=" M 170.04 42.98 C 167.99 42.98 166.94 41.88 166.94 39.53 C 166.94 37.29 168.21 35.75 170.28 35.75 C 172.28 35.75 173.32 36.8 173.32 39.21 C 173.33 41.43 172.17 42.98 170.04 42.98 Z M 170.16 36.67 C 168.93 36.67 168.16 37.66 168.16 39.43 C 168.16 41.43 168.95 42.07 170.12 42.07 C 171.41 42.07 172.07 41 172.07 39.31 C 172.08 37.7 171.54 36.67 170.16 36.67 Z" />
    <path
       style="fill:#0084e8;fill-opacity:1"
       id="path102"
       fill="#FFFFFF"
       d=" M 178.48 33.2 C 178.24 33.14 177.73 33.1 177.46 33.1 C 176.72 33.1 176.49 33.46 176.49 34.31 L 176.49 35.93 L 178.02 35.93 L 177.95 36.86 L 176.49 36.86 L 176.49 42.87 L 175.3 42.87 L 175.3 36.87 L 174.33 36.79 L 174.41 35.98 L 175.31 35.92 L 175.31 34.4 C 175.31 32.87 175.97 32.16 177.34 32.16 C 177.77 32.16 178.42 32.25 178.7 32.34 L 178.48 33.2 Z" />
    <path
       style="fill:#0084e8;fill-opacity:1"
       id="path104"
       fill="#FFFFFF"
       d=" M 188.82 42.87 L 187.73 39.75 L 183.94 39.75 L 182.74 42.87 L 181.54 42.87 L 185.4 32.69 L 186.57 32.69 L 190.18 42.87 L 188.82 42.87 Z M 184.23 38.86 L 187.44 38.86 L 186.06 34.78 C 185.95 34.46 185.91 34.16 185.91 33.97 C 185.91 34.16 185.84 34.49 185.73 34.78 L 184.23 38.86 Z" />
    <path
       style="fill:#0084e8;fill-opacity:1"
       id="path106"
       fill="#FFFFFF"
       d=" M 195.99 42.87 L 195.99 37.83 C 195.99 37.23 195.8 36.75 195.06 36.75 C 194.47 36.75 193.59 37.17 192.81 37.95 L 192.81 42.87 L 191.61 42.87 L 191.61 35.9 L 192.63 35.81 C 192.72 36 192.78 36.5 192.8 37.01 C 193.76 36.11 194.64 35.75 195.48 35.75 C 196.77 35.75 197.2 36.4 197.2 37.66 L 197.2 42.88 L 195.99 42.88 Z" />
    <path
       style="fill:#0084e8;fill-opacity:1"
       id="path108"
       fill="#FFFFFF"
       d=" M 201.34 42.98 C 200.2 42.98 199.66 42.47 199.66 41.3 L 199.66 36.83 L 198.72 36.79 L 198.79 35.96 L 199.68 35.92 L 199.84 33.67 L 200.87 33.57 L 200.87 35.91 L 203.16 35.91 L 203.09 36.86 L 200.87 36.86 L 200.87 41.21 C 200.87 41.79 201.07 42 201.62 42 C 202.07 42 202.54 41.89 203.09 41.66 L 203.34 42.51 C 202.8 42.82 202.12 42.98 201.34 42.98 Z" />
    <path
       style="fill:#0084e8;fill-opacity:1"
       id="path110"
       fill="#FFFFFF"
       d=" M 206.97 42.87 L 205.98 42.87 L 203.84 35.91 L 205.02 35.91 L 206.51 40.94 C 206.6 41.24 206.63 41.45 206.63 41.65 C 206.63 41.45 206.69 41.2 206.78 40.94 L 208.42 35.91 L 209.42 35.85 L 211.1 40.93 C 211.2 41.23 211.23 41.44 211.23 41.64 C 211.23 41.44 211.27 41.19 211.36 40.93 L 212.98 35.9 L 214.05 35.9 L 211.71 42.86 L 210.67 42.86 L 208.96 37.81 C 208.87 37.56 208.84 37.3 208.84 37.1 C 208.84 37.3 208.8 37.53 208.71 37.81 L 206.97 42.87 Z" />
    <path
       style="fill:#0084e8;fill-opacity:1"
       id="path112"
       fill="#FFFFFF"
       d=" M 217.93 42.96 C 216.16 42.96 214.94 42.08 214.94 39.74 C 214.94 37.15 216.24 35.77 218.3 35.77 C 219.84 35.77 220.68 36.85 220.68 38.38 C 220.68 38.7 220.68 39 220.64 39.47 L 216.13 39.47 C 216.13 41.26 216.79 42.01 218.21 42.01 C 218.94 42.01 219.66 41.74 220.41 41.28 L 220.77 42.09 C 220 42.63 219.12 42.96 217.93 42.96 Z M 219.61 38.46 C 219.61 37.33 219.11 36.68 218.2 36.68 C 217.12 36.68 216.36 37.32 216.19 38.63 L 219.61 38.63 L 219.61 38.46 Z" />
    <path
       style="fill:#0084e8;fill-opacity:1"
       id="path114"
       fill="#FFFFFF"
       d=" M 226.26 36.85 C 226.04 36.83 225.94 36.83 225.83 36.83 C 225.11 36.83 224.9 36.98 223.85 38.86 L 223.85 42.88 L 222.65 42.88 L 222.65 35.9 L 223.6 35.79 C 223.71 36.02 223.77 36.83 223.78 37.67 C 224.55 36.07 224.95 35.77 225.66 35.77 C 225.95 35.77 226.23 35.81 226.38 35.86 L 226.26 36.85 Z" />
    <path
       style="fill:#0084e8;fill-opacity:1"
       id="path116"
       fill="#FFFFFF"
       d=" M 230.32 42.95 C 229.75 42.95 229.27 42.87 228.9 42.66 L 228.9 45.78 L 227.67 45.86 L 227.67 35.9 L 228.69 35.79 C 228.78 36 228.84 36.37 228.86 36.72 C 229.44 36.12 230.24 35.74 231.09 35.74 C 232.76 35.74 233.7 36.82 233.7 39.15 C 233.7 41.27 232.65 42.95 230.32 42.95 Z M 230.74 36.74 C 229.99 36.74 229.32 37.19 228.9 37.66 L 228.9 41.72 C 229.29 41.92 229.83 42.08 230.37 42.08 C 231.72 42.08 232.45 41.06 232.45 39.25 C 232.45 37.75 231.94 36.74 230.74 36.74 Z" />
  </g>
  <path
     style="fill:#0084e8;fill-opacity:1"
     id="path120"
     fill="#FFFFFF"
     d=" M 12.73 25.32 L 15.43 20.53 L 14.37 25.35 Z" />
  <path
     style="fill:#0084e8;fill-opacity:1"
     id="path122"
     fill="#FFFFFF"
     d=" M 25.79 23.34 L 29.31 19.37 L 28.53 23.27 Z" />
  <path
     style="fill:#0084e8;fill-opacity:1"
     id="path124"
     fill="#FFFFFF"
     d=" M 40.39 0.47 L 2.13 0.47 C 0.96 0.47 0 1.42 0 2.59 L 0 40.86 C 0 42.03 0.96 42.99 2.13 42.99 L 40.39 42.99 C 41.56 42.99 42.52 42.03 42.52 40.86 L 42.52 2.59 C 42.52 1.42 41.56 0.47 40.39 0.47 Z M 21.04 9.66 C 24.9 7.65 27.43 7.41 28.39 7.41 C 32.63 7.58 33.04 8.57 33.99 9.36 C 36.25 12.09 35.09 15.75 35.09 15.75 L 34.23 15.71 C 34.23 15.71 36.01 6.72 25.52 8.57 C 18.61 10.14 12.12 17.32 12.12 17.32 L 11.33 17.35 C 11.33 17.35 15.13 13.01 21.04 9.66 Z M 15.5 35.54 C 14.82 35.67 9.76 37.32 6.79 33.83 C 4.53 30.17 6.31 25.87 6.31 25.87 L 6.82 26.72 C 6.92 27.68 5.59 31.16 8.39 33.73 C 11.5 35.85 13.42 34.92 16.22 34.58 C 18.82 34.14 23.88 30.68 23.88 30.68 L 24.19 31.09 C 24.19 31.09 20.08 34.55 15.5 35.54 Z M 26.41 31.59 C 24.96 31.59 23.79 30.42 23.79 28.98 C 23.79 27.53 24.96 26.37 26.41 26.37 C 27.85 26.37 29.02 27.53 29.02 28.98 C 29.02 30.42 27.85 31.59 26.41 31.59 Z M 40.15 18.21 L 37.21 18.21 L 32.15 27.4 L 29 27.37 C 29 27.37 28.97 26.69 27.95 26.28 L 28.11 25.45 L 24.01 25.45 L 22.3 27.37 L 17.66 27.3 L 21.28 20.46 L 15.81 27.33 L 7.74 27.33 L 1.42 16.09 L 9.55 16.16 L 10.65 18 L 5.08 18 L 6.44 20.4 L 11.33 20.46 L 12.15 21.87 L 11.91 22.38 L 7.61 22.45 L 9.11 25.28 L 10.34 25.32 L 15.33 16.12 L 18.24 16.12 L 16.7 23.2 L 22.3 16.09 L 25.76 16.16 L 20.05 26.96 L 29.21 16.12 L 31.91 16.09 L 29.93 27.06 L 34.68 18.14 L 31.81 18.07 L 32.83 16.29 L 41.1 16.29 L 40.15 18.21 Z" />
</svg>
