<?xml version="1.0" encoding="UTF-8" standalone="no"?>
<!-- Created with Inkscape (http://www.inkscape.org/) -->

<svg
   width="159.51729mm"
   height="35.798126mm"
   viewBox="0 0 159.51729 35.798126"
   version="1.1"
   id="svg5"
   xml:space="preserve"
   inkscape:version="1.2.2 (732a01da63, 2022-12-09)"
   sodipodi:docname="Logo_RGB_weiß.svg"
   xmlns:inkscape="http://www.inkscape.org/namespaces/inkscape"
   xmlns:sodipodi="http://sodipodi.sourceforge.net/DTD/sodipodi-0.dtd"
   xmlns="http://www.w3.org/2000/svg"
   xmlns:svg="http://www.w3.org/2000/svg"><sodipodi:namedview
     id="namedview7"
     pagecolor="#ffffff"
     bordercolor="#000000"
     borderopacity="0.25"
     inkscape:showpageshadow="2"
     inkscape:pageopacity="0.0"
     inkscape:pagecheckerboard="0"
     inkscape:deskcolor="#d1d1d1"
     inkscape:document-units="mm"
     showgrid="false"
     inkscape:zoom="0.52221046"
     inkscape:cx="441.39292"
     inkscape:cy="123.51342"
     inkscape:window-width="1346"
     inkscape:window-height="1032"
     inkscape:window-x="2160"
     inkscape:window-y="147"
     inkscape:window-maximized="0"
     inkscape:current-layer="layer1" /><defs
     id="defs2">
	
	

		
		
		
		
		
		
		
		
		
		
		
	</defs><g
     inkscape:label="Ebene 1"
     inkscape:groupmode="layer"
     id="layer1"
     transform="translate(-17.330619,35.798124)"><g
       id="g2788"><polygon
         class="st1"
         points="177.3,286.3 191.6,261.3 206.1,286.3 "
         id="polygon134"
         transform="matrix(0.26458333,0,0,0.26458333,-11.059172,-96.65229)"
         style="fill:#0daba1;fill-opacity:1" /><polygon
         class="st1"
         points="205.7,290.2 191.4,315.3 176.8,290.2 "
         id="polygon136"
         transform="matrix(0.26458333,0,0,0.26458333,-11.059172,-96.65229)"
         style="fill:#0daba1;fill-opacity:1" /><polygon
         class="st1"
         points="173.6,284.7 158.9,259.4 188.2,259.4 "
         id="polygon138"
         transform="matrix(0.26458333,0,0,0.26458333,-11.059172,-96.65229)"
         style="fill:#0daba1;fill-opacity:1" /><polygon
         class="st1"
         points="169.9,286.3 140.9,286.3 155.4,261.3 "
         id="polygon140"
         transform="matrix(0.26458333,0,0,0.26458333,-11.059172,-96.65229)"
         style="fill:#0daba1;fill-opacity:1" /><polygon
         class="st1"
         points="170.5,290.2 155.9,315.5 141.3,290.2 "
         id="polygon142"
         transform="matrix(0.26458333,0,0,0.26458333,-11.059172,-96.65229)"
         style="fill:#0daba1;fill-opacity:1" /><polygon
         class="st1"
         points="152.3,317.2 123,317.2 137.7,291.9 "
         id="polygon144"
         transform="matrix(0.26458333,0,0,0.26458333,-11.059172,-96.65229)"
         style="fill:#0daba1;fill-opacity:1" /><polygon
         class="st1"
         points="173.6,292.6 187.9,317.2 159.6,317.2 "
         id="polygon146"
         transform="matrix(0.26458333,0,0,0.26458333,-11.059172,-96.65229)"
         style="fill:#0daba1;fill-opacity:1" /><polygon
         class="st1"
         points="209.4,291.9 224.1,317.2 194.8,317.2 "
         id="polygon148"
         transform="matrix(0.26458333,0,0,0.26458333,-11.059172,-96.65229)"
         style="fill:#0daba1;fill-opacity:1" /><polygon
         class="st1"
         points="173.5,230 188.2,255.5 158.8,255.5 "
         id="polygon150"
         transform="matrix(0.26458333,0,0,0.26458333,-11.059172,-96.65229)"
         style="fill:#0daba1;fill-opacity:1" /><g
         id="g202"
         transform="matrix(0.26458333,0,0,0.26458333,-11.059172,-96.65229)">
			<path
   class="st1"
   d="m 254.4,304.7 h -9 v 7.6 H 256 v 4.8 H 239.6 V 288.5 H 256 v 4.8 h -10.6 v 6.8 h 9 z"
   id="path152" />
			<path
   class="st1"
   d="m 269.6,301.2 -1.8,-0.2 c -1.5,0 -2.5,0.7 -3.1,2 v 14 h -5.6 v -21.3 h 5.2 l 0.2,2.3 c 0.9,-1.8 2.1,-2.7 3.6,-2.7 0.6,0 1.1,0.1 1.5,0.3 z"
   id="path154" />
			<path
   class="st1"
   d="m 277.5,295.8 0.2,2.1 c 1.3,-1.7 2.9,-2.5 4.9,-2.5 3.7,0 5.5,2.6 5.6,7.7 v 14 h -5.6 v -13.6 c 0,-1.2 -0.2,-2.1 -0.5,-2.6 -0.4,-0.5 -1,-0.8 -1.9,-0.8 -1,0 -1.8,0.5 -2.4,1.6 v 15.4 h -5.6 v -21.3 z"
   id="path156" />
			<path
   class="st1"
   d="m 301.7,311.4 c 0,-0.5 -0.2,-0.9 -0.7,-1.3 -0.5,-0.4 -1.5,-0.9 -3,-1.6 -2.3,-0.9 -3.9,-1.9 -4.7,-2.9 -0.9,-1 -1.3,-2.2 -1.3,-3.7 0,-1.9 0.7,-3.4 2,-4.6 1.3,-1.2 3.1,-1.8 5.3,-1.8 2.3,0 4.2,0.6 5.6,1.8 1.4,1.2 2.1,2.8 2.1,4.9 h -5.6 c 0,-1.7 -0.7,-2.6 -2.2,-2.6 -0.6,0 -1.1,0.2 -1.5,0.5 -0.4,0.4 -0.6,0.9 -0.6,1.5 0,0.5 0.2,0.9 0.6,1.2 0.4,0.3 1.4,0.9 3,1.5 2.3,0.8 3.9,1.8 4.8,2.8 0.9,1 1.4,2.4 1.4,4 0,1.9 -0.7,3.4 -2.1,4.6 -1.4,1.2 -3.3,1.7 -5.6,1.7 -1.6,0 -2.9,-0.3 -4.1,-0.9 -1.2,-0.6 -2.1,-1.5 -2.8,-2.5 -0.7,-1.1 -1,-2.3 -1,-3.5 h 5.3 c 0,1 0.3,1.7 0.7,2.2 0.4,0.5 1.1,0.7 2.1,0.7 1.5,0 2.3,-0.7 2.3,-2 z"
   id="path158" />
			<path
   class="st1"
   d="m 317,290.6 v 5.2 h 2.8 V 300 H 317 v 10.6 c 0,0.8 0.1,1.4 0.3,1.7 0.2,0.3 0.7,0.5 1.3,0.5 0.5,0 1,0 1.3,-0.1 v 4.3 c -0.9,0.4 -2,0.5 -3.1,0.5 -3.6,0 -5.4,-2.1 -5.4,-6.2 V 300 H 309 v -4.2 h 2.5 v -5.2 z"
   id="path160" />
			<path
   class="st1"
   d="m 332.9,307.1 h -9.6 v -4.6 h 9.6 z"
   id="path162" />
			<path
   class="st1"
   d="m 351.4,311.2 h -7.9 l -1.5,5.9 h -6.1 l 8.9,-28.6 h 5.3 l 9,28.6 H 353 Z m -6.6,-4.8 h 5.3 l -2.7,-10.2 z"
   id="path164" />
			<path
   class="st1"
   d="m 378.1,307.1 c 0,3.4 -0.6,6 -1.7,7.8 -1.1,1.7 -2.8,2.6 -5.2,2.6 -1.8,0 -3.3,-0.8 -4.4,-2.5 l -0.2,2.1 h -5.1 v -30.2 h 5.6 v 10.7 c 1,-1.4 2.4,-2.1 4.1,-2.1 2.4,0 4.1,0.9 5.2,2.6 1.1,1.7 1.7,4.2 1.7,7.5 z m -5.5,-1.4 c 0,-2.2 -0.2,-3.7 -0.6,-4.5 -0.4,-0.8 -1.2,-1.1 -2.3,-1.1 -1.2,0 -2,0.5 -2.6,1.6 v 9.7 c 0.5,1 1.4,1.5 2.6,1.5 1.1,0 1.8,-0.3 2.2,-1 0.4,-0.7 0.6,-2 0.7,-4 z"
   id="path166" />
			<path
   class="st1"
   d="m 398.1,307.1 c 0,3.4 -0.6,6 -1.7,7.8 -1.1,1.7 -2.8,2.6 -5.2,2.6 -1.8,0 -3.3,-0.8 -4.4,-2.5 l -0.2,2.1 h -5.1 v -30.2 h 5.6 v 10.7 c 1,-1.4 2.4,-2.1 4.1,-2.1 2.4,0 4.1,0.9 5.2,2.6 1.1,1.7 1.7,4.2 1.7,7.5 z m -5.6,-1.4 c 0,-2.2 -0.2,-3.7 -0.6,-4.5 -0.4,-0.8 -1.2,-1.1 -2.3,-1.1 -1.2,0 -2,0.5 -2.6,1.6 v 9.7 c 0.5,1 1.4,1.5 2.6,1.5 1.1,0 1.8,-0.3 2.2,-1 0.4,-0.7 0.6,-2 0.7,-4 z"
   id="path168" />
			<path
   class="st1"
   d="m 410,317.5 c -2.9,0 -5.1,-0.9 -6.7,-2.6 -1.6,-1.7 -2.4,-4.1 -2.4,-7.3 v -1.7 c 0,-3.4 0.7,-5.9 2.2,-7.8 1.5,-1.8 3.6,-2.7 6.3,-2.7 2.7,0 4.7,0.9 6,2.6 1.3,1.7 2,4.2 2.1,7.6 v 2.7 h -11.1 c 0.1,1.6 0.4,2.7 1,3.5 0.6,0.7 1.6,1.1 2.8,1.1 1.9,0 3.4,-0.6 4.7,-1.9 l 2.2,3.4 c -0.7,0.9 -1.7,1.7 -3,2.3 -1.3,0.6 -2.6,0.8 -4.1,0.8 z m -3.5,-13.1 h 5.6 v -0.5 c 0,-1.3 -0.2,-2.2 -0.6,-2.9 -0.4,-0.7 -1.1,-1 -2,-1 -1,0 -1.7,0.3 -2.1,1 -0.6,0.8 -0.8,1.9 -0.9,3.4 z"
   id="path170" />
			<path
   class="st1"
   d="m 432.3,307.1 h -9.6 v -4.6 h 9.6 z"
   id="path172" />
			<path
   class="st1"
   d="m 458,317.1 h -5.8 v -12.2 h -8.5 v 12.2 H 438 v -28.6 h 5.8 V 300 h 8.5 v -11.6 h 5.8 v 28.7 z"
   id="path174" />
			<path
   class="st1"
   d="m 461.7,305.7 c 0,-3.2 0.8,-5.8 2.3,-7.6 1.5,-1.8 3.6,-2.8 6.3,-2.8 2.7,0 4.8,0.9 6.3,2.8 1.5,1.9 2.3,4.4 2.3,7.6 v 1.4 c 0,3.2 -0.8,5.8 -2.3,7.6 -1.5,1.8 -3.6,2.7 -6.3,2.7 -2.7,0 -4.8,-0.9 -6.4,-2.7 -1.5,-1.8 -2.3,-4.4 -2.3,-7.6 v -1.4 z m 5.6,1.4 c 0,3.8 1,5.7 3,5.7 1.9,0 2.9,-1.6 3,-4.8 v -2.3 c 0,-1.9 -0.3,-3.4 -0.8,-4.3 -0.5,-0.9 -1.3,-1.4 -2.3,-1.4 -0.9,0 -1.7,0.5 -2.2,1.4 -0.5,0.9 -0.8,2.4 -0.8,4.3 v 1.4 z"
   id="path176" />
			<path
   class="st1"
   d="m 490.1,312.8 c 1.6,0 2.4,-1 2.5,-3.1 h 5.2 c 0,2.3 -0.7,4.2 -2.1,5.6 -1.4,1.4 -3.2,2.1 -5.4,2.1 -2.7,0 -4.8,-0.9 -6.3,-2.6 -1.4,-1.7 -2.2,-4.2 -2.2,-7.5 v -1.7 c 0,-3.3 0.7,-5.9 2.1,-7.6 1.4,-1.8 3.5,-2.6 6.3,-2.6 2.3,0 4.2,0.7 5.5,2.2 1.3,1.5 2,3.5 2.1,6.2 h -5.2 c 0,-1.2 -0.2,-2.1 -0.6,-2.8 -0.4,-0.6 -1,-1 -1.9,-1 -1,0 -1.7,0.3 -2.1,1 -0.4,0.7 -0.6,2 -0.7,4 v 2.2 c 0,1.7 0.1,2.9 0.3,3.6 0.2,0.7 0.5,1.2 0.8,1.5 0.4,0.4 1,0.5 1.7,0.5 z"
   id="path178" />
			<path
   class="st1"
   d="m 506.3,297.7 c 1.2,-1.5 2.7,-2.3 4.4,-2.3 1.9,0 3.4,0.7 4.4,2 1,1.4 1.5,3.4 1.5,6.1 V 317 H 511 v -13.5 c 0,-1.2 -0.2,-2.1 -0.6,-2.7 -0.4,-0.6 -1,-0.8 -1.9,-0.8 -1,0 -1.8,0.5 -2.4,1.4 V 317 h -5.6 v -30.2 h 5.6 v 10.9 z"
   id="path180" />
			<path
   class="st1"
   d="m 530.1,311.4 c 0,-0.5 -0.2,-0.9 -0.7,-1.3 -0.5,-0.4 -1.5,-0.9 -3,-1.6 -2.3,-0.9 -3.9,-1.9 -4.7,-2.9 -0.9,-1 -1.3,-2.2 -1.3,-3.7 0,-1.9 0.7,-3.4 2,-4.6 1.3,-1.2 3.1,-1.8 5.3,-1.8 2.3,0 4.2,0.6 5.6,1.8 1.4,1.2 2.1,2.8 2.1,4.9 h -5.6 c 0,-1.7 -0.7,-2.6 -2.2,-2.6 -0.6,0 -1.1,0.2 -1.5,0.5 -0.4,0.4 -0.6,0.9 -0.6,1.5 0,0.5 0.2,0.9 0.6,1.2 0.4,0.4 1.4,0.9 3,1.5 2.3,0.8 3.9,1.8 4.8,2.8 0.9,1 1.4,2.4 1.4,4 0,1.9 -0.7,3.4 -2.1,4.6 -1.4,1.2 -3.3,1.7 -5.6,1.7 -1.6,0 -2.9,-0.3 -4.1,-0.9 -1.2,-0.6 -2.1,-1.5 -2.8,-2.5 -0.7,-1.1 -1,-2.3 -1,-3.5 h 5.3 c 0,1 0.3,1.7 0.7,2.2 0.4,0.5 1.1,0.7 2.1,0.7 1.6,0 2.3,-0.7 2.3,-2 z"
   id="path182" />
			<path
   class="st1"
   d="m 546.7,312.8 c 1.6,0 2.4,-1 2.5,-3.1 h 5.2 c 0,2.3 -0.7,4.2 -2.1,5.6 -1.4,1.4 -3.2,2.1 -5.4,2.1 -2.7,0 -4.8,-0.9 -6.3,-2.6 -1.4,-1.7 -2.2,-4.2 -2.2,-7.5 v -1.7 c 0,-3.3 0.7,-5.9 2.1,-7.6 1.4,-1.8 3.5,-2.6 6.3,-2.6 2.3,0 4.2,0.7 5.5,2.2 1.3,1.5 2,3.5 2.1,6.2 h -5.2 c 0,-1.2 -0.2,-2.1 -0.6,-2.8 -0.4,-0.6 -1,-1 -1.9,-1 -1,0 -1.7,0.3 -2.1,1 -0.4,0.7 -0.6,2 -0.7,4 v 2.2 c 0,1.7 0.1,2.9 0.3,3.6 0.2,0.7 0.5,1.2 0.8,1.5 0.4,0.4 1,0.5 1.7,0.5 z"
   id="path184" />
			<path
   class="st1"
   d="m 562.9,297.7 c 1.2,-1.5 2.7,-2.3 4.4,-2.3 1.9,0 3.4,0.7 4.4,2 1,1.4 1.5,3.4 1.5,6.1 V 317 h -5.6 v -13.5 c 0,-1.2 -0.2,-2.1 -0.6,-2.7 -0.4,-0.6 -1,-0.8 -1.9,-0.8 -1,0 -1.8,0.5 -2.4,1.4 V 317 h -5.6 v -30.2 h 5.6 v 10.9 z"
   id="path186" />
			<path
   class="st1"
   d="m 587.8,315.1 c -1.2,1.6 -2.7,2.3 -4.6,2.3 -2,0 -3.4,-0.7 -4.4,-2 -1,-1.3 -1.5,-3.3 -1.5,-5.9 v -13.8 h 5.6 v 13.9 c 0,2.1 0.7,3.1 2.1,3.1 1.3,0 2.2,-0.6 2.8,-1.7 v -15.4 h 5.6 v 21.3 h -5.2 z"
   id="path188" />
			<path
   class="st1"
   d="m 603,317.1 h -5.6 v -30.2 h 5.6 z"
   id="path190" />
			<path
   class="st1"
   d="m 615.8,317.5 c -2.9,0 -5.1,-0.9 -6.7,-2.6 -1.6,-1.7 -2.4,-4.1 -2.4,-7.3 v -1.7 c 0,-3.4 0.7,-5.9 2.2,-7.8 1.5,-1.8 3.6,-2.7 6.3,-2.7 2.7,0 4.7,0.9 6,2.6 1.3,1.7 2,4.2 2.1,7.6 v 2.7 h -11.1 c 0.1,1.6 0.4,2.7 1,3.5 0.6,0.7 1.6,1.1 2.8,1.1 1.9,0 3.4,-0.6 4.7,-1.9 l 2.2,3.4 c -0.7,0.9 -1.7,1.7 -3,2.3 -1.3,0.6 -2.5,0.8 -4.1,0.8 z m -3.5,-13.1 h 5.6 v -0.5 c 0,-1.3 -0.2,-2.2 -0.6,-2.9 -0.4,-0.7 -1.1,-1 -2,-1 -0.9,0 -1.7,0.3 -2.1,1 -0.5,0.8 -0.8,1.9 -0.9,3.4 z"
   id="path192" />
			<path
   class="st1"
   d="m 645.5,288.5 h 5.8 v 19.8 c 0,2.8 -0.8,5 -2.3,6.7 -1.5,1.7 -3.5,2.5 -6,2.5 -2.6,0 -4.7,-0.8 -6.1,-2.3 -1.5,-1.6 -2.2,-3.7 -2.2,-6.5 h 5.8 c 0,2.7 0.8,4 2.5,4 1.7,0 2.5,-1.6 2.5,-4.7 z"
   id="path194" />
			<path
   class="st1"
   d="m 664.1,317.5 c -2.9,0 -5.1,-0.9 -6.7,-2.6 -1.6,-1.7 -2.4,-4.1 -2.4,-7.3 v -1.7 c 0,-3.4 0.7,-5.9 2.2,-7.8 1.5,-1.8 3.6,-2.7 6.3,-2.7 2.7,0 4.7,0.9 6,2.6 1.3,1.7 2,4.2 2.1,7.6 v 2.7 h -11.1 c 0.1,1.6 0.4,2.7 1,3.5 0.6,0.7 1.6,1.1 2.8,1.1 1.9,0 3.4,-0.6 4.7,-1.9 l 2.2,3.4 c -0.7,0.9 -1.7,1.7 -3,2.3 -1.3,0.6 -2.6,0.8 -4.1,0.8 z m -3.5,-13.1 h 5.6 v -0.5 c 0,-1.3 -0.2,-2.2 -0.6,-2.9 -0.4,-0.7 -1.1,-1 -2,-1 -1,0 -1.7,0.3 -2.1,1 -0.6,0.8 -0.8,1.9 -0.9,3.4 z"
   id="path196" />
			<path
   class="st1"
   d="m 679.9,295.8 0.2,2.1 c 1.3,-1.7 2.9,-2.5 4.9,-2.5 3.7,0 5.5,2.6 5.6,7.7 v 14 H 685 v -13.6 c 0,-1.2 -0.2,-2.1 -0.5,-2.6 -0.4,-0.5 -1,-0.8 -1.9,-0.8 -1,0 -1.8,0.5 -2.4,1.6 v 15.4 h -5.6 v -21.3 z"
   id="path198" />
			<path
   class="st1"
   d="m 704.7,317.1 c -0.2,-0.3 -0.3,-0.9 -0.5,-1.7 -1,1.4 -2.3,2 -4,2 -1.8,0 -3.3,-0.6 -4.4,-1.8 -1.2,-1.2 -1.8,-2.7 -1.8,-4.6 0,-2.2 0.7,-3.9 2.1,-5.2 1.4,-1.2 3.5,-1.8 6.1,-1.9 h 1.7 v -1.7 c 0,-1 -0.2,-1.6 -0.5,-2 -0.3,-0.4 -0.8,-0.6 -1.4,-0.6 -1.4,0 -2.1,0.8 -2.1,2.4 h -5.6 c 0,-2 0.7,-3.6 2.2,-4.9 1.5,-1.3 3.3,-1.9 5.6,-1.9 2.3,0 4.1,0.6 5.4,1.8 1.3,1.2 1.9,2.9 1.9,5.2 v 10 c 0,1.8 0.3,3.3 0.8,4.3 v 0.3 h -5.5 z m -3.3,-4 c 0.6,0 1.1,-0.1 1.6,-0.4 0.4,-0.2 0.8,-0.5 1,-0.9 v -4.4 h -1.3 c -0.9,0 -1.7,0.3 -2.2,0.9 -0.5,0.6 -0.8,1.4 -0.8,2.4 -0.1,1.6 0.5,2.4 1.7,2.4 z"
   id="path200" />
		</g><g
         id="g258"
         transform="matrix(0.26458333,0,0,0.26458333,-11.059172,-96.65229)">
			<path
   class="st1"
   d="m 122.7,331.5 v 18.4 c 0,2.5 -0.7,4.5 -2,5.8 -1.3,1.4 -3.2,2.1 -5.7,2.1 -2.5,0 -4.4,-0.7 -5.7,-2 -1.3,-1.3 -2,-3.3 -2,-5.9 v -18.4 h 2 v 18.3 c 0,4.1 1.9,6.2 5.7,6.2 3.7,0 5.6,-2 5.7,-6 v -18.5 z"
   id="path204" />
			<path
   class="st1"
   d="m 129.9,338.1 0.1,3.1 c 0.6,-1 1.3,-1.9 2.2,-2.5 0.9,-0.6 1.9,-0.9 3,-0.9 3.4,0 5.1,2.2 5.2,6.7 v 12.9 h -2 v -12.7 c 0,-1.7 -0.3,-3 -0.9,-3.8 -0.6,-0.8 -1.5,-1.2 -2.8,-1.2 -1,0 -2,0.4 -2.8,1.2 -0.8,0.8 -1.5,1.8 -1.9,3.2 v 13.4 h -2 v -19.3 h 1.9 z"
   id="path206" />
			<path
   class="st1"
   d="m 145.5,332.6 c 0,-0.4 0.1,-0.7 0.3,-1 0.2,-0.3 0.5,-0.4 1,-0.4 0.4,0 0.7,0.1 1,0.4 0.3,0.3 0.3,0.6 0.3,1 0,0.4 -0.1,0.7 -0.3,1 -0.2,0.3 -0.6,0.4 -1,0.4 -0.4,0 -0.7,-0.1 -1,-0.4 -0.2,-0.3 -0.3,-0.6 -0.3,-1 z m 2.3,24.8 h -2 v -19.3 h 2 z"
   id="path208" />
			<path
   class="st1"
   d="m 158.4,354.3 4.7,-16.2 h 2 l -6,19.3 h -1.6 l -6,-19.3 h 2 z"
   id="path210" />
			<path
   class="st1"
   d="m 174.9,357.8 c -2.3,0 -4,-0.7 -5.3,-2.2 -1.3,-1.5 -1.9,-3.6 -2,-6.3 v -2.4 c 0,-2.8 0.6,-5.1 1.9,-6.7 1.2,-1.6 2.9,-2.4 5.1,-2.4 2.1,0 3.7,0.7 4.8,2.1 1.1,1.4 1.7,3.5 1.7,6.3 v 1.9 h -11.5 v 1.1 c 0,2.2 0.5,3.9 1.4,5.1 0.9,1.2 2.3,1.8 4,1.8 1.9,0 3.4,-0.7 4.6,-2.1 l 1,1.3 c -1.2,1.6 -3.2,2.5 -5.7,2.5 z m -0.4,-18.2 c -1.6,0 -2.8,0.6 -3.6,1.7 -0.8,1.1 -1.3,2.7 -1.4,4.8 h 9.5 v -0.5 c -0.1,-4 -1.6,-6 -4.5,-6 z"
   id="path212" />
			<path
   class="st1"
   d="m 192.8,340 c -0.5,-0.1 -0.9,-0.1 -1.2,-0.1 -1.1,0 -2,0.4 -2.8,1.1 -0.7,0.8 -1.3,1.8 -1.6,3.1 v 13.3 h -2 v -19.3 h 1.9 v 2.9 c 0.9,-2.2 2.4,-3.2 4.4,-3.2 0.5,0 0.9,0.1 1.2,0.2 z"
   id="path214" />
			<path
   class="st1"
   d="m 205.9,352.7 c 0,-0.8 -0.3,-1.6 -1,-2.2 -0.7,-0.6 -1.9,-1.3 -3.5,-2 -1.6,-0.7 -2.8,-1.4 -3.5,-1.9 -0.7,-0.5 -1.1,-1 -1.4,-1.6 -0.3,-0.6 -0.5,-1.3 -0.5,-2.1 0,-1.5 0.5,-2.7 1.6,-3.7 1.1,-1 2.5,-1.5 4.2,-1.5 1.8,0 3.3,0.5 4.4,1.6 1.1,1 1.6,2.4 1.6,4.1 h -2 c 0,-1.1 -0.4,-2 -1.1,-2.7 -0.7,-0.7 -1.7,-1.1 -2.9,-1.1 -1.2,0 -2.1,0.3 -2.8,0.9 -0.7,0.6 -1,1.4 -1,2.3 0,0.8 0.3,1.4 0.8,1.9 0.5,0.5 1.7,1.1 3.4,2 1.8,0.8 3,1.4 3.7,1.9 0.7,0.5 1.2,1.1 1.5,1.7 0.3,0.6 0.5,1.4 0.5,2.2 0,1.6 -0.6,2.9 -1.7,3.8 -1.1,0.9 -2.6,1.4 -4.4,1.4 -1.9,0 -3.5,-0.5 -4.6,-1.6 -1.2,-1 -1.8,-2.4 -1.8,-4 h 2 c 0.1,1.2 0.5,2.1 1.2,2.8 0.7,0.7 1.8,1 3.2,1 1.2,0 2.2,-0.3 2.9,-0.9 0.8,-0.5 1.2,-1.3 1.2,-2.3 z"
   id="path216" />
			<path
   class="st1"
   d="m 212.5,332.6 c 0,-0.4 0.1,-0.7 0.3,-1 0.2,-0.3 0.5,-0.4 1,-0.4 0.4,0 0.7,0.1 1,0.4 0.3,0.3 0.3,0.6 0.3,1 0,0.4 -0.1,0.7 -0.3,1 -0.2,0.3 -0.6,0.4 -1,0.4 -0.4,0 -0.7,-0.1 -1,-0.4 -0.2,-0.3 -0.3,-0.6 -0.3,-1 z m 2.3,24.8 h -2 v -19.3 h 2 z"
   id="path218" />
			<path
   class="st1"
   d="m 223.2,333.2 v 4.9 h 3.3 v 1.8 h -3.3 v 12.8 c 0,1.1 0.2,1.8 0.5,2.4 0.3,0.5 0.8,0.8 1.6,0.8 0.3,0 0.8,-0.1 1.4,-0.2 l 0.1,1.8 c -0.5,0.2 -1.1,0.3 -1.9,0.3 -2.3,0 -3.5,-1.6 -3.6,-4.8 v -13.1 h -3 v -1.8 h 3 v -4.9 z"
   id="path220" />
			<path
   class="st1"
   d="m 236,354.2 4.6,-16 h 2.1 l -6.8,22.4 -0.4,1.1 c -0.9,2.4 -2.3,3.6 -4.2,3.6 -0.5,0 -0.9,-0.1 -1.4,-0.2 v -1.8 c 0.3,0.1 0.6,0.1 0.9,0.1 0.9,0 1.6,-0.3 2.1,-0.8 0.5,-0.5 1,-1.3 1.4,-2.5 l 0.8,-2.7 -6.1,-19.2 h 2.2 z"
   id="path222" />
			<path
   class="st1"
   d="m 253.6,346.8 c 0,-2.8 0.6,-5 1.9,-6.6 1.3,-1.6 3,-2.4 5.2,-2.4 2.2,0 3.9,0.8 5.2,2.4 1.3,1.6 1.9,3.8 1.9,6.6 v 2.1 c 0,2.8 -0.6,5 -1.9,6.6 -1.3,1.6 -3,2.4 -5.1,2.4 -2.1,0 -3.9,-0.8 -5.1,-2.3 -1.3,-1.5 -1.9,-3.7 -2,-6.4 v -2.4 z m 2,2 c 0,2.2 0.4,4 1.3,5.2 0.9,1.3 2.1,1.9 3.7,1.9 1.6,0 2.9,-0.6 3.7,-1.8 0.9,-1.2 1.3,-3 1.3,-5.3 v -2 c 0,-2.2 -0.5,-4 -1.4,-5.2 -0.9,-1.3 -2.1,-1.9 -3.7,-1.9 -1.5,0 -2.8,0.6 -3.7,1.9 -0.9,1.2 -1.4,3 -1.4,5.1 v 2.1 z"
   id="path224" />
			<path
   class="st1"
   d="m 273.6,357.4 v -17.5 h -2.7 v -1.8 h 2.7 v -2.5 c 0,-1.9 0.5,-3.4 1.3,-4.4 0.8,-1 2.1,-1.5 3.6,-1.5 0.7,0 1.3,0.1 1.9,0.3 l -0.1,1.8 c -0.5,-0.1 -1.1,-0.2 -1.6,-0.2 -1,0 -1.7,0.4 -2.3,1.1 -0.6,0.7 -0.8,1.8 -0.8,3.1 v 2.4 h 3.8 v 1.8 h -3.8 v 17.5 h -2 z"
   id="path226" />
			<path
   class="st1"
   d="M 303.7,350.2 H 294 l -2.2,7.3 h -2.1 l 8.3,-26 h 1.9 l 8.3,26 h -2.1 z m -9.2,-1.9 h 8.6 l -4.3,-13.9 z"
   id="path228" />
			<path
   class="st1"
   d="m 324.6,348.7 c 0,3 -0.5,5.2 -1.6,6.8 -1.1,1.6 -2.6,2.3 -4.6,2.3 -2.2,0 -3.9,-0.9 -5,-2.7 v 9.7 h -2 v -26.7 h 1.8 l 0.1,2.6 c 1.1,-2 2.8,-3 5,-3 2.1,0 3.6,0.7 4.7,2.2 1,1.5 1.6,3.7 1.6,6.8 z m -1.9,-1.8 c 0,-2.5 -0.4,-4.3 -1.2,-5.5 -0.8,-1.2 -2,-1.7 -3.6,-1.7 -2.1,0 -3.6,1.1 -4.5,3.2 V 353 c 0.9,1.9 2.4,2.9 4.5,2.9 1.6,0 2.8,-0.6 3.5,-1.7 0.8,-1.2 1.2,-3 1.2,-5.4 v -1.9 z"
   id="path230" />
			<path
   class="st1"
   d="m 342.4,348.7 c 0,3 -0.5,5.2 -1.6,6.8 -1.1,1.6 -2.6,2.3 -4.6,2.3 -2.2,0 -3.9,-0.9 -5,-2.7 v 9.7 h -2 v -26.7 h 1.8 l 0.1,2.6 c 1.1,-2 2.8,-3 5,-3 2.1,0 3.6,0.7 4.7,2.2 1,1.5 1.6,3.7 1.6,6.8 z m -2,-1.8 c 0,-2.5 -0.4,-4.3 -1.2,-5.5 -0.8,-1.2 -2,-1.7 -3.6,-1.7 -2.1,0 -3.6,1.1 -4.5,3.2 V 353 c 0.9,1.9 2.4,2.9 4.5,2.9 1.6,0 2.8,-0.6 3.5,-1.7 0.8,-1.2 1.2,-3 1.2,-5.4 v -1.9 z"
   id="path232" />
			<path
   class="st1"
   d="m 349.2,357.4 h -2 V 330 h 2 z"
   id="path234" />
			<path
   class="st1"
   d="m 354.6,332.6 c 0,-0.4 0.1,-0.7 0.3,-1 0.2,-0.3 0.5,-0.4 1,-0.4 0.4,0 0.7,0.1 1,0.4 0.3,0.3 0.3,0.6 0.3,1 0,0.4 -0.1,0.7 -0.3,1 -0.2,0.3 -0.6,0.4 -1,0.4 -0.4,0 -0.7,-0.1 -1,-0.4 -0.2,-0.3 -0.3,-0.6 -0.3,-1 z m 2.3,24.8 h -2 v -19.3 h 2 z"
   id="path236" />
			<path
   class="st1"
   d="m 368.8,357.8 c -2.3,0 -4,-0.7 -5.3,-2.2 -1.3,-1.5 -1.9,-3.6 -2,-6.3 v -2.4 c 0,-2.8 0.6,-5.1 1.9,-6.7 1.2,-1.6 2.9,-2.4 5.1,-2.4 2.1,0 3.7,0.7 4.8,2.1 1.1,1.4 1.7,3.5 1.7,6.3 v 1.9 h -11.5 v 1.1 c 0,2.2 0.5,3.9 1.4,5.1 0.9,1.2 2.3,1.8 4,1.8 1.9,0 3.4,-0.7 4.6,-2.1 l 1,1.3 c -1.3,1.6 -3.2,2.5 -5.7,2.5 z m -0.4,-18.2 c -1.6,0 -2.8,0.6 -3.6,1.7 -0.8,1.1 -1.3,2.7 -1.4,4.8 h 9.5 v -0.5 c -0.1,-4 -1.6,-6 -4.5,-6 z"
   id="path238" />
			<path
   class="st1"
   d="m 378.4,346.9 c 0,-3 0.5,-5.3 1.6,-6.8 1.1,-1.5 2.6,-2.3 4.7,-2.3 2.2,0 3.8,1 4.9,2.9 V 330 h 2 v 27.4 h -1.9 l -0.1,-2.5 c -1.1,1.9 -2.7,2.8 -5,2.8 -2,0 -3.6,-0.8 -4.6,-2.3 -1,-1.5 -1.6,-3.7 -1.6,-6.6 z m 2,1.8 c 0,2.5 0.4,4.3 1.1,5.5 0.7,1.2 1.9,1.7 3.5,1.7 2.1,0 3.6,-1 4.5,-3 v -10 c -0.9,-2.2 -2.4,-3.2 -4.5,-3.2 -1.6,0 -2.8,0.6 -3.5,1.7 -0.7,1.1 -1.1,2.9 -1.1,5.4 z"
   id="path240" />
			<path
   class="st1"
   d="m 417.8,351.1 c 0,-1.5 -0.4,-2.6 -1.2,-3.4 -0.8,-0.8 -2.4,-1.6 -4.6,-2.4 -2.3,-0.8 -3.9,-1.6 -5,-2.6 -1.4,-1.2 -2.1,-2.8 -2.1,-4.9 0,-2 0.7,-3.6 2.1,-4.9 1.4,-1.2 3.1,-1.9 5.3,-1.9 2.2,0 4,0.7 5.4,2.2 1.4,1.5 2.1,3.3 2.1,5.6 h -2.1 c 0,-1.7 -0.5,-3.2 -1.5,-4.2 -1,-1.1 -2.3,-1.6 -4,-1.6 -1.6,0 -2.9,0.4 -3.9,1.3 -1,0.9 -1.4,2 -1.4,3.4 0,1.3 0.4,2.4 1.3,3.2 0.9,0.8 2.3,1.6 4.3,2.2 1.9,0.6 3.4,1.3 4.4,2 1,0.7 1.7,1.5 2.2,2.5 0.5,0.9 0.7,2 0.7,3.3 0,2 -0.7,3.7 -2.1,4.9 -1.4,1.2 -3.2,1.9 -5.4,1.9 -1.5,0 -2.9,-0.3 -4.2,-0.9 -1.3,-0.6 -2.2,-1.5 -2.9,-2.7 -0.7,-1.2 -1.1,-2.6 -1.1,-4.1 h 2 c 0,1.8 0.6,3.3 1.7,4.3 1.1,1 2.6,1.6 4.5,1.6 1.6,0 3,-0.4 4,-1.3 1,-0.9 1.5,-2.1 1.5,-3.5 z"
   id="path242" />
			<path
   class="st1"
   d="m 430.1,356 c 1.4,0 2.4,-0.4 3.2,-1.2 0.7,-0.8 1.1,-1.9 1.2,-3.3 h 1.9 c -0.1,2 -0.7,3.5 -1.9,4.6 -1.2,1.1 -2.6,1.7 -4.4,1.7 -2.3,0 -4,-0.7 -5.2,-2.2 -1.2,-1.5 -1.8,-3.6 -1.8,-6.5 v -2.4 c 0,-2.9 0.6,-5.2 1.8,-6.7 1.2,-1.5 2.9,-2.2 5.2,-2.2 1.9,0 3.4,0.6 4.5,1.8 1.1,1.2 1.7,2.9 1.8,5.1 h -1.9 c -0.1,-1.6 -0.5,-2.8 -1.2,-3.7 -0.7,-0.9 -1.8,-1.3 -3.2,-1.3 -1.7,0 -3,0.6 -3.8,1.7 -0.8,1.1 -1.2,2.9 -1.2,5.3 v 2.2 c 0,2.5 0.4,4.3 1.2,5.4 0.8,1.1 2.1,1.7 3.8,1.7 z"
   id="path244" />
			<path
   class="st1"
   d="m 440.5,332.6 c 0,-0.4 0.1,-0.7 0.3,-1 0.2,-0.3 0.5,-0.4 1,-0.4 0.5,0 0.7,0.1 1,0.4 0.2,0.3 0.3,0.6 0.3,1 0,0.4 -0.1,0.7 -0.3,1 -0.2,0.3 -0.6,0.4 -1,0.4 -0.4,0 -0.7,-0.1 -1,-0.4 -0.2,-0.3 -0.3,-0.6 -0.3,-1 z m 2.3,24.8 h -2 v -19.3 h 2 z"
   id="path246" />
			<path
   class="st1"
   d="m 454.6,357.8 c -2.3,0 -4,-0.7 -5.3,-2.2 -1.3,-1.5 -1.9,-3.6 -2,-6.3 v -2.4 c 0,-2.8 0.6,-5.1 1.9,-6.7 1.2,-1.6 2.9,-2.4 5.1,-2.4 2.1,0 3.7,0.7 4.8,2.1 1.1,1.4 1.7,3.5 1.7,6.3 v 1.9 h -11.5 v 1.1 c 0,2.2 0.5,3.9 1.4,5.1 0.9,1.2 2.3,1.8 4,1.8 1.9,0 3.4,-0.7 4.6,-2.1 l 1,1.3 c -1.2,1.6 -3.1,2.5 -5.7,2.5 z m -0.3,-18.2 c -1.6,0 -2.8,0.6 -3.6,1.7 -0.8,1.1 -1.3,2.7 -1.4,4.8 h 9.5 v -0.5 c -0.1,-4 -1.6,-6 -4.5,-6 z"
   id="path248" />
			<path
   class="st1"
   d="m 466.9,338.1 0.1,3.1 c 0.6,-1 1.3,-1.9 2.2,-2.5 0.9,-0.6 1.9,-0.9 3,-0.9 3.4,0 5.1,2.2 5.2,6.7 v 12.9 h -2 v -12.7 c 0,-1.7 -0.3,-3 -0.9,-3.8 -0.6,-0.8 -1.5,-1.2 -2.8,-1.2 -1,0 -2,0.4 -2.8,1.2 -0.8,0.8 -1.5,1.8 -1.9,3.2 v 13.4 h -2 v -19.3 h 1.9 z"
   id="path250" />
			<path
   class="st1"
   d="m 488.7,356 c 1.4,0 2.4,-0.4 3.2,-1.2 0.7,-0.8 1.1,-1.9 1.2,-3.3 h 1.9 c -0.1,2 -0.7,3.5 -1.9,4.6 -1.2,1.1 -2.6,1.7 -4.4,1.7 -2.3,0 -4,-0.7 -5.2,-2.2 -1.2,-1.5 -1.8,-3.6 -1.8,-6.5 v -2.4 c 0,-2.9 0.6,-5.2 1.8,-6.7 1.2,-1.5 2.9,-2.2 5.2,-2.2 1.9,0 3.4,0.6 4.5,1.8 1.1,1.2 1.7,2.9 1.8,5.1 h -2 c -0.1,-1.6 -0.5,-2.8 -1.2,-3.7 -0.8,-0.9 -1.8,-1.3 -3.2,-1.3 -1.7,0 -3,0.6 -3.8,1.7 -0.8,1.1 -1.2,2.9 -1.2,5.3 v 2.2 c 0,2.5 0.4,4.3 1.2,5.4 0.9,1.1 2.2,1.7 3.9,1.7 z"
   id="path252" />
			<path
   class="st1"
   d="m 505.5,357.8 c -2.3,0 -4,-0.7 -5.3,-2.2 -1.3,-1.5 -1.9,-3.6 -2,-6.3 v -2.4 c 0,-2.8 0.6,-5.1 1.9,-6.7 1.3,-1.6 2.9,-2.4 5.1,-2.4 2.1,0 3.7,0.7 4.8,2.1 1.1,1.4 1.7,3.5 1.7,6.3 v 1.9 h -11.5 v 1.1 c 0,2.2 0.5,3.9 1.4,5.1 0.9,1.2 2.3,1.8 4,1.8 1.9,0 3.4,-0.7 4.6,-2.1 l 1,1.3 c -1.2,1.6 -3.1,2.5 -5.7,2.5 z m -0.3,-18.2 c -1.6,0 -2.8,0.6 -3.6,1.7 -0.8,1.1 -1.3,2.7 -1.4,4.8 h 9.5 v -0.5 c -0.1,-4 -1.6,-6 -4.5,-6 z"
   id="path254" />
			<path
   class="st1"
   d="m 525.5,352.7 c 0,-0.8 -0.3,-1.6 -1,-2.2 -0.7,-0.6 -1.9,-1.3 -3.5,-2 -1.6,-0.7 -2.8,-1.4 -3.5,-1.9 -0.7,-0.5 -1.1,-1 -1.4,-1.6 -0.3,-0.6 -0.5,-1.3 -0.5,-2.1 0,-1.5 0.5,-2.7 1.6,-3.7 1.1,-1 2.5,-1.5 4.2,-1.5 1.8,0 3.3,0.5 4.4,1.6 1.1,1 1.6,2.4 1.6,4.1 h -2 c 0,-1.1 -0.4,-2 -1.1,-2.7 -0.7,-0.7 -1.7,-1.1 -2.9,-1.1 -1.2,0 -2.1,0.3 -2.8,0.9 -0.7,0.6 -1,1.4 -1,2.3 0,0.8 0.3,1.4 0.8,1.9 0.5,0.5 1.7,1.1 3.4,2 1.8,0.8 3,1.4 3.7,1.9 0.7,0.5 1.2,1.1 1.5,1.7 0.3,0.6 0.5,1.4 0.5,2.2 0,1.6 -0.6,2.9 -1.7,3.8 -1.1,0.9 -2.6,1.4 -4.4,1.4 -1.9,0 -3.5,-0.5 -4.6,-1.6 -1.2,-1 -1.8,-2.4 -1.8,-4 h 2 c 0.1,1.2 0.5,2.1 1.2,2.8 0.7,0.7 1.8,1 3.2,1 1.2,0 2.2,-0.3 2.9,-0.9 0.8,-0.5 1.2,-1.3 1.2,-2.3 z"
   id="path256" />
		</g></g></g><style
     type="text/css"
     id="style132">
	.st0{fill:#0DABA1;}
	.st1{fill:#FFFFFF;}
</style><style
     type="text/css"
     id="style2">
	.st0{fill:#0DABA1;}
	.st1{fill:#FFFFFF;}
</style></svg>
