<?xml version="1.0" encoding="utf-8"?>
<!-- Generator: Adobe Illustrator 21.1.0, SVG Export Plug-In . SVG Version: 6.00 Build 0)  -->
<svg version="1.1" id="Layer_1" xmlns="http://www.w3.org/2000/svg" xmlns:xlink="http://www.w3.org/1999/xlink" x="0px" y="0px"
	 width="186.888px" height="212.939px" viewBox="0 0 186.888 212.939" style="enable-background:new 0 0 186.888 212.939;"
	 xml:space="preserve">
<style type="text/css">
	.st0{fill:#00436A;}
	.st1{fill:#920031;}
</style>
<g>
	<path class="st0" d="M16.448,159.555c-6.941,0-9.363-3.262-9.363-9.66v-15.492h3.045v15.313c0,4.961,1.656,7.348,6.502,7.348
		c5.027,0,6.754-2.652,6.754-7.672v-14.988h2.9v15.016C26.286,155.446,23.241,159.555,16.448,159.555z"/>
	<path class="st0" d="M42.7,159.333v-12.332c0-1.473-0.477-2.645-2.275-2.645c-1.434,0-3.602,1.027-5.51,2.934v12.043h-2.934v-17.07
		l2.494-0.219c0.221,0.477,0.369,1.688,0.402,2.934c2.35-2.199,4.52-3.086,6.572-3.086c3.158,0,4.225,1.586,4.225,4.668v12.773H42.7
		z"/>
	<path class="st0" d="M51.218,138.372v-2.828h3.271v2.828H51.218z M51.401,159.333v-17.07l2.938-0.188v17.258H51.401z"/>
	<path class="st0" d="M65.317,154.711c0.219,0.734,0.293,1.242,0.293,1.723c0-0.481,0.111-1.066,0.369-1.723l4.885-12.41h2.789
		l-6.977,17.031h-2.535l-6.498-17.031h3.082L65.317,154.711z"/>
	<path class="st0" d="M83.014,159.555c-4.33,0-7.305-2.164-7.305-7.895c0-6.352,3.193-9.73,8.225-9.73
		c3.781,0,5.836,2.645,5.836,6.391c0,0.77,0,1.504-0.107,2.684H78.612c0,4.363,1.611,6.203,5.102,6.203
		c1.799,0,3.563-0.664,5.398-1.797l0.879,1.98C88.083,158.747,85.917,159.555,83.014,159.555z M87.128,148.536
		c0-2.746-1.211-4.363-3.451-4.363c-2.645,0-4.514,1.578-4.918,4.773h8.369V148.536z"/>
	<path class="st0" d="M103.397,144.575c-0.553-0.035-0.771-0.035-1.066-0.035c-1.764,0-2.279,0.363-4.85,4.953v9.84h-2.936v-17.07
		l2.313-0.258c0.258,0.547,0.406,2.535,0.441,4.594c1.873-3.93,2.863-4.668,4.592-4.668c0.695,0,1.393,0.113,1.76,0.223
		L103.397,144.575z"/>
	<path class="st0" d="M111.253,159.629c-2.203,0-4.189-0.516-5.912-1.469l0.734-2.316c1.873,0.922,3.816,1.508,5.545,1.508
		c2.531,0,3.486-1.059,3.486-2.277c0-1.285-0.439-2.02-3.635-3.047c-4.369-1.398-5.361-2.676-5.361-5.141
		c0-2.863,2.313-4.996,6.389-4.996c2.131,0,3.857,0.41,5.252,1.215l-0.809,2.238c-1.064-0.551-3.01-0.988-4.66-0.988
		c-2.535,0-3.271,1.027-3.271,2.316c0,1.426,0.514,1.977,3.783,3.004c4.334,1.398,5.18,2.793,5.18,5
		C117.973,157.278,116.063,159.629,111.253,159.629z"/>
	<path class="st0" d="M122.343,138.372v-2.828h3.264v2.828H122.343z M122.524,159.333v-17.07l2.938-0.188v17.258H122.524z"/>
	<path class="st0" d="M135.671,159.59c-2.793,0-4.113-1.246-4.113-4.109V144.54l-2.312-0.109l0.182-2.023l2.166-0.105l0.402-5.516
		l2.535-0.25v5.727h5.617l-0.182,2.313h-5.436v10.648c0,1.43,0.479,1.949,1.838,1.949c1.1,0,2.24-0.266,3.598-0.848l0.625,2.09
		C139.231,159.188,137.579,159.59,135.671,159.59z"/>
	<path class="st0" d="M150.208,159.555c-4.332,0-7.305-2.164-7.305-7.895c0-6.352,3.195-9.73,8.227-9.73
		c3.781,0,5.838,2.645,5.838,6.391c0,0.77,0,1.504-0.111,2.684h-11.055c0,4.363,1.619,6.203,5.104,6.203
		c1.803,0,3.566-0.664,5.4-1.797l0.881,1.98C155.278,158.747,153.11,159.555,150.208,159.555z M154.323,148.536
		c0-2.746-1.213-4.363-3.453-4.363c-2.643,0-4.516,1.578-4.918,4.773h8.371V148.536z"/>
	<path class="st0" d="M161.555,138.372v-2.828h3.266v2.828H161.555z M161.737,159.333v-17.07l2.939-0.188v17.258H161.737z"/>
	<path class="st0" d="M174.882,159.59c-2.791,0-4.113-1.246-4.113-4.109V144.54l-2.309-0.109l0.182-2.023l2.166-0.105l0.404-5.516
		l2.535-0.25v5.727h5.617l-0.188,2.313h-5.43v10.648c0,1.43,0.478,1.949,1.836,1.949c1.098,0,2.238-0.266,3.594-0.848l0.627,2.09
		C178.444,159.188,176.794,159.59,174.882,159.59z"/>
</g>
<g>
	<path class="st1" d="M27.532,198.544l-2.68-7.633h-9.289l-2.938,7.633H9.692l9.434-24.926h2.867l8.848,24.926H27.532z
		 M16.298,188.704h7.859l-3.379-9.98c-0.258-0.773-0.363-1.508-0.363-1.988c0,0.48-0.184,1.289-0.441,1.988L16.298,188.704z"/>
	<path class="st1" d="M45.087,198.544v-12.328c0-1.473-0.477-2.648-2.273-2.648c-1.434,0-3.602,1.031-5.512,2.934v12.043h-2.938
		v-17.066l2.496-0.223c0.219,0.48,0.371,1.691,0.406,2.934c2.348-2.199,4.516-3.082,6.574-3.082c3.156,0,4.223,1.582,4.223,4.664
		v12.773H45.087z"/>
	<path class="st1" d="M58.196,198.805c-2.793,0-4.113-1.25-4.113-4.113v-10.941l-2.316-0.109l0.184-2.02l2.168-0.109l0.406-5.512
		l2.531-0.25v5.727h5.621l-0.188,2.309h-5.434v10.652c0,1.43,0.476,1.945,1.836,1.945c1.106,0,2.242-0.262,3.598-0.848l0.629,2.094
		C61.759,198.399,60.102,198.805,58.196,198.805z"/>
	<path class="st1" d="M71.966,198.544H69.54l-5.25-17.031h2.902l3.637,12.297c0.219,0.738,0.293,1.25,0.293,1.727
		c0-0.477,0.144-1.098,0.367-1.727l4-12.297l2.461-0.148l4.113,12.445c0.254,0.738,0.328,1.25,0.328,1.727
		c0-0.477,0.109-1.098,0.332-1.727l3.961-12.297h2.609l-5.727,17.031h-2.535l-4.184-12.367c-0.219-0.625-0.293-1.25-0.293-1.727
		c0,0.477-0.109,1.063-0.336,1.727L71.966,198.544z"/>
	<path class="st1" d="M98.805,198.77c-4.332,0-7.309-2.164-7.309-7.895c0-6.352,3.195-9.73,8.226-9.73
		c3.781,0,5.84,2.641,5.84,6.391c0,0.77,0,1.504-0.113,2.68H94.399c0,4.367,1.613,6.203,5.105,6.203c1.797,0,3.559-0.66,5.398-1.797
		l0.879,1.984C103.872,197.958,101.708,198.77,98.805,198.77z M102.919,187.751c0-2.75-1.211-4.367-3.453-4.367
		c-2.641,0-4.516,1.578-4.922,4.773h8.375V187.751z"/>
	<path class="st1" d="M119.188,183.786c-0.555-0.035-0.777-0.035-1.07-0.035c-1.762,0-2.273,0.367-4.848,4.953v9.84h-2.934v-17.066
		l2.313-0.262c0.258,0.551,0.402,2.535,0.438,4.594c1.875-3.93,2.867-4.664,4.59-4.664c0.699,0,1.395,0.109,1.766,0.219
		L119.188,183.786z"/>
	<path class="st1" d="M129.134,198.731c-1.395,0-2.57-0.188-3.484-0.699v7.641l-3.012,0.18v-24.375l2.496-0.262
		c0.219,0.52,0.367,1.434,0.402,2.277c1.43-1.469,3.375-2.387,5.469-2.387c4.078,0,6.391,2.645,6.391,8.336
		C137.395,194.622,134.825,198.731,129.134,198.731z M130.161,183.528c-1.832,0-3.488,1.106-4.512,2.242v9.949
		c0.953,0.477,2.273,0.887,3.598,0.887c3.301,0,5.101-2.5,5.101-6.945C134.348,185.989,133.102,183.528,130.161,183.528z"/>
	<path class="st1" d="M147.969,198.77c-4.332,0-7.309-2.164-7.309-7.895c0-6.352,3.199-9.73,8.227-9.73
		c3.785,0,5.84,2.641,5.84,6.391c0,0.77,0,1.504-0.113,2.68h-11.051c0,4.367,1.617,6.203,5.109,6.203
		c1.797,0,3.559-0.66,5.391-1.797l0.883,1.984C153.04,197.958,150.872,198.77,147.969,198.77z M152.083,187.751
		c0-2.75-1.211-4.367-3.453-4.367c-2.641,0-4.516,1.578-4.918,4.773h8.371V187.751z"/>
	<path class="st1" d="M170.223,198.544v-12.328c0-1.473-0.48-2.648-2.277-2.648c-1.434,0-3.602,1.031-5.508,2.934v12.043h-2.934
		v-17.066l2.492-0.223c0.219,0.48,0.371,1.691,0.402,2.934c2.352-2.199,4.52-3.082,6.574-3.082c3.156,0,4.223,1.582,4.223,4.664
		v12.773H170.223z"/>
</g>
<g>
	<path class="st1" d="M128.981,7.086v57.699c0,19.918-12.621,32.535-30.172,32.535c-17.738,0-30.559-12.617-30.559-32.535V7.086
		H53.657V7.11h-9.271v58.879c0,21.82,13.518,37.922,32.17,43.031c0.305,0.094,0.645,0.191,1.045,0.285
		c0.389,0.09,0.799,0.156,1.195,0.242c0.797,0.176,1.592,0.355,2.404,0.488c7.061,1.246,14.75,1.402,21.662,0.496
		c1.166-0.105,2.332-0.246,3.475-0.426c1.039-0.219,2.059-0.504,3.066-0.793c0.008,0,0.018,0,0.023-0.008
		c0.012-0.008,0.023-0.008,0.035-0.012c0.244-0.066,0.49-0.133,0.73-0.203c0.068-0.027,0.119-0.047,0.178-0.063
		c17.664-5.547,30.461-21.332,30.461-42.558V7.086H128.981z"/>
	<path class="st0" d="M117.829,60.77c-31.783-15.238-43.477-6.691-43.477-6.691s15.338-29.246,48.084-15.547
		c35.352,14.77,45.674,13.066,50.356,4.77C176.755,58.801,158.169,80.086,117.829,60.77z"/>
</g>
</svg>
