<?xml version="1.0" encoding="UTF-8" standalone="no"?>
<svg
   width="191.65668mm"
   height="85.432579mm"
   viewBox="0 0 191.65668 85.432579"
   version="1.1"
   id="svg1872"
   inkscape:version="1.2.2 (1:1.2.2+202212051552+b0a8486541)"
   sodipodi:docname="workflow.svg"
   xmlns:inkscape="http://www.inkscape.org/namespaces/inkscape"
   xmlns:sodipodi="http://sodipodi.sourceforge.net/DTD/sodipodi-0.dtd"
   xmlns="http://www.w3.org/2000/svg"
   xmlns:svg="http://www.w3.org/2000/svg"
   xmlns:rdf="http://www.w3.org/1999/02/22-rdf-syntax-ns#"
   xmlns:cc="http://creativecommons.org/ns#"
   xmlns:dc="http://purl.org/dc/elements/1.1/">
  <defs
     id="defs1866" />
  <sodipodi:namedview
     id="base"
     pagecolor="#ffffff"
     bordercolor="#666666"
     borderopacity="1.0"
     inkscape:pageopacity="0.0"
     inkscape:pageshadow="2"
     inkscape:zoom="1.979899"
     inkscape:cx="401.2831"
     inkscape:cy="187.88837"
     inkscape:document-units="mm"
     inkscape:current-layer="layer1"
     inkscape:document-rotation="0"
     showgrid="false"
     inkscape:window-width="1920"
     inkscape:window-height="1028"
     inkscape:window-x="0"
     inkscape:window-y="27"
     inkscape:window-maximized="1"
     inkscape:showpageshadow="2"
     inkscape:pagecheckerboard="0"
     inkscape:deskcolor="#d1d1d1" />
  <metadata
     id="metadata1869">
    <rdf:RDF>
      <cc:Work
         rdf:about="">
        <dc:format>image/svg+xml</dc:format>
        <dc:type
           rdf:resource="http://purl.org/dc/dcmitype/StillImage" />
        <dc:title />
      </cc:Work>
    </rdf:RDF>
  </metadata>
  <g
     inkscape:label="Layer 1"
     inkscape:groupmode="layer"
     id="layer1"
     transform="translate(-4.2293935,-36.904774)">
    <rect
       style="display:inline;fill:#008080;fill-opacity:1;stroke:#008080;stroke-width:1.01786;stroke-miterlimit:4;stroke-dasharray:none;stroke-opacity:1"
       id="rect1774"
       width="22.177727"
       height="54.883041"
       x="-69.944862"
       y="10.289355"
       transform="rotate(-90)" />
    <rect
       style="display:inline;fill:#008080;fill-opacity:1;stroke:#008080;stroke-width:0.866563;stroke-miterlimit:4;stroke-dasharray:none;stroke-opacity:1"
       id="rect1776"
       width="22.177727"
       height="39.779652"
       x="-69.944862"
       y="84.104218"
       transform="rotate(-90)" />
    <rect
       style="display:inline;fill:#008080;fill-opacity:1;stroke:#008080;stroke-width:0.924595;stroke-miterlimit:4;stroke-dasharray:none;stroke-opacity:1"
       id="rect1778"
       width="22.126362"
       height="45.390537"
       x="-70.344566"
       y="145.16695"
       transform="rotate(-90)" />
    <rect
       style="display:inline;fill:#008080;fill-opacity:1;stroke:#008080;stroke-width:0.866563;stroke-miterlimit:4;stroke-dasharray:none;stroke-opacity:1"
       id="rect1780"
       width="22.177727"
       height="39.779652"
       x="-114.18558"
       y="145.78421"
       transform="rotate(-90)" />
    <rect
       style="display:inline;fill:#008080;fill-opacity:1;stroke:#008080;stroke-width:0.866563;stroke-miterlimit:4;stroke-dasharray:none;stroke-opacity:1"
       id="rect1784"
       width="22.177727"
       height="39.779652"
       x="-113.76019"
       y="84.104218"
       transform="rotate(-90)" />
    <path
       d="m 132.00738,64.208832 h 4.19146 l 0.0104,0.08121 c 0.004,0.04526 0.009,0.700224 0.009,1.45503 l 0.001,1.372498 0.0924,-0.08787 c 0.0506,-0.04792 1.06388,-1.006406 2.25292,-2.129963 1.18755,-1.123557 2.56135,-2.422837 3.05306,-2.887436 0.49022,-0.464602 0.93872,-0.887927 0.99534,-0.938516 l 0.10132,-0.09319 -0.32334,-0.306185 c -2.0458,-1.935604 -5.23297,-4.950835 -5.6472,-5.340889 l -0.52598,-0.496544 v 1.451035 1.451041 h -4.20188 -4.20189 v 3.234886 3.234887 z"
       id="path1051"
       style="display:inline;fill:#008080;fill-opacity:1;stroke-width:0.00140839" />
    <path
       d="m 72.028057,63.783446 h 4.191454 l 0.01043,0.08121 c 0.0045,0.04526 0.0089,0.700224 0.0089,1.455029 l 0.0015,1.372499 0.09238,-0.08786 c 0.05066,-0.04792 1.063882,-1.006406 2.252922,-2.129963 1.187552,-1.123558 2.561352,-2.422837 3.053066,-2.887436 0.490216,-0.464602 0.938714,-0.887928 0.995334,-0.938516 l 0.101324,-0.09319 -0.323338,-0.306185 C 80.366225,58.31343 77.179058,55.298198 76.764826,54.908145 L 76.238847,54.4116 v 1.451036 1.451041 h -4.201882 -4.201891 v 3.234886 3.234886 z"
       id="path1786"
       style="display:inline;fill:#008080;fill-opacity:1;stroke-width:0.00140839" />
    <path
       d="m 138.09638,107.59813 h -4.19145 l -0.0104,0.0812 c -0.004,0.0453 -0.009,0.70022 -0.009,1.45503 l -10e-4,1.3725 -0.0924,-0.0879 c -0.0507,-0.0479 -1.06388,-1.0064 -2.25292,-2.12996 -1.18755,-1.12356 -2.56135,-2.42284 -3.05307,-2.88744 -0.49021,-0.4646 -0.93871,-0.88792 -0.99533,-0.93851 l -0.10133,-0.0932 0.32334,-0.30618 c 2.04581,-1.93561 5.23297,-4.95084 5.64721,-5.340893 l 0.52597,-0.496544 v 1.451035 1.451042 h 4.20189 4.20189 v 3.23489 3.23488 z"
       id="path1790"
       style="display:inline;fill:#008080;fill-opacity:1;stroke-width:0.00140839" />
    <path
       d="m 101.35005,84.811861 v -4.191454 l -0.0812,-0.01043 c -0.0453,-0.0045 -0.70022,-0.0089 -1.455026,-0.0089 l -1.372498,-0.0015 0.08786,-0.09238 c 0.04792,-0.05066 1.006406,-1.063881 2.129964,-2.252922 1.12356,-1.187552 2.42284,-2.561352 2.88744,-3.053066 0.4646,-0.490216 0.88793,-0.938714 0.93852,-0.995334 l 0.0932,-0.101324 0.30619,0.323339 c 1.93559,2.045803 4.95082,5.23297 5.34089,5.647202 l 0.49654,0.525979 h -1.45104 -1.45104 v 4.201883 4.20189 h -3.23489 -3.23489 z"
       id="path1792"
       style="display:inline;fill:#008080;fill-opacity:1;stroke-width:0.00140839" />
    <path
       d="m 160.46462,78.577537 v 4.917051 l -0.10765,0.01224 c -0.06,0.0052 -0.92824,0.01048 -1.92883,0.01048 l -1.81942,0.0017 0.11647,0.108375 c 0.0635,0.05943 1.33412,1.248053 2.82354,2.642934 1.48942,1.393131 3.21178,3.004756 3.82767,3.581592 0.61589,0.575078 1.17706,1.101217 1.24412,1.167638 l 0.12353,0.118865 0.40589,-0.379312 c 2.56589,-2.399959 6.56296,-6.138869 7.08003,-6.624808 l 0.65823,-0.617033 h -1.92353 -1.92354 v -4.929285 -4.929293 h -4.28826 -4.28825 z"
       id="path1796"
       style="display:inline;fill:#008080;fill-opacity:1;stroke-width:0.00175632" />
    <g
       id="g194">
      <path
         d="M 33.69429,90.207251 V 85.35034 l -0.102511,-0.01209 c -0.05714,-0.0052 -0.8839,-0.01035 -1.836701,-0.01035 l -1.732518,-0.0017 0.110913,-0.107048 c 0.06049,-0.0587 1.270396,-1.232789 2.688675,-2.610608 1.418278,-1.376095 3.058372,-2.968005 3.644839,-3.537788 0.586472,-0.568046 1.12084,-1.087747 1.1847,-1.153357 l 0.11763,-0.117412 0.386502,0.374674 c 2.443332,2.370606 6.249491,6.063783 6.741859,6.543781 l 0.626792,0.609487 H 43.692813 41.861151 V 90.196895 95.0659 H 37.777719 33.69429 Z"
         id="path1794"
         style="display:inline;fill:#80e5ff;fill-opacity:1;stroke-width:0.00170335" />
      <rect
         style="display:inline;fill:#80e5ff;fill-opacity:1;stroke-width:0.210922"
         id="rect1798"
         width="8.1430149"
         height="18.592476"
         x="33.723312"
         y="90.207245" />
      <rect
         style="display:inline;fill:#80e5ff;fill-opacity:1;stroke-width:0.276026"
         id="rect1800"
         width="8.306284"
         height="31.21575"
         x="-108.79972"
         y="41.812622"
         transform="rotate(-90)" />
    </g>
    <text
       xml:space="preserve"
       style="font-style:normal;font-variant:normal;font-weight:normal;font-stretch:normal;font-size:7.94068px;line-height:1.25;font-family:Bahnschrift;-inkscape-font-specification:'Bahnschrift, Normal';font-variant-ligatures:normal;font-variant-caps:normal;font-variant-numeric:normal;font-feature-settings:normal;text-align:center;writing-mode:lr-tb;text-anchor:middle;display:inline;fill:#ffffff;fill-opacity:1;stroke:none;stroke-width:0.212692"
       x="36.991001"
       y="56.469616"
       id="text1816"><tspan
         sodipodi:role="line"
         x="36.991001"
         y="56.469616"
         style="font-style:normal;font-variant:normal;font-weight:normal;font-stretch:normal;font-size:7.94068px;font-family:Bahnschrift;-inkscape-font-specification:'Bahnschrift, Normal';font-variant-ligatures:normal;font-variant-caps:normal;font-variant-numeric:normal;font-feature-settings:normal;text-align:center;writing-mode:lr-tb;text-anchor:middle;fill:#ffffff;stroke-width:0.212692"
         id="tspan1814">Experimental</tspan><tspan
         sodipodi:role="line"
         x="36.991001"
         y="66.395462"
         style="font-style:normal;font-variant:normal;font-weight:normal;font-stretch:normal;font-size:7.94068px;font-family:Bahnschrift;-inkscape-font-specification:'Bahnschrift, Normal';font-variant-ligatures:normal;font-variant-caps:normal;font-variant-numeric:normal;font-feature-settings:normal;text-align:center;writing-mode:lr-tb;text-anchor:middle;fill:#ffffff;stroke-width:0.212692"
         id="tspan1818"> Data</tspan></text>
    <text
       xml:space="preserve"
       style="font-style:normal;font-variant:normal;font-weight:normal;font-stretch:normal;font-size:7.94068px;line-height:1.25;font-family:Bahnschrift;-inkscape-font-specification:'Bahnschrift, Normal';font-variant-ligatures:normal;font-variant-caps:normal;font-variant-numeric:normal;font-feature-settings:normal;text-align:center;writing-mode:lr-tb;text-anchor:middle;display:inline;fill:#ffffff;fill-opacity:1;stroke:none;stroke-width:0.212692"
       x="167.93008"
       y="57.400917"
       id="text1830"><tspan
         sodipodi:role="line"
         x="167.93008"
         y="57.400917"
         style="font-style:normal;font-variant:normal;font-weight:normal;font-stretch:normal;font-size:7.94068px;font-family:Bahnschrift;-inkscape-font-specification:'Bahnschrift, Normal';font-variant-ligatures:normal;font-variant-caps:normal;font-variant-numeric:normal;font-feature-settings:normal;text-align:center;writing-mode:lr-tb;text-anchor:middle;fill:#ffffff;stroke-width:0.212692"
         id="tspan1828">Is distortion</tspan><tspan
         sodipodi:role="line"
         x="167.93008"
         y="67.597969"
         style="font-style:normal;font-variant:normal;font-weight:normal;font-stretch:normal;font-size:7.94068px;font-family:Bahnschrift;-inkscape-font-specification:'Bahnschrift, Normal';font-variant-ligatures:normal;font-variant-caps:normal;font-variant-numeric:normal;font-feature-settings:normal;text-align:center;writing-mode:lr-tb;text-anchor:middle;fill:#ffffff;stroke-width:0.212692"
         id="tspan1832">free?</tspan></text>
    <text
       xml:space="preserve"
       style="font-style:normal;font-variant:normal;font-weight:normal;font-stretch:normal;font-size:7.94068px;line-height:1.25;font-family:Bahnschrift;-inkscape-font-specification:'Bahnschrift, Normal';font-variant-ligatures:normal;font-variant-caps:normal;font-variant-numeric:normal;font-feature-settings:normal;text-align:center;writing-mode:lr-tb;text-anchor:middle;display:inline;fill:#ffffff;fill-opacity:1;stroke:none;stroke-width:0.212692"
       x="166.14883"
       y="100.53961"
       id="text1838"><tspan
         sodipodi:role="line"
         x="166.14883"
         y="100.53961"
         style="font-style:normal;font-variant:normal;font-weight:normal;font-stretch:normal;font-size:7.94068px;font-family:Bahnschrift;-inkscape-font-specification:'Bahnschrift, Normal';font-variant-ligatures:normal;font-variant-caps:normal;font-variant-numeric:normal;font-feature-settings:normal;text-align:center;writing-mode:lr-tb;text-anchor:middle;fill:#ffffff;stroke-width:0.212692"
         id="tspan1836">Improve</tspan><tspan
         sodipodi:role="line"
         x="166.14883"
         y="110.73666"
         style="font-style:normal;font-variant:normal;font-weight:normal;font-stretch:normal;font-size:7.94068px;font-family:Bahnschrift;-inkscape-font-specification:'Bahnschrift, Normal';font-variant-ligatures:normal;font-variant-caps:normal;font-variant-numeric:normal;font-feature-settings:normal;text-align:center;writing-mode:lr-tb;text-anchor:middle;fill:#ffffff;stroke-width:0.212692"
         id="tspan1842">modelling</tspan></text>
    <text
       xml:space="preserve"
       style="font-style:normal;font-variant:normal;font-weight:normal;font-stretch:normal;font-size:7.94068px;line-height:1.25;font-family:Bahnschrift;-inkscape-font-specification:'Bahnschrift, Normal';font-variant-ligatures:normal;font-variant-caps:normal;font-variant-numeric:normal;font-feature-settings:normal;text-align:start;writing-mode:lr-tb;text-anchor:start;display:inline;fill:#ffffff;fill-opacity:1;stroke:none;stroke-width:0.212692"
       x="96.319733"
       y="60.590984"
       id="text1846"><tspan
         sodipodi:role="line"
         x="96.319733"
         y="60.590984"
         style="font-style:normal;font-variant:normal;font-weight:normal;font-stretch:normal;font-size:7.94068px;font-family:Bahnschrift;-inkscape-font-specification:'Bahnschrift, Normal';font-variant-ligatures:normal;font-variant-caps:normal;font-variant-numeric:normal;font-feature-settings:normal;text-align:start;writing-mode:lr-tb;text-anchor:start;fill:#ffffff;stroke-width:0.212692"
         id="tspan1844">CNN</tspan></text>
    <text
       xml:space="preserve"
       style="font-style:normal;font-variant:normal;font-weight:normal;font-stretch:normal;font-size:7.94068px;line-height:1.25;font-family:Bahnschrift;-inkscape-font-specification:'Bahnschrift, Normal';font-variant-ligatures:normal;font-variant-caps:normal;font-variant-numeric:normal;font-feature-settings:normal;text-align:center;writing-mode:lr-tb;text-anchor:middle;display:inline;fill:#ffffff;fill-opacity:1;stroke:none;stroke-width:0.212692"
       x="104.45628"
       y="105.42085"
       id="text1850"><tspan
         sodipodi:role="line"
         x="104.45628"
         y="105.42085"
         style="font-style:normal;font-variant:normal;font-weight:normal;font-stretch:normal;font-size:7.94068px;font-family:Bahnschrift;-inkscape-font-specification:'Bahnschrift, Normal';font-variant-ligatures:normal;font-variant-caps:normal;font-variant-numeric:normal;font-feature-settings:normal;text-align:center;writing-mode:lr-tb;text-anchor:middle;fill:#ffffff;stroke-width:0.212692"
         id="tspan1848">Retrain</tspan></text>
  </g>
</svg>
